<svg width="50" height="50" viewBox="0 0 50 50" fill="none" xmlns="http://www.w3.org/2000/svg">
<path d="M20.777 1.07399C23.4102 -0.358282 26.5898 -0.358282 29.223 1.07399L44.489 9.37399C47.3334 10.9212 49.1041 13.9 49.104 17.138V32.858C49.1041 36.096 47.3334 39.0748 44.489 40.622L29.223 48.922C26.5898 50.3543 23.4102 50.3543 20.777 48.922L5.511 40.622C2.66655 39.0748 0.895921 36.096 0.895996 32.858V17.142C0.895921 13.904 2.66655 10.9252 5.511 9.37799L20.777 1.07399Z" fill="#00ACED"/>
<path d="M20.777 1.07399C23.4102 -0.358282 26.5898 -0.358282 29.223 1.07399L44.489 9.37399C47.3334 10.9212 49.1041 13.9 49.104 17.138V32.858C49.1041 36.096 47.3334 39.0748 44.489 40.622L29.223 48.922C26.5898 50.3543 23.4102 50.3543 20.777 48.922L5.511 40.622C2.66655 39.0748 0.895921 36.096 0.895996 32.858V17.142C0.895921 13.904 2.66655 10.9252 5.511 9.37799L20.777 1.07399Z" fill="url(#paint0_linear_2_2335)"/>
<path fill-rule="evenodd" clip-rule="evenodd" d="M17.2859 34.75H32.7139C33.0609 34.7508 33.3823 34.5673 33.5579 34.268L36.0189 29.997C36.1849 29.7124 36.1849 29.3605 36.0189 29.076L28.3279 15.731C28.152 15.4316 27.8302 15.2484 27.4829 15.25H22.5159C22.1687 15.2484 21.8469 15.4316 21.6709 15.731L13.9809 29.079C13.815 29.3635 13.815 29.7154 13.9809 30L16.4409 34.268C16.6163 34.568 16.9384 34.7518 17.2859 34.75ZM19.8179 29.537L24.9999 20.559L30.1819 29.537H19.8179Z" fill="white"/>
<defs>
<linearGradient id="paint0_linear_2_2335" x1="0.895996" y1="-0.000213623" x2="0.895996" y2="49.9962" gradientUnits="userSpaceOnUse">
<stop stop-color="#C1B2FF"/>
<stop offset="1" stop-color="#9B87FF"/>
</linearGradient>
</defs>
</svg>
