<svg width="18" height="19" viewBox="0 0 18 19" fill="none" xmlns="http://www.w3.org/2000/svg">
<path fill-rule="evenodd" clip-rule="evenodd" d="M14.419 8.5C14.419 5.728 12.938 3.408 10.356 2.794V2.172C10.356 1.42394 9.74957 0.817505 9.0015 0.817505C8.25343 0.817505 7.647 1.42394 7.647 2.172V2.786C5.055 3.404 3.584 5.71601 3.584 8.497V13.011L1.779 14.817V15.717H16.225V14.817L14.419 13.011V8.5ZM3.72 0.957005L5.011 2.249C3.11556 3.59194 1.93568 5.72567 1.806 8.045H0C0.12357 5.24652 1.48711 2.64846 3.72 0.957005ZM18.004 8.049H16.202C16.0682 5.73097 14.8916 3.59832 13.002 2.249L14.284 0.961005C16.5107 2.65769 17.8726 5.25264 18.004 8.049ZM9.363 18.396C9.24444 18.4218 9.12332 18.4339 9.002 18.432V18.428C8.00748 18.4259 7.19903 17.6255 7.187 16.631H10.798C10.7998 16.871 10.7539 17.1089 10.663 17.331C10.4277 17.8755 9.9432 18.2724 9.363 18.396Z" fill="#EFF0F6"/>
</svg>
