<svg width="49" height="50" viewBox="0 0 49 50" fill="none" xmlns="http://www.w3.org/2000/svg">
<path d="M19.881 1.074C22.5142 -0.358274 25.6938 -0.358274 28.327 1.074L43.593 9.374C46.4374 10.9212 48.2081 13.9 48.208 17.138V32.858C48.2081 36.096 46.4374 39.0748 43.593 40.622L28.327 48.922C25.6938 50.3543 22.5142 50.3543 19.881 48.922L4.615 40.622C1.77056 39.0748 -7.5054e-05 36.096 0 32.858V17.142C-7.5054e-05 13.904 1.77056 10.9252 4.615 9.378L19.881 1.074Z" fill="url(#paint0_linear_2_2440)"/>
<path fill-rule="evenodd" clip-rule="evenodd" d="M18.5559 22.763L23.9989 17.32L29.4449 22.766L32.6119 19.599L23.9999 10.985L15.3849 19.596L18.5559 22.763ZM9.98486 25L13.1519 21.833L16.3189 25L13.1519 28.167L9.98486 25ZM23.9989 32.68L18.5559 27.237L18.5569 27.241L15.3849 30.404L23.9989 39.015L32.6119 30.4L29.4449 27.234L23.9989 32.68ZM31.6789 25L34.8459 21.833L38.0129 25L34.8459 28.167L31.6789 25ZM23.9999 28.215L27.2109 25L27.2139 24.999L23.9999 21.785L21.6199 24.163L21.3469 24.436L20.7849 24.999H20.7789L20.7849 25.005L23.9999 28.215Z" fill="white"/>
<defs>
<linearGradient id="paint0_linear_2_2440" x1="0" y1="-0.000205994" x2="0" y2="49.9962" gradientUnits="userSpaceOnUse">
<stop stop-color="#FAC47F"/>
<stop offset="1" stop-color="#F8A946"/>
</linearGradient>
</defs>
</svg>
