<svg width="49" height="50" viewBox="0 0 49 50" fill="none" xmlns="http://www.w3.org/2000/svg">
<path d="M19.881 1.07401C22.5142 -0.358267 25.6938 -0.358267 28.327 1.07401L43.593 9.37401C46.4374 10.9212 48.2081 13.9 48.208 17.138V32.858C48.2081 36.096 46.4374 39.0748 43.593 40.622L28.327 48.922C25.6938 50.3543 22.5142 50.3543 19.881 48.922L4.615 40.622C1.77056 39.0748 -7.5054e-05 36.096 0 32.858V17.142C-7.5054e-05 13.904 1.77056 10.9252 4.615 9.37801L19.881 1.07401Z" fill="url(#paint0_linear_2_2495)"/>
<path fill-rule="evenodd" clip-rule="evenodd" d="M30.2299 18.549C29.2779 16.13 26.8909 15.911 24.1109 16.449L23.1229 13L21.0229 13.6L21.9869 16.961C21.5526 17.0845 21.1121 17.2186 20.6723 17.3524L20.6718 17.3526C20.5527 17.3888 20.4337 17.425 20.3149 17.461L19.3459 14.078L17.2459 14.678L18.2339 18.129C17.7829 18.269 17.3339 18.406 16.9029 18.529V18.517L14.0029 19.348L14.6469 21.593C14.6469 21.593 16.1899 21.117 16.1719 21.154C16.737 20.9118 17.392 21.1672 17.6439 21.728L18.7729 25.659C18.8472 25.638 18.9227 25.6216 18.9989 25.61L18.7769 25.674L20.3519 31.189C20.3968 31.3896 20.3599 31.5997 20.2494 31.773C20.1388 31.9462 19.9637 32.0682 19.7629 32.112C19.7959 32.128 18.2339 32.549 18.2339 32.549L18.5339 35.178L21.2669 34.393C21.5101 34.3242 21.7519 34.2577 21.9913 34.1918L21.9914 34.1918C22.2531 34.1198 22.5121 34.0486 22.7669 33.976L23.7669 37.466L25.8669 36.866L24.8769 33.413C25.4396 33.2637 26.0006 33.1083 26.5599 32.947L27.5439 36.386L29.6439 35.786L28.6439 32.302C32.1169 31.086 34.3339 29.488 33.6899 26.082C33.1719 23.341 31.5749 22.51 29.4319 22.603C30.5833 21.5892 30.907 19.9267 30.2199 18.555L30.2299 18.549ZM29.4299 26.854C30.1178 29.2534 26.3266 30.2784 24.6038 30.7442C24.4532 30.7849 24.3185 30.8213 24.2039 30.854L22.8779 26.229C23.0201 26.1881 23.1916 26.1344 23.3857 26.0737L23.3858 26.0736C25.1344 25.5261 28.7269 24.4012 29.4289 26.852L29.4299 26.854ZM22.6008 24.0204C24.0355 23.6385 27.2066 22.7943 26.5809 20.61L26.5829 20.607C25.942 18.3812 22.9559 19.324 21.4981 19.7843C21.3342 19.836 21.1897 19.8816 21.0699 19.916L22.2699 24.11C22.3647 24.0832 22.4762 24.0535 22.6008 24.0204Z" fill="white"/>
<defs>
<linearGradient id="paint0_linear_2_2495" x1="0" y1="-0.000198364" x2="0" y2="49.9962" gradientUnits="userSpaceOnUse">
<stop stop-color="#FFD5CF"/>
<stop offset="1" stop-color="#FE8270"/>
</linearGradient>
</defs>
</svg>
