<svg width="59" height="61" viewBox="0 0 59 61" fill="none" xmlns="http://www.w3.org/2000/svg">
<path d="M24.419 2.19998C27.5883 0.481191 31.4117 0.481191 34.581 2.19998L52.948 12.165C56.3677 14.017 58.4986 17.593 58.5 21.482V40.34C58.4986 44.229 56.3677 47.8049 52.948 49.657L34.581 59.622C31.4117 61.3408 27.5883 61.3408 24.419 59.622L6.052 49.657C2.63232 47.8049 0.501402 44.229 0.5 40.34V21.482C0.501402 17.593 2.63232 14.017 6.052 12.165L24.419 2.19998Z" fill="url(#paint0_linear_2_2388)"/>
<path d="M21.5351 36.09C21.5357 34.7686 22.6067 33.6975 23.9281 33.697H34.6961C35.3589 33.697 35.8961 33.1597 35.8961 32.497C35.8961 31.8342 35.3589 31.297 34.6961 31.297H25.4671C22.3118 31.3652 19.6059 29.0584 19.1741 25.932C18.9991 24.2468 19.5469 22.5664 20.6814 21.3082C21.816 20.0499 23.4309 19.3317 25.1251 19.332H27.5181V16.939C27.5187 15.6176 28.5897 14.5465 29.9111 14.546C31.2325 14.5465 32.3036 15.6176 32.3041 16.939V19.332H35.8931C37.2145 19.3325 38.2856 20.4036 38.2861 21.725C38.2856 23.0464 37.2145 24.1174 35.8931 24.118H25.1251C24.8069 24.118 24.5016 24.2444 24.2766 24.4695C24.0516 24.6945 23.9251 24.9997 23.9251 25.318C23.9251 25.9807 24.4624 26.518 25.1251 26.518H34.3541C37.5095 26.4497 40.2153 28.7566 40.6471 31.883C40.8218 33.5681 40.274 35.2483 39.1395 36.5065C38.005 37.7647 36.3903 38.483 34.6961 38.483H32.3031V40.876C32.3026 42.1974 31.2315 43.2684 29.9101 43.269C29.2755 43.269 28.6668 43.0169 28.218 42.5681C27.7692 42.1193 27.5171 41.5107 27.5171 40.876V38.483H23.9281C22.6067 38.4824 21.5357 37.4114 21.5351 36.09Z" fill="#EDF4FF"/>
<defs>
<linearGradient id="paint0_linear_2_2388" x1="0.5" y1="0.910889" x2="0.5" y2="60.9111" gradientUnits="userSpaceOnUse">
<stop stop-color="#FF9BD0"/>
<stop offset="1" stop-color="#FF73AA"/>
</linearGradient>
</defs>
</svg>
