<svg width="18" height="15" viewBox="0 0 18 15" fill="none" xmlns="http://www.w3.org/2000/svg">
<path fill-rule="evenodd" clip-rule="evenodd" d="M16.045 0.43999H1.78301C1.31054 0.438639 0.857163 0.626347 0.523922 0.96128C0.19068 1.29621 0.00526907 1.75053 0.00901018 2.22299L1.01784e-05 12.919C-0.00159086 13.3924 0.185746 13.8468 0.520471 14.1815C0.855196 14.5163 1.30964 14.7036 1.78301 14.702H16.045C16.5184 14.7036 16.9728 14.5163 17.3075 14.1815C17.6423 13.8468 17.8296 13.3924 17.828 12.919V2.22299C17.8296 1.74962 17.6423 1.29518 17.3075 0.960451C16.9728 0.625726 16.5184 0.438389 16.045 0.43999ZM16.045 12.919H1.78301V7.57099H16.045V12.919ZM1.78301 4.00499H16.045V2.22299H1.78301V4.00499Z" fill="#EFF0F6"/>
</svg>
