<svg width="24" height="24" viewBox="0 0 24 24" fill="none" xmlns="http://www.w3.org/2000/svg">
<path fill-rule="evenodd" clip-rule="evenodd" d="M10 0.375C7.16954 0.375 4.875 2.66954 4.875 5.5C4.875 6.39746 5.60254 7.125 6.5 7.125H11.23C13.605 7.125 15.768 7.608 17.205 9.045C17.609 9.49617 17.9042 10.0339 18.068 10.617C18.2102 11.0644 18.3106 11.524 18.368 11.99C18.4419 12.6075 18.9428 13.0862 19.563 13.132C20.6129 13.2069 21.6467 12.8422 22.417 12.1249C23.1873 11.4077 23.6249 10.4025 23.625 9.35V6.666C23.625 3.19158 20.8084 0.375 17.334 0.375H10ZM11.23 4.875H7.193C7.48623 3.56015 8.65285 2.62502 10 2.625H17.334C18.4057 2.625 19.4336 3.05075 20.1914 3.80858C20.9493 4.56642 21.375 5.59426 21.375 6.666V9.35C21.3757 9.9684 21.0068 10.5274 20.438 10.77C20.381 10.513 20.311 10.229 20.211 9.929C19.9389 9.00519 19.4543 8.15791 18.796 7.455C16.73 5.384 13.815 4.875 11.23 4.875Z" fill="#363D4E"/>
<path fill-rule="evenodd" clip-rule="evenodd" d="M7.929 4.875C3.75704 4.875 0.375 8.25704 0.375 12.429V12.905C0.375388 16.4495 2.99717 19.4473 6.51 19.92L6.21 21.101C6.00519 21.9188 6.37132 22.7727 7.10488 23.1881C7.83844 23.6035 8.75905 23.4783 9.355 22.882L12.255 19.982H13.075C17.2128 19.9344 20.5421 16.5666 20.5421 12.4285C20.5421 8.29044 17.2128 4.92261 13.075 4.875H7.929ZM2.629 12.429C2.629 9.50189 5.00189 7.129 7.929 7.129L13.075 7.125C16.004 7.125 18.3785 9.49946 18.3785 12.4285C18.3785 15.3575 16.004 17.732 13.075 17.732H11.984C11.5611 17.7325 11.1555 17.9004 10.856 18.199L8.723 20.332L8.908 19.592C9.01852 19.145 8.91758 18.672 8.63423 18.309C8.35087 17.946 7.91648 17.7333 7.456 17.732C4.79012 17.732 2.629 15.5709 2.629 12.905V12.429Z" fill="#363D4E"/>
</svg>
