<svg width="16" height="16" viewBox="0 0 16 16" fill="none" xmlns="http://www.w3.org/2000/svg">
<rect width="16" height="16" rx="3" fill="url(#paint0_linear_1_1425)"/>
<path d="M9.83101 6.324C10.1345 5.96949 10.6544 5.89621 11.044 6.153C11.2254 6.26546 11.3498 6.4503 11.3858 6.66066C11.4217 6.87101 11.3657 7.08669 11.232 7.253L8.54501 10.6C8.4003 10.7732 8.19141 10.8802 7.96627 10.8964C7.74112 10.9127 7.51906 10.8367 7.35101 10.686L5.25401 8.771C5.09262 8.63028 5 8.42662 5 8.2125C5 7.99838 5.09262 7.79472 5.25401 7.654C5.60516 7.34534 6.13087 7.34534 6.48201 7.654L7.80001 8.853L9.83101 6.324Z" fill="white"/>
<defs>
<linearGradient id="paint0_linear_1_1425" x1="0" y1="0" x2="0" y2="16" gradientUnits="userSpaceOnUse">
<stop stop-color="#8DF3ED"/>
<stop offset="1" stop-color="#34D9D1"/>
</linearGradient>
</defs>
</svg>
