<svg width="18" height="16" viewBox="0 0 18 16" fill="none" xmlns="http://www.w3.org/2000/svg">
<path fill-rule="evenodd" clip-rule="evenodd" d="M9.859 15.271C8.73376 15.5846 7.56762 15.7265 6.4 15.692C3.665 15.692 0 15.235 0 11.285C0.0379192 8.95101 1.23548 6.78911 3.194 5.519C3.05322 5.3504 2.9745 5.13863 2.971 4.919C2.971 4.37832 3.40931 3.94 3.95 3.94H8.847C9.10717 3.93974 9.35674 4.04304 9.54061 4.2271C9.72448 4.41116 9.82753 4.66084 9.827 4.921C9.8233 5.14076 9.74422 5.35258 9.603 5.521C9.9323 5.73305 10.2431 5.97257 10.532 6.237C10.1241 6.5315 9.86761 6.99155 9.83152 7.49335C9.79542 7.99515 9.98345 8.48716 10.345 8.837C10.0126 9.15743 9.82476 9.59928 9.82476 10.061C9.82476 10.5227 10.0126 10.9646 10.345 11.285C10.0126 11.6054 9.82476 12.0473 9.82476 12.509C9.82476 12.9707 10.0126 13.4126 10.345 13.733C9.93107 14.1291 9.74782 14.709 9.859 15.271ZM4.94507 9.72037C5.06495 10.4261 5.67721 10.9418 6.393 10.94C6.66362 10.94 6.883 11.1594 6.883 11.43C6.883 11.7006 6.66362 11.92 6.393 11.92C6.12238 11.92 5.903 11.7006 5.903 11.43C5.91115 11.2498 5.81967 11.0798 5.66486 10.9873C5.51006 10.8947 5.31694 10.8947 5.16214 10.9873C5.00733 11.0798 4.91585 11.2498 4.924 11.43C4.92606 12.0525 5.32099 12.6058 5.909 12.81V13.245C5.90086 13.4252 5.99233 13.5952 6.14714 13.6877C6.30194 13.7803 6.49506 13.7803 6.64986 13.6877C6.80467 13.5952 6.89615 13.4252 6.888 13.245V12.807C7.55901 12.5664 7.95974 11.8781 7.83759 11.1758C7.71544 10.4735 7.10583 9.96087 6.393 9.961C6.12238 9.961 5.903 9.74162 5.903 9.471C5.903 9.20038 6.12238 8.981 6.393 8.981C6.66362 8.981 6.883 9.20038 6.883 9.471C6.89483 9.73275 7.11049 9.93887 7.3725 9.93887C7.63451 9.93887 7.85017 9.73275 7.862 9.471C7.86003 8.85259 7.47045 8.30183 6.888 8.094V7.369C6.89615 7.18884 6.80467 7.01877 6.64986 6.92626C6.49506 6.83375 6.30194 6.83375 6.14714 6.92626C5.99233 7.01877 5.90086 7.18884 5.909 7.369V8.091C5.23279 8.32571 4.82518 9.0147 4.94507 9.72037Z" fill="#EFF0F6"/>
<path d="M16.6401 14.223H12.2001C11.9312 14.2131 11.6784 14.3509 11.541 14.5822C11.4036 14.8135 11.4036 15.1015 11.541 15.3328C11.6784 15.5641 11.9312 15.7019 12.2001 15.692H16.6401C17.0352 15.6774 17.348 15.3529 17.348 14.9575C17.348 14.5621 17.0352 14.2376 16.6401 14.223Z" fill="#EFF0F6"/>
<path d="M16.6401 11.775H12.2001C11.9312 11.7651 11.6784 11.9029 11.541 12.1342C11.4036 12.3655 11.4036 12.6535 11.541 12.8848C11.6784 13.1161 11.9312 13.2539 12.2001 13.244H16.6401C17.0352 13.2294 17.348 12.9049 17.348 12.5095C17.348 12.1141 17.0352 11.7896 16.6401 11.775Z" fill="#EFF0F6"/>
<path d="M16.6401 9.65501H12.2001C11.9312 9.64509 11.6784 9.78287 11.541 10.0142C11.4036 10.2456 11.4036 10.5335 11.541 10.7648C11.6784 10.9962 11.9312 11.1339 12.2001 11.124H16.6401C17.0352 11.1094 17.348 10.7849 17.348 10.3895C17.348 9.99413 17.0352 9.66959 16.6401 9.65501Z" fill="#EFF0F6"/>
<path d="M16.6398 7.37003H12.1998C11.7942 7.37003 11.4653 7.69887 11.4653 8.10453C11.4653 8.51018 11.7942 8.83903 12.1998 8.83903H16.6398C17.0455 8.83903 17.3743 8.51018 17.3743 8.10453C17.3743 7.69887 17.0455 7.37003 16.6398 7.37003V7.37003Z" fill="#EFF0F6"/>
<path d="M7.97599 0.979014C7.7697 0.392529 7.2157 0.00012207 6.59399 0.00012207C5.97228 0.00012207 5.41828 0.392529 5.21199 0.979014H3.65899C3.50145 0.978836 3.35348 1.05457 3.26148 1.18245C3.16948 1.31034 3.14473 1.47471 3.19499 1.62401L3.95899 3.98301H9.23499L9.99899 1.62401C10.0492 1.47471 10.0245 1.31034 9.9325 1.18245C9.8405 1.05457 9.69253 0.978836 9.53499 0.979014H7.97599Z" fill="#EFF0F6"/>
</svg>
