<svg width="50" height="50" viewBox="0 0 50 50" fill="none" xmlns="http://www.w3.org/2000/svg">
<circle cx="25" cy="25" r="25" fill="url(#paint0_linear_2_4707)"/>
<path fill-rule="evenodd" clip-rule="evenodd" d="M13.914 29.5921C15.7713 34.0761 20.1466 36.9998 25 37C28.1843 37.0085 31.2396 35.7428 33.485 33.485C36.5577 30.4619 37.7729 26.0231 36.6686 21.8565C35.5643 17.6899 32.3101 14.4357 28.1435 13.3314C23.9768 12.2271 19.538 13.4423 16.515 16.515C13.0833 19.947 12.0567 25.1082 13.914 29.5921ZM20.35 19.193C20.4296 19.1136 20.5376 19.0693 20.65 19.07C20.7628 19.069 20.8712 19.1133 20.951 19.193L25.006 23.193L29.061 19.193C29.2273 19.0288 29.4947 19.0288 29.661 19.193L30.816 20.362C30.9786 20.5289 30.9786 20.795 30.816 20.962L26.75 24.98L30.8 29.045C30.879 29.1248 30.9233 29.2327 30.923 29.345C30.9245 29.4576 30.8801 29.5659 30.8 29.645L29.645 30.807C29.5658 30.887 29.4575 30.9314 29.345 30.93C29.2329 30.929 29.1255 30.8849 29.045 30.807L25 26.757L20.957 30.813C20.8781 30.8935 20.7697 30.938 20.657 30.936C20.5448 30.9355 20.4372 30.8914 20.357 30.813L19.2 29.65C19.0358 29.4837 19.0358 29.2163 19.2 29.05L23.259 24.974L19.193 20.956C19.0299 20.7892 19.0299 20.5227 19.193 20.356L20.35 19.193Z" fill="white"/>
<defs>
<linearGradient id="paint0_linear_2_4707" x1="0" y1="0" x2="0" y2="50" gradientUnits="userSpaceOnUse">
<stop stop-color="#FAC47F"/>
<stop offset="1" stop-color="#F8A946"/>
</linearGradient>
</defs>
</svg>
