<svg width="20" height="20" viewBox="0 0 20 20" fill="none" xmlns="http://www.w3.org/2000/svg">
<path fill-rule="evenodd" clip-rule="evenodd" d="M10.0001 3.00699C11.1129 1.7094 12.7328 0.957034 14.4421 0.94399C15.8867 0.929937 17.2761 1.49785 18.2972 2.51973C19.3184 3.54161 19.8853 4.93145 19.8701 6.37599C19.8701 10.1039 16.5196 13.142 11.4436 17.7447L11.4311 17.756L10.0001 19.056L8.56915 17.763L8.52992 17.7273C3.46889 13.1283 0.130147 10.0944 0.130147 6.37299C0.115838 4.92879 0.683224 3.53957 1.70448 2.51832C2.72573 1.49707 4.11495 0.92968 5.55915 0.94399C7.26811 0.957323 8.88765 1.70966 10.0001 3.00699ZM9.99915 16.392L10.0991 16.292C14.7971 12.038 17.8961 9.22499 17.8991 6.36999C17.9219 5.44689 17.5652 4.55483 16.9122 3.9019C16.2593 3.24897 15.3673 2.89226 14.4441 2.91499C12.9128 2.91989 11.5313 3.83555 10.9301 5.24399H9.08215C8.4736 3.83811 7.09107 2.92532 5.55915 2.91799C4.63519 2.89387 3.74181 3.24996 3.08778 3.90305C2.43374 4.55613 2.07636 5.449 2.09915 6.37299C2.09915 9.22499 5.19915 12.038 9.89915 16.292L9.99915 16.392Z" fill="white"/>
</svg>
