<svg width="19" height="19" viewBox="0 0 19 19" fill="none" xmlns="http://www.w3.org/2000/svg">
<path fill-rule="evenodd" clip-rule="evenodd" d="M16.0141 9.624C16.0231 9.92741 16.0077 10.2311 15.9681 10.532L18.0111 12.03C18.1562 12.1909 18.1927 12.4223 18.1041 12.62L16.2471 15.751C16.1363 15.9464 15.8949 16.0252 15.6901 15.933L13.3691 15.025C12.8801 15.3878 12.3505 15.6925 11.7911 15.933L11.4191 18.333C11.3597 18.5419 11.1722 18.6886 10.9551 18.696H7.23813C7.01474 18.7071 6.81709 18.5525 6.77413 18.333L6.40313 15.933C5.83856 15.7029 5.30774 15.3975 4.82513 15.025L2.51313 15.939C2.30795 16.0232 2.072 15.9461 1.95613 15.757L0.0991279 12.626C0.0317907 12.5359 0.00368925 12.4225 0.0211999 12.3114C0.0387105 12.2003 0.100348 12.101 0.192128 12.036L2.14113 10.536C2.14113 10.377 2.12963 10.2295 2.11813 10.082C2.10663 9.9345 2.09513 9.787 2.09513 9.628C2.09513 9.469 2.10663 9.3215 2.11813 9.174C2.12963 9.0265 2.14113 8.879 2.14113 8.72L0.141128 7.22C-0.00374268 7.05899 -0.0401906 6.82777 0.0481279 6.63L1.90513 3.499C2.01596 3.30362 2.25732 3.22476 2.46213 3.317L4.78313 4.225C5.27218 3.86223 5.80173 3.55752 6.36113 3.317L6.73213 0.917001C6.79152 0.708056 6.97903 0.561363 7.19613 0.554001H10.9091C11.1262 0.561363 11.3137 0.708056 11.3731 0.917001L11.6981 3.317C12.2627 3.54707 12.7935 3.85251 13.2761 4.225L15.5971 3.317C15.8023 3.2328 16.0383 3.3099 16.1541 3.499L18.0101 6.626C18.0775 6.71607 18.1056 6.82953 18.0881 6.94061C18.0705 7.0517 18.0089 7.15101 17.9171 7.216L15.9681 8.716C15.9681 8.875 15.9796 9.0225 15.9911 9.17C16.0026 9.3175 16.0141 9.465 16.0141 9.624ZM5.94749 9.57675C5.92109 11.3218 7.30731 12.7614 9.05213 12.801C9.90569 12.816 10.7297 12.4885 11.3402 11.8918C11.9506 11.295 12.2967 10.4787 12.3011 9.625C12.3012 7.87973 10.8935 6.46116 9.14825 6.44791C7.40304 6.43466 5.9739 7.83169 5.94749 9.57675Z" fill="#EFF0F6"/>
</svg>
