<svg width="22" height="24" viewBox="0 0 22 24" fill="none" xmlns="http://www.w3.org/2000/svg">
<path fill-rule="evenodd" clip-rule="evenodd" d="M11.0001 0.803009C10.5012 0.813768 10.0158 0.967903 9.60212 1.24701C9.20305 1.513 8.81943 1.80147 8.45312 2.11101L8.40812 2.14701L2.77312 6.70301L2.60712 6.83201C1.75751 7.40064 1.04609 8.15238 0.525115 9.03201C0.169573 9.98963 0.0328977 11.0147 0.125115 12.032V12.241V17.551C0.125115 18.442 0.125115 19.186 0.177115 19.789C0.210816 20.409 0.381581 21.0139 0.677115 21.56C1.03918 22.1872 1.55996 22.7079 2.18712 23.07C2.73323 23.3655 3.33808 23.5363 3.95812 23.57C4.56412 23.625 5.30812 23.625 6.19912 23.625H6.53312C6.85512 23.625 7.15012 23.625 7.39812 23.608C7.69191 23.5946 7.98147 23.5328 8.25512 23.425C8.89512 23.1566 9.4028 22.6457 9.66712 22.004C9.77486 21.7304 9.83669 21.4408 9.85012 21.147C9.86712 20.899 9.86712 20.603 9.86712 20.2821V20.282V20.249C9.86712 19.884 9.86812 19.667 9.87912 19.505C9.88128 19.4532 9.88764 19.4017 9.89812 19.351C9.93612 19.2608 10.0079 19.189 10.0981 19.151C10.1489 19.1405 10.2004 19.1342 10.2521 19.132C10.4141 19.12 10.6311 19.12 10.9961 19.12C11.3611 19.12 11.5781 19.121 11.7401 19.132C11.7919 19.1342 11.8434 19.1405 11.8941 19.151C11.9843 19.189 12.0561 19.2608 12.0941 19.351C12.1046 19.4017 12.1109 19.4532 12.1131 19.505C12.1251 19.667 12.1251 19.884 12.1251 20.249V20.282C12.1251 20.603 12.1251 20.903 12.1421 21.146C12.1555 21.4398 12.2174 21.7294 12.3251 22.003C12.5883 22.6466 13.0962 23.1594 13.7371 23.429C14.0108 23.5368 14.3003 23.5986 14.5941 23.612C14.8421 23.629 15.1381 23.629 15.4591 23.629H15.7931C16.6851 23.629 17.4291 23.629 18.0341 23.574C18.6542 23.5403 19.259 23.3695 19.8051 23.074C20.4323 22.7119 20.9531 22.1912 21.3151 21.564C21.6106 21.0179 21.7814 20.413 21.8151 19.793C21.8701 19.187 21.8701 18.443 21.8701 17.552V12.243V12.034C21.9623 11.0167 21.8257 9.99163 21.4701 9.03401C20.9491 8.15438 20.2377 7.40264 19.3881 6.83401L19.2251 6.70301L13.5931 2.14601L13.5481 2.11001C13.1821 1.80084 12.7988 1.51271 12.4001 1.24701C11.9858 0.967537 11.4998 0.813386 11.0001 0.803009ZM9.82312 3.89801C10.1335 3.63379 10.4576 3.38611 10.7941 3.15601C10.853 3.11599 10.916 3.08246 10.9821 3.05601L11.0021 3.05001L11.0221 3.05601C11.0872 3.08266 11.1492 3.11618 11.2071 3.15601C11.5436 3.38611 11.8677 3.63379 12.1781 3.89801L17.8131 8.45201C18.9931 9.40301 19.2851 9.67401 19.4421 10.003C19.6539 10.7289 19.7192 11.4897 19.6341 12.241V17.503C19.6341 18.458 19.6331 19.099 19.5881 19.591C19.5821 19.8856 19.5118 20.1754 19.3821 20.44C19.2176 20.7249 18.981 20.9615 18.6961 21.126C18.4315 21.2557 18.1417 21.326 17.8471 21.332C17.3591 21.378 16.7141 21.378 15.7591 21.378H15.5091C15.1441 21.378 14.9271 21.377 14.7651 21.366C14.7134 21.3638 14.6619 21.3575 14.6111 21.347C14.5209 21.309 14.4491 21.2372 14.4111 21.147C14.4006 21.0963 14.3943 21.0448 14.3921 20.993C14.3801 20.831 14.3801 20.614 14.3801 20.249V20.216C14.3801 19.894 14.3801 19.599 14.3631 19.351C14.3497 19.0572 14.2879 18.7677 14.1801 18.494C13.9137 17.8506 13.4025 17.3394 12.7591 17.073C12.4855 16.9653 12.1959 16.9034 11.9021 16.89C11.6541 16.873 11.3581 16.873 11.0371 16.873H10.9721C10.6501 16.873 10.3551 16.873 10.1071 16.89C9.81332 16.9034 9.52376 16.9653 9.25012 17.073C8.60671 17.3394 8.09554 17.8506 7.82912 18.494C7.72137 18.7677 7.65954 19.0572 7.64612 19.351C7.62912 19.599 7.62912 19.895 7.62912 20.216V20.216V20.249C7.62912 20.614 7.62812 20.831 7.61712 20.993C7.61495 21.0448 7.60859 21.0963 7.59812 21.147C7.56011 21.2372 7.48833 21.309 7.39812 21.347C7.34738 21.3575 7.29588 21.3638 7.24412 21.366C7.08214 21.378 6.86518 21.378 6.50029 21.378H6.50012H6.25012C5.29512 21.378 4.65412 21.377 4.16212 21.332C3.86749 21.326 3.57773 21.2557 3.31312 21.126C3.02823 20.9615 2.79164 20.7249 2.62712 20.44C2.49743 20.1754 2.42713 19.8856 2.42112 19.591C2.37512 19.103 2.37512 18.458 2.37512 17.503V12.245C2.28658 11.4929 2.34879 10.7308 2.55812 10.003C2.71612 9.67001 3.00812 9.40301 4.18712 8.44901L9.82312 3.89801Z" fill="url(#paint0_linear_2_2588)"/>
<defs>
<linearGradient id="paint0_linear_2_2588" x1="0.097168" y1="0.803009" x2="0.097168" y2="23.629" gradientUnits="userSpaceOnUse">
<stop stop-color="#8DF3ED"/>
<stop offset="1" stop-color="#34D9D1"/>
</linearGradient>
</defs>
</svg>
