<svg width="18" height="18" viewBox="0 0 18 18" fill="none" xmlns="http://www.w3.org/2000/svg">
<path fill-rule="evenodd" clip-rule="evenodd" d="M8.97706 7.39799H15.5321L15.5301 7.39499C16.5657 7.39609 17.405 8.23536 17.4061 9.27099V15.826C17.405 16.8616 16.5657 17.7009 15.5301 17.702H8.97506C8.04627 17.7004 7.25797 17.0205 7.12006 16.102L5.40106 14.874C5.26704 14.7783 5.1875 14.6237 5.1875 14.459C5.1875 14.2943 5.26704 14.1397 5.40106 14.044L7.10106 12.831V9.27399C7.10217 8.23836 7.94143 7.39909 8.97706 7.39799ZM13.0921 14.422C13.1191 14.526 13.2121 14.564 13.3321 14.564C13.5231 14.564 13.7801 14.438 13.7801 14.269C13.7785 14.2503 13.7749 14.2318 13.7691 14.214L12.7151 10.778C12.6661 10.614 12.4641 10.537 12.2561 10.537C12.0692 10.5131 11.8877 10.6097 11.8031 10.778L10.7491 14.214C10.7438 14.232 10.7401 14.2504 10.7381 14.269C10.7381 14.444 10.9951 14.564 11.1861 14.564C11.3061 14.564 11.3991 14.522 11.4261 14.422L11.6331 13.695H12.8841L13.0921 14.422Z" fill="#EFF0F6"/>
<path d="M11.776 13.138H12.727L12.252 11.461L11.776 13.138Z" fill="#EFF0F6"/>
<path d="M6.081 9.27299C6.08061 8.61401 6.30615 7.97481 6.72 7.46199C6.15971 7.46263 5.61274 7.29124 5.153 6.97099C4.69326 7.29124 4.14629 7.46263 3.586 7.46199C3.4338 7.45301 3.31496 7.32696 3.31496 7.17449C3.31496 7.02202 3.4338 6.89597 3.586 6.88699C3.97838 6.88717 4.36344 6.78071 4.7 6.57899C4.29538 6.14311 4.04339 5.58754 3.982 4.99599H3.582C3.47524 5.00229 3.37378 4.94891 3.3185 4.85736C3.26322 4.76581 3.26322 4.65117 3.3185 4.55962C3.37378 4.46807 3.47524 4.41469 3.582 4.42099H4.865V3.72099C4.8587 3.61423 4.91208 3.51277 5.00363 3.45749C5.09518 3.40221 5.20982 3.40221 5.30137 3.45749C5.39292 3.51277 5.4463 3.61423 5.44 3.72099V4.42099H6.72C6.82676 4.41469 6.92822 4.46807 6.9835 4.55962C7.03878 4.65117 7.03878 4.76581 6.9835 4.85736C6.92822 4.94891 6.82676 5.00229 6.72 4.99599H6.32C6.25805 5.58778 6.00534 6.14338 5.6 6.57899C5.93679 6.78102 6.32226 6.8875 6.715 6.88699C6.86601 6.88662 6.99148 7.00334 7.002 7.15399C7.53663 6.65431 8.24122 6.37655 8.973 6.37699H10.302V5.16499L12 3.95199C12.134 3.85626 12.2136 3.70169 12.2136 3.53699C12.2136 3.37229 12.134 3.21772 12 3.12199L10.286 1.89599C10.148 0.977117 9.35917 0.297064 8.43 0.29599H1.875C0.840151 0.297642 0.0016518 1.13614 0 2.17099V8.72699C0.00110232 9.76262 0.840371 10.6019 1.876 10.603H6.081V9.27299Z" fill="#EFF0F6"/>
<path d="M5.15301 6.21999C5.47556 5.88629 5.68269 5.45802 5.74401 4.99799H4.56201C4.62347 5.45798 4.83058 5.88621 5.15301 6.21999Z" fill="#EFF0F6"/>
</svg>
