<svg width="16" height="16" viewBox="0 0 16 16" fill="none" xmlns="http://www.w3.org/2000/svg">
<path d="M9.51294 6.32698C9.3281 6.14118 9.12317 5.9765 8.90194 5.83598C7.46286 4.91448 5.57639 5.11878 4.36794 6.32698L1.06094 9.63498C-0.329985 11.06 -0.316739 13.3385 1.09066 14.7473C2.49807 16.1561 4.77655 16.1715 6.20294 14.782L8.93094 12.054C9.00543 11.9796 9.02773 11.8677 8.98744 11.7704C8.94714 11.6732 8.8522 11.6099 8.74694 11.61H8.64694C8.07692 11.6121 7.51199 11.5027 6.98394 11.288C6.88676 11.2481 6.77509 11.2705 6.70094 11.345L4.73894 13.309C4.1276 13.9052 3.1505 13.8991 2.54668 13.2952C1.94285 12.6914 1.93673 11.7143 2.53294 11.103L5.85094 7.78798C6.45922 7.18232 7.44266 7.18232 8.05094 7.78798C8.46104 8.17404 9.10084 8.17404 9.51094 7.78798C9.70538 7.59481 9.81472 7.33206 9.81472 7.05798C9.81472 6.7839 9.70538 6.52115 9.51094 6.32798L9.51294 6.32698Z" fill="#EFF0F6"/>
<path d="M14.5247 1.31498C13.8425 0.632696 12.9171 0.24939 11.9522 0.24939C10.9874 0.24939 10.062 0.632696 9.37974 1.31498L6.65374 4.03798C6.57949 4.11347 6.5582 4.22634 6.59986 4.32369C6.64152 4.42104 6.73786 4.48358 6.84374 4.48198H6.94374C7.51297 4.48104 8.07689 4.59144 8.60374 4.80698C8.70093 4.84691 8.81259 4.82442 8.88674 4.74998L10.8437 2.79598C11.2361 2.39364 11.8146 2.23346 12.358 2.37664C12.9015 2.51983 13.3259 2.94425 13.4691 3.4877C13.6123 4.03114 13.4521 4.6096 13.0497 5.00198L10.6127 7.43698L10.5917 7.45998L9.73974 8.30698C9.13146 8.91264 8.14802 8.91264 7.53974 8.30698C7.12964 7.92092 6.48984 7.92092 6.07974 8.30698C5.67524 8.71155 5.67524 9.36741 6.07974 9.77198C6.38034 10.0741 6.73212 10.3206 7.11874 10.5C7.17374 10.526 7.22774 10.547 7.28274 10.57C7.33774 10.593 7.39474 10.612 7.44874 10.632C7.50274 10.652 7.56074 10.671 7.61474 10.687L7.76774 10.729C7.86774 10.755 7.97574 10.776 8.08174 10.794C8.21 10.8129 8.33919 10.8249 8.46874 10.83H8.66874L8.82474 10.812C8.88174 10.812 8.94174 10.796 9.00974 10.796H9.09774L9.27674 10.77L9.35974 10.754L9.51074 10.723H9.53974C10.1779 10.5627 10.7606 10.2323 11.2257 9.76698L14.5337 6.45898C15.9514 5.03587 15.9474 2.73312 14.5247 1.31498Z" fill="#EFF0F6"/>
</svg>
