<svg width="17" height="20" viewBox="0 0 17 20" fill="none" xmlns="http://www.w3.org/2000/svg">
<path fill-rule="evenodd" clip-rule="evenodd" d="M14.121 8.499H15.021C15.4984 8.499 15.9562 8.68865 16.2938 9.02621C16.6314 9.36378 16.821 9.82161 16.821 10.299V17.509C16.821 18.5031 16.0151 19.309 15.021 19.309H1.8C0.805887 19.309 0 18.5031 0 17.509V10.299C0 9.30489 0.805887 8.499 1.8 8.499H2.705V5.799C2.705 3.75973 3.79294 1.87537 5.559 0.85573C7.32506 -0.163906 9.50094 -0.163906 11.267 0.85573C13.0331 1.87537 14.121 3.75973 14.121 5.799V8.499ZM5.708 8.499H11.115L11.116 5.799C11.116 4.30563 9.90538 3.095 8.412 3.095C6.91862 3.095 5.708 4.30563 5.708 5.799V8.499Z" fill="#EFF0F6"/>
</svg>
