<svg width="30" height="21" viewBox="0 0 30 21" fill="none" xmlns="http://www.w3.org/2000/svg">
<path d="M3.35605e-07 1.49201C3.35605e-07 0.668005 0.667992 1.38014e-05 1.492 1.38014e-05H13.507C14.0494 -0.014028 14.5568 0.26733 14.8321 0.734887C15.1075 1.20244 15.1075 1.78258 14.8321 2.25014C14.5568 2.7177 14.0494 2.99906 13.507 2.98501H1.492C1.09612 2.98501 0.716476 2.82768 0.436643 2.54766C0.15681 2.26764 -0.000264997 1.88789 3.35605e-07 1.49201Z" fill="#363D4E"/>
<path d="M3.35605e-07 10.5C3.35605e-07 9.67602 0.667992 9.00803 1.492 9.00803H28.507C29.3162 9.02897 29.9614 9.69101 29.9614 10.5005C29.9614 11.31 29.3162 11.9721 28.507 11.993H1.492C1.09612 11.993 0.716476 11.8357 0.436643 11.5557C0.15681 11.2757 -0.000264997 10.8959 3.35605e-07 10.5Z" fill="#363D4E"/>
<path d="M1.49201 18.015C0.667727 18.015 -0.000488281 18.6832 -0.000488281 19.5075C-0.000488281 20.3318 0.667727 21 1.49201 21H19.507C20.3163 20.9791 20.9614 20.317 20.9614 19.5075C20.9614 18.698 20.3163 18.036 19.507 18.015L1.49201 18.015Z" fill="#363D4E"/>
</svg>
