<svg width="50" height="50" viewBox="0 0 50 50" fill="none" xmlns="http://www.w3.org/2000/svg">
<circle cx="25" cy="25" r="25" fill="url(#paint0_linear_2_4632)"/>
<path fill-rule="evenodd" clip-rule="evenodd" d="M13.914 29.5922C15.7713 34.0761 20.1466 36.9998 25 37C28.1843 37.0085 31.2396 35.7428 33.485 33.4851C36.5577 30.462 37.7729 26.0232 36.6686 21.8566C35.5643 17.69 32.3101 14.4358 28.1435 13.3315C23.9768 12.2271 19.538 13.4424 16.515 16.515C13.0833 19.947 12.0567 25.1082 13.914 29.5922ZM18.281 23.904C18.4222 23.7649 18.6127 23.6873 18.811 23.688C19.0086 23.6864 19.199 23.7626 19.341 23.9001L22.625 27.1341L29.659 20.216C29.9542 19.9283 30.4248 19.9283 30.72 20.216L31.78 21.257C31.9202 21.3944 31.9992 21.5823 31.9992 21.7786C31.9992 21.9748 31.9202 22.1627 31.78 22.3L23.155 30.784C22.8598 31.0718 22.3892 31.0718 22.094 30.784L17.22 25.99C17.0793 25.853 17 25.6649 17 25.4685C17 25.2722 17.0793 25.0841 17.22 24.9471L18.281 23.904Z" fill="white"/>
<defs>
<linearGradient id="paint0_linear_2_4632" x1="0" y1="0" x2="0" y2="50" gradientUnits="userSpaceOnUse">
<stop stop-color="#FFD5CF"/>
<stop offset="1" stop-color="#FE8270"/>
</linearGradient>
</defs>
</svg>
