<svg width="18" height="17" viewBox="0 0 18 17" fill="none" xmlns="http://www.w3.org/2000/svg">
<path fill-rule="evenodd" clip-rule="evenodd" d="M17.9 6.627V14.809C17.9 15.8595 17.0505 16.7121 16 16.716H1.907C1.40123 16.716 0.916179 16.5151 0.558547 16.1574C0.200916 15.7998 0 15.3148 0 14.809V6.627C0 5.57379 0.853793 4.72 1.907 4.72H3.32V2.164C3.3211 1.47134 3.88234 0.910098 4.575 0.908997H13.158C13.8507 0.910098 14.4119 1.47134 14.413 2.164V4.72H16C17.0505 4.72385 17.9 5.57652 17.9 6.627ZM5.128 3.165C5.128 2.91371 5.33171 2.71 5.583 2.71H11.976C12.2273 2.71 12.431 2.91371 12.431 3.165C12.431 3.41629 12.2273 3.62 11.976 3.62H5.583C5.33171 3.62 5.128 3.41629 5.128 3.165ZM10.811 10.828L16.525 14.546L16.531 14.549C16.6673 14.6383 16.7456 14.7936 16.7364 14.9563C16.7272 15.1189 16.6319 15.2644 16.4864 15.3378C16.3409 15.4111 16.1673 15.4013 16.031 15.312L10.013 11.395L9.713 11.608C9.25983 11.9258 8.65617 11.9258 8.203 11.608L7.947 11.428L7.931 11.441L1.9 15.366C1.7637 15.4553 1.59011 15.4651 1.44461 15.3918C1.29911 15.3184 1.20381 15.1729 1.19461 15.0103C1.18541 14.8476 1.2637 14.6923 1.4 14.603L7.142 10.865L1.385 6.822C1.25192 6.72857 1.17879 6.57125 1.19316 6.40928C1.20752 6.24732 1.30721 6.10532 1.45466 6.03678C1.6021 5.96824 1.77492 5.98357 1.908 6.077L4.231 7.704V6.065V2.165C4.231 1.97446 4.38546 1.82 4.576 1.82H13.155C13.3455 1.82 13.5 1.97446 13.5 2.165V7.815L16.014 6.045C16.2194 5.90002 16.5035 5.94905 16.6485 6.1545C16.7935 6.35995 16.7444 6.64402 16.539 6.789L10.811 10.828ZM5.583 5.655H11.976C12.2273 5.655 12.431 5.45129 12.431 5.2C12.431 4.94871 12.2273 4.745 11.976 4.745H5.583C5.33171 4.745 5.128 4.94871 5.128 5.2C5.128 5.45129 5.33171 5.655 5.583 5.655ZM11.976 7.691H5.583C5.33171 7.691 5.128 7.48729 5.128 7.236C5.128 6.98471 5.33171 6.781 5.583 6.781H11.976C12.2273 6.781 12.431 6.98471 12.431 7.236C12.431 7.48729 12.2273 7.691 11.976 7.691Z" fill="#EFF0F6"/>
</svg>
