<svg width="50" height="50" viewBox="0 0 50 50" fill="none" xmlns="http://www.w3.org/2000/svg">
<circle cx="25" cy="25" r="25" fill="url(#paint0_linear_2014_4)"/>
<path fill-rule="evenodd" clip-rule="evenodd" d="M34 36H17C15.3563 36.0105 14.0143 34.6886 14 33.045V18C14 15.7909 15.7909 14 18 14H29.8C32.0091 14 33.8 15.7909 33.8 18V18.38C34.3755 18.4019 34.9194 18.6485 35.315 19.067C35.7308 19.4593 35.9767 19.9988 36 20.57V34.03C35.9906 35.1258 35.0958 36.0072 34 36ZM32 25.05C30.9016 25.055 30.0147 25.9486 30.018 27.047C30.0213 28.1454 30.9136 29.0336 32.012 29.032C33.1104 29.0303 34 28.1394 34 27.041C33.995 25.9399 33.1011 25.05 32 25.05ZM16.2 17.69C16.2 16.8616 16.8716 16.19 17.7 16.19H30.1C30.9284 16.19 31.6 16.8616 31.6 17.69V18.38H16.2V17.69Z" fill="white"/>
<defs>
<linearGradient id="paint0_linear_2014_4" x1="0" y1="0" x2="0" y2="50" gradientUnits="userSpaceOnUse">
<stop stop-color="#FF9BD0"/>
<stop offset="1" stop-color="#FF73AA"/>
</linearGradient>
</defs>
</svg>
