<svg width="14" height="14" viewBox="0 0 14 14" fill="none" xmlns="http://www.w3.org/2000/svg">
<path fill-rule="evenodd" clip-rule="evenodd" d="M12.353 5.14406L13.613 3.88406C13.8599 3.63807 13.9986 3.30386 13.9984 2.95535C13.9982 2.60684 13.8591 2.27277 13.612 2.02706L11.969 0.384055C11.4558 -0.127693 10.6252 -0.127693 10.112 0.384055L8.852 1.64406C8.79014 1.70561 8.75536 1.78928 8.75536 1.87656C8.75536 1.96383 8.79014 2.0475 8.852 2.10906L11.888 5.14406C11.9496 5.20592 12.0332 5.24069 12.1205 5.24069C12.2078 5.24069 12.2914 5.20592 12.353 5.14406ZM0.589999 9.90705L7.77 2.72706H7.769C7.89848 2.59841 8.10752 2.59841 8.237 2.72706L11.272 5.76206C11.3339 5.82361 11.3686 5.90729 11.3686 5.99456C11.3686 6.08183 11.3339 6.1655 11.272 6.22706L4.092 13.4071L0.769999 13.9891C0.559297 14.0258 0.343916 13.9576 0.192684 13.8064C0.0414513 13.6551 -0.0267033 13.4398 0.00999932 13.2291L0.589999 9.90705ZM3.392 9.29506C3.31988 9.22352 3.27931 9.12614 3.27931 9.02456C3.27931 8.92297 3.31988 8.82559 3.392 8.75406L7.598 4.54006C7.74931 4.40283 7.98168 4.40849 8.12612 4.55293C8.27056 4.69737 8.27623 4.92975 8.139 5.08106L3.934 9.29506C3.86246 9.36718 3.76508 9.40774 3.6635 9.40774C3.56192 9.40774 3.46454 9.36718 3.393 9.29506H3.392ZM3.718 11.5951H2.405L2.406 10.2811H1.413L1.104 12.0451L1.954 12.8951L3.718 12.5881V11.5951Z" fill="#B4C2CD"/>
</svg>
