<svg width="49" height="50" viewBox="0 0 49 50" fill="none" xmlns="http://www.w3.org/2000/svg">
<path d="M19.881 1.074C22.5142 -0.358274 25.6938 -0.358274 28.327 1.074L43.593 9.374C46.4374 10.9212 48.2081 13.9 48.208 17.138V32.858C48.2081 36.096 46.4374 39.0748 43.593 40.622L28.327 48.922C25.6938 50.3543 22.5142 50.3543 19.881 48.922L4.615 40.622C1.77056 39.0748 -7.5054e-05 36.096 0 32.858V17.142C-7.5054e-05 13.904 1.77056 10.9252 4.615 9.378L19.881 1.074Z" fill="url(#paint0_linear_2_2461)"/>
<path fill-rule="evenodd" clip-rule="evenodd" d="M12.9551 12.346C29.9551 12.974 36.5141 23.181 33.2231 32.288C32.5605 34.4927 31.1416 36.3932 29.2161 37.655C29.3001 37.289 29.3881 36.924 29.4551 36.548C30.6871 29.448 28.3551 20.893 16.9241 16.17C26.0151 21.58 29.6841 31.208 25.4451 37.422C18.2281 38.557 12.9551 32.395 12.9551 25.294V12.346Z" fill="white"/>
<defs>
<linearGradient id="paint0_linear_2_2461" x1="0" y1="-0.000205994" x2="0" y2="49.9962" gradientUnits="userSpaceOnUse">
<stop stop-color="#67F1A9"/>
<stop offset="1" stop-color="#0FCBA1"/>
</linearGradient>
</defs>
</svg>
