<svg width="50" height="50" viewBox="0 0 50 50" fill="none" xmlns="http://www.w3.org/2000/svg">
<circle cx="25" cy="25" r="25" fill="url(#paint0_linear_2_4674)"/>
<path fill-rule="evenodd" clip-rule="evenodd" d="M15 34H35C36.1046 34 37 33.1046 37 32V28C37 27.7239 36.7761 27.5 36.5 27.5C35.1193 27.5 34 26.3807 34 25C34 23.6193 35.1193 22.5 36.5 22.5C36.7761 22.5 37 22.2761 37 22V18C37 16.8954 36.1046 16 35 16H15C13.8954 16 13 16.8954 13 18V22C13 22.1326 13.0527 22.2598 13.1464 22.3536C13.2402 22.4473 13.3674 22.5 13.5 22.5C14.8807 22.5 16 23.6193 16 25C16 26.3807 14.8807 27.5 13.5 27.5C13.2239 27.5 13 27.7239 13 28V32C13 33.1046 13.8954 34 15 34ZM19 30.5C19 30.2239 19.2239 30 19.5 30C19.7761 30 20 30.2239 20 30.5V31.5C20 31.7761 19.7761 32 19.5 32C19.2239 32 19 31.7761 19 31.5V30.5ZM29 25C27.7676 25.1564 26.8821 26.2633 27 27.5C26.8821 28.7367 27.7676 29.8436 29 30C30.2324 29.8436 31.1179 28.7367 31 27.5C31.1179 26.2633 30.2324 25.1564 29 25ZM29.084 20.223C29.1766 20.0838 29.3328 20.0001 29.5 20C29.5985 20.0005 29.6948 20.0297 29.777 20.084C30.0066 20.2371 30.0689 20.5472 29.916 20.777L23.916 29.777C23.8195 29.9315 23.6467 30.0213 23.4649 30.0115C23.283 30.0016 23.1209 29.8937 23.0416 29.7297C22.9624 29.5657 22.9787 29.3716 23.084 29.223L29.084 20.223ZM19.5 26C19.2239 26 19 26.2239 19 26.5V27.5C19 27.7761 19.2239 28 19.5 28C19.7761 28 20 27.7761 20 27.5V26.5C20 26.2239 19.7761 26 19.5 26ZM22 22.5C21.8821 21.2633 22.7676 20.1564 24 20C25.2324 20.1564 26.1179 21.2633 26 22.5C26.1179 23.7367 25.2324 24.8436 24 25C22.7676 24.8436 21.8821 23.7367 22 22.5ZM19.5 22C19.2239 22 19 22.2239 19 22.5V23.5C19 23.7761 19.2239 24 19.5 24C19.7761 24 20 23.7761 20 23.5V22.5C20 22.2239 19.7761 22 19.5 22ZM19 18.374C19 18.0979 19.2239 17.874 19.5 17.874V17.875C19.7761 17.875 20 18.0989 20 18.375V19.5C20 19.7761 19.7761 20 19.5 20C19.2239 20 19 19.7761 19 19.5V18.374Z" fill="white"/>
<mask id="mask0_2_4674" style="mask-type:luminance" maskUnits="userSpaceOnUse" x="13" y="16" width="24" height="18">
<path fill-rule="evenodd" clip-rule="evenodd" d="M35 34H15C13.8954 34 13 33.1046 13 32V28C13 27.7239 13.2239 27.5 13.5 27.5C14.8807 27.5 16 26.3807 16 25C16 23.6193 14.8807 22.5 13.5 22.5C13.3674 22.5 13.2402 22.4473 13.1464 22.3536C13.0527 22.2598 13 22.1326 13 22V18C13 16.8954 13.8954 16 15 16H35C36.1046 16 37 16.8954 37 18V22C37 22.2761 36.7761 22.5 36.5 22.5C35.1193 22.5 34 23.6193 34 25C34 26.3807 35.1193 27.5 36.5 27.5C36.7761 27.5 37 27.7239 37 28V32C37 33.1046 36.1046 34 35 34ZM19.5 30C19.2239 30 19 30.2239 19 30.5V31.5C19 31.7761 19.2239 32 19.5 32C19.7761 32 20 31.7761 20 31.5V30.5C20 30.2239 19.7761 30 19.5 30ZM29 25C27.7676 25.1564 26.8821 26.2633 27 27.5C26.8821 28.7367 27.7676 29.8436 29 30C30.2324 29.8436 31.1179 28.7367 31 27.5C31.1179 26.2633 30.2324 25.1564 29 25ZM29.5 20C29.3328 20.0001 29.1766 20.0838 29.084 20.223L23.084 29.223C22.9787 29.3716 22.9624 29.5657 23.0416 29.7297C23.1209 29.8937 23.283 30.0016 23.4649 30.0115C23.6467 30.0213 23.8195 29.9315 23.916 29.777L29.916 20.777C30.0689 20.5472 30.0066 20.2371 29.777 20.084C29.6948 20.0297 29.5985 20.0005 29.5 20ZM19.5 26C19.2239 26 19 26.2239 19 26.5V27.5C19 27.7761 19.2239 28 19.5 28C19.7761 28 20 27.7761 20 27.5V26.5C20 26.2239 19.7761 26 19.5 26ZM24 20C22.7676 20.1564 21.8821 21.2633 22 22.5C21.8821 23.7367 22.7676 24.8436 24 25C25.2324 24.8436 26.1179 23.7367 26 22.5C26.1179 21.2633 25.2324 20.1564 24 20ZM19.5 22C19.2239 22 19 22.2239 19 22.5V23.5C19 23.7761 19.2239 24 19.5 24C19.7761 24 20 23.7761 20 23.5V22.5C20 22.2239 19.7761 22 19.5 22ZM19.5 17.874C19.2239 17.874 19 18.0979 19 18.374V19.5C19 19.7761 19.2239 20 19.5 20C19.7761 20 20 19.7761 20 19.5V18.375C20 18.0989 19.7761 17.875 19.5 17.875V17.874Z" fill="white"/>
</mask>
<g mask="url(#mask0_2_4674)">
<rect x="10" y="10" width="30" height="30" fill="white"/>
<rect x="10" y="10" width="30" height="30" fill="white"/>
</g>
<defs>
<linearGradient id="paint0_linear_2_4674" x1="0" y1="0" x2="0" y2="50" gradientUnits="userSpaceOnUse">
<stop stop-color="#C1B2FF"/>
<stop offset="1" stop-color="#9B87FF"/>
</linearGradient>
</defs>
</svg>
