<svg width="59" height="61" viewBox="0 0 59 61" fill="none" xmlns="http://www.w3.org/2000/svg">
<path d="M24.419 2.19998C27.5883 0.481191 31.4117 0.481191 34.581 2.19998L52.948 12.165C56.3677 14.017 58.4986 17.593 58.5 21.482V40.34C58.4986 44.229 56.3677 47.8049 52.948 49.657L34.581 59.622C31.4117 61.3408 27.5883 61.3408 24.419 59.622L6.052 49.657C2.63232 47.8049 0.501402 44.229 0.5 40.34V21.482C0.501402 17.593 2.63232 14.017 6.052 12.165L24.419 2.19998Z" fill="url(#paint0_linear_2_2392)"/>
<path d="M31.7282 37.672L40.1902 29.21C40.9003 28.5012 42.0501 28.5012 42.7602 29.21C43.4688 29.9197 43.4688 31.0692 42.7602 31.779L31.7082 42.831C30.7156 43.8231 29.1068 43.8231 28.1142 42.831L17.0622 31.779C16.3536 31.0692 16.3536 29.9197 17.0622 29.21C17.772 28.5014 18.9215 28.5014 19.6312 29.21L28.0932 37.672V17.372C28.0938 16.3687 28.9069 15.5555 29.9102 15.555C30.9135 15.5555 31.7267 16.3687 31.7272 17.372L31.7282 37.672Z" fill="#EDF4FF"/>
<defs>
<linearGradient id="paint0_linear_2_2392" x1="0.5" y1="0.910889" x2="0.5" y2="60.9111" gradientUnits="userSpaceOnUse">
<stop stop-color="#8DF3ED"/>
<stop offset="1" stop-color="#34D9D1"/>
</linearGradient>
</defs>
</svg>
