<svg width="49" height="50" viewBox="0 0 49 50" fill="none" xmlns="http://www.w3.org/2000/svg">
<path d="M19.881 1.074C22.5142 -0.358273 25.6938 -0.358273 28.327 1.074L43.593 9.374C46.4374 10.9212 48.2081 13.9 48.208 17.138V32.858C48.2081 36.096 46.4374 39.0748 43.593 40.622L28.327 48.922C25.6938 50.3543 22.5142 50.3543 19.881 48.922L4.615 40.622C1.77056 39.0748 -7.5054e-05 36.096 0 32.858V17.142C-7.5054e-05 13.904 1.77056 10.9252 4.615 9.378L19.881 1.074Z" fill="url(#paint0_linear_2_3361)"/>
<path d="M30.8102 27.621C29.9701 27.1798 29.034 26.9534 28.0852 26.962C27.5624 26.9699 27.0588 26.7656 26.6894 26.3956C26.32 26.0256 26.1164 25.5217 26.1252 24.999C26.1391 23.9215 27.0087 23.0511 28.0862 23.036C29.0346 23.0444 29.9704 22.8181 30.8102 22.377C32.8978 21.1723 33.819 18.6426 32.9948 16.3776C32.1706 14.1126 29.839 12.7665 27.4654 13.1853C25.0918 13.604 23.3615 15.6667 23.3622 18.077C23.3975 19.0173 23.6652 19.9343 24.1412 20.746C24.416 21.1951 24.496 21.7368 24.3628 22.2463C24.2296 22.7557 23.8947 23.1889 23.4352 23.446C22.4875 23.9728 21.2926 23.6459 20.7452 22.71C20.281 21.8918 19.6218 21.2009 18.8262 20.699C16.7391 19.4933 14.0876 19.9603 12.5381 21.8066C10.9886 23.6528 10.9886 26.3452 12.5381 28.1914C14.0876 30.0377 16.7391 30.5047 18.8262 29.299C19.6228 28.7982 20.2831 28.108 20.7482 27.29C20.9992 26.8269 21.4283 26.4864 21.9364 26.3472C22.4444 26.2081 22.9872 26.2824 23.4392 26.553C24.3673 27.113 24.6804 28.3104 24.1452 29.253C23.6697 30.0645 23.4024 30.9811 23.3672 31.921C23.3674 34.3304 25.0974 36.3918 27.4701 36.8101C29.8429 37.2284 32.1735 35.8829 32.9977 33.6189C33.8218 31.3549 32.9016 28.8259 30.8152 27.621H30.8102Z" fill="white"/>
<defs>
<linearGradient id="paint0_linear_2_3361" x1="0" y1="-0.00020504" x2="0" y2="49.9962" gradientUnits="userSpaceOnUse">
<stop stop-color="#A7D7F2"/>
<stop offset="1" stop-color="#4BC0FF"/>
</linearGradient>
</defs>
</svg>
