<svg width="24" height="25" viewBox="0 0 24 25" fill="none" xmlns="http://www.w3.org/2000/svg">
<path fill-rule="evenodd" clip-rule="evenodd" d="M22.3141 21.111L18.0311 16.828H18.0321C21.0132 13.0966 20.5604 7.68634 17.0006 4.50228C13.4407 1.31823 8.01371 1.46931 4.63655 4.84648C1.25938 8.22364 1.1083 13.6507 4.29235 17.2105C7.47641 20.7703 12.8866 21.2231 16.6181 18.242L20.9001 22.525L22.3141 21.111ZM15.913 6.22472C18.6526 8.92308 18.7026 13.3261 16.0251 16.086L15.8751 16.236C13.1152 18.9135 8.71215 18.8635 6.01379 16.1239C3.31543 13.3844 3.33211 8.98111 6.05115 6.26208C8.77018 3.54304 13.1734 3.52636 15.913 6.22472Z" fill="#C0C9EA"/>
</svg>
