<svg width="59" height="61" viewBox="0 0 59 61" fill="none" xmlns="http://www.w3.org/2000/svg">
<path d="M24.419 2.19998C27.5883 0.481191 31.4117 0.481191 34.581 2.19998L52.948 12.165C56.3677 14.017 58.4986 17.593 58.5 21.482V40.34C58.4986 44.229 56.3677 47.8049 52.948 49.657L34.581 59.622C31.4117 61.3408 27.5883 61.3408 24.419 59.622L6.052 49.657C2.63232 47.8049 0.501402 44.229 0.5 40.34V21.482C0.501402 17.593 2.63232 14.017 6.052 12.165L24.419 2.19998Z" fill="url(#paint0_linear_2_2396)"/>
<path fill-rule="evenodd" clip-rule="evenodd" d="M12.1902 26.082C11.4492 26.33 11.4352 26.761 12.1432 27.038L22.0612 31.008C23.7845 31.6973 25.195 32.9949 26.0252 34.655L31.0572 44.72C31.3932 45.387 31.8442 45.354 32.0522 44.62L39.6182 18.141C39.8232 17.423 39.4032 17.012 38.6692 17.256L12.1902 26.082ZM24.0712 28.82L18.9272 26.761L18.9252 26.76L35.8832 21.114L30.9632 38.327L28.0332 32.467C27.2044 30.8066 25.7943 29.5087 24.0712 28.82Z" fill="#EDF4FF"/>
<defs>
<linearGradient id="paint0_linear_2_2396" x1="0.5" y1="0.910889" x2="0.5" y2="60.9111" gradientUnits="userSpaceOnUse">
<stop stop-color="#FFD5CF"/>
<stop offset="1" stop-color="#FE8270"/>
</linearGradient>
</defs>
</svg>
