<svg width="24" height="24" viewBox="0 0 24 24" fill="none" xmlns="http://www.w3.org/2000/svg">
<circle cx="12" cy="12" r="3" stroke="#363D4E" stroke-width="2" stroke-linecap="round" stroke-linejoin="round"/>
<path fill-rule="evenodd" clip-rule="evenodd" d="M19.4 15C19.1277 15.6171 19.2583 16.3378 19.73 16.82L19.79 16.88C20.2955 17.3855 20.493 18.1224 20.3079 18.8129C20.1229 19.5035 19.5835 20.0429 18.8929 20.2279C18.2024 20.413 17.4655 20.2155 16.96 19.71L16.9 19.65C16.4222 19.1872 15.7146 19.0536 15.101 19.3104C14.4874 19.5671 14.0858 20.1648 14.08 20.83V21C14.08 22.1046 13.1846 23 12.08 23C10.9754 23 10.08 22.1046 10.08 21V20.91C10.0642 20.2327 9.63587 19.6339 9 19.4C8.38291 19.1277 7.66219 19.2583 7.18 19.73L7.12 19.79C6.61447 20.2955 5.87764 20.493 5.18707 20.3079C4.49651 20.1229 3.95711 19.5835 3.77207 18.8929C3.58704 18.2024 3.78447 17.4655 4.29 16.96L4.35 16.9C4.81281 16.4222 4.9464 15.7146 4.68963 15.101C4.43287 14.4874 3.83515 14.0858 3.17 14.08H3C1.89543 14.08 1 13.1846 1 12.08C1 10.9754 1.89543 10.08 3 10.08H3.09C3.76733 10.0642 4.36613 9.63587 4.6 9C4.87235 8.38291 4.74167 7.66219 4.27 7.18L4.21 7.12C3.70447 6.61447 3.50704 5.87764 3.69207 5.18707C3.87711 4.49651 4.41651 3.95711 5.10707 3.77207C5.79764 3.58704 6.53447 3.78447 7.04 4.29L7.1 4.35C7.58219 4.82167 8.30291 4.95235 8.92 4.68H9C9.60447 4.42093 9.99738 3.82764 10 3.17V3C10 1.89543 10.8954 1 12 1C13.1046 1 14 1.89543 14 3V3.09C14.0058 3.75515 14.4074 4.35287 15.021 4.60963C15.6346 4.8664 16.3422 4.73281 16.82 4.27L16.88 4.21C17.3855 3.70447 18.1224 3.50704 18.8129 3.69207C19.5035 3.87711 20.0429 4.41651 20.2279 5.10707C20.413 5.79764 20.2155 6.53447 19.71 7.04L19.65 7.1C19.1783 7.58219 19.0477 8.30291 19.32 8.92V9C19.5791 9.60447 20.1724 9.99738 20.83 10H21C22.1046 10 23 10.8954 23 12C23 13.1046 22.1046 14 21 14H20.91C20.2524 14.0026 19.6591 14.3955 19.4 15Z" stroke="#363D4E" stroke-width="2" stroke-linecap="round" stroke-linejoin="round"/>
</svg>
