<svg width="59" height="61" viewBox="0 0 59 61" fill="none" xmlns="http://www.w3.org/2000/svg">
<path d="M24.419 2.19998C27.5883 0.481191 31.4117 0.481191 34.581 2.19998L52.948 12.165C56.3677 14.017 58.4986 17.593 58.5 21.482V40.34C58.4986 44.229 56.3677 47.8049 52.948 49.657L34.581 59.622C31.4117 61.3408 27.5883 61.3408 24.419 59.622L6.052 49.657C2.63232 47.8049 0.501402 44.229 0.5 40.34V21.482C0.501402 17.593 2.63232 14.017 6.052 12.165L24.419 2.19998Z" fill="url(#paint0_linear_2_2402)"/>
<path fill-rule="evenodd" clip-rule="evenodd" d="M21.6571 17.627L16.6011 23.527H21.5231V30.913C21.5236 32.2725 22.6256 33.3744 23.9851 33.375C25.3446 33.3744 26.4465 32.2725 26.4471 30.913V23.527H31.3711L26.3151 17.627C25.7322 16.9473 24.8815 16.5561 23.9861 16.5561C23.0907 16.5561 22.2399 16.9473 21.6571 17.627ZM36.1681 44.192L41.2201 38.298H36.2961V30.913C36.2955 29.5535 35.1936 28.4515 33.8341 28.451C32.4746 28.4515 31.3726 29.5535 31.3721 30.913V38.298H26.4481L31.5001 44.192C32.0837 44.874 32.9364 45.2666 33.8341 45.2666C34.7317 45.2666 35.5844 44.874 36.1681 44.192Z" fill="#EDF4FF"/>
<defs>
<linearGradient id="paint0_linear_2_2402" x1="0.5" y1="0.910889" x2="0.5" y2="60.9111" gradientUnits="userSpaceOnUse">
<stop stop-color="#C1B2FF"/>
<stop offset="1" stop-color="#9B87FF"/>
</linearGradient>
</defs>
</svg>
