<svg width="17" height="17" viewBox="0 0 17 17" fill="none" xmlns="http://www.w3.org/2000/svg">
<path d="M12.3999 10.914C12.1828 10.6633 11.8675 10.5193 11.5359 10.5193C11.2043 10.5193 10.889 10.6633 10.6719 10.914C10.2719 11.314 9.86389 11.714 9.47189 12.122C9.43606 12.1746 9.38069 12.2106 9.31813 12.222C9.25557 12.2335 9.19102 12.2194 9.13889 12.183C8.87789 12.04 8.59889 11.925 8.34789 11.769C7.19731 11.0241 6.17675 10.0954 5.32689 9.02001C4.88476 8.49682 4.52004 7.91286 4.24389 7.28601C4.18208 7.1793 4.20807 7.04339 4.30489 6.96701C4.70489 6.57701 5.10489 6.17601 5.49989 5.77601C5.76345 5.55811 5.91603 5.23398 5.91603 4.89201C5.91603 4.55004 5.76345 4.22591 5.49989 4.00801C5.18389 3.68901 4.86889 3.37701 4.55289 3.05801C4.23689 2.73901 3.90489 2.40301 3.57589 2.08101C3.35755 1.83244 3.04273 1.68996 2.71189 1.68996C2.38105 1.68996 2.06623 1.83244 1.84789 2.08101C1.44089 2.48101 1.04789 2.89201 0.63589 3.28101C0.266839 3.62736 0.0454952 4.10264 0.0178896 4.60801C-0.0177613 5.43681 0.130449 6.26324 0.45189 7.02801C1.06344 8.6176 1.94658 10.0888 3.06189 11.376C4.52812 13.1344 6.35142 14.5609 8.41089 15.561C9.33064 16.0444 10.3384 16.3376 11.3739 16.423C12.0731 16.5026 12.7675 16.2383 13.2369 15.714C13.5829 15.327 13.9729 14.974 14.3369 14.604C14.5952 14.3856 14.7448 14.0649 14.7461 13.7266C14.7475 13.3883 14.6005 13.0665 14.3439 12.846C13.6972 12.202 13.0492 11.558 12.3999 10.914Z" fill="#EFF0F6"/>
<path d="M11.7518 8.209L13.0038 7.995C12.5889 5.58796 10.6673 3.72418 8.24875 3.383L8.07275 4.642C9.94432 4.90437 11.4317 6.34643 11.7518 8.209Z" fill="#EFF0F6"/>
<path d="M13.7097 2.766C12.2825 1.32888 10.4223 0.400902 8.41575 0.125L8.23975 1.384C11.707 1.87127 14.4628 4.54179 15.0587 7.992L16.3107 7.778C15.9842 5.87814 15.0752 4.12672 13.7097 2.766Z" fill="#EFF0F6"/>
</svg>
