<svg width="49" height="50" viewBox="0 0 49 50" fill="none" xmlns="http://www.w3.org/2000/svg">
<path d="M19.881 1.07401C22.5142 -0.358267 25.6938 -0.358267 28.327 1.07401L43.593 9.37401C46.4374 10.9212 48.2081 13.9 48.208 17.138V32.858C48.2081 36.096 46.4374 39.0748 43.593 40.622L28.327 48.922C25.6938 50.3543 22.5142 50.3543 19.881 48.922L4.615 40.622C1.77056 39.0748 -7.5054e-05 36.096 0 32.858V17.142C-7.5054e-05 13.904 1.77056 10.9252 4.615 9.37801L19.881 1.07401Z" fill="url(#paint0_linear_2_2477)"/>
<path fill-rule="evenodd" clip-rule="evenodd" d="M26.3341 26.474C26.2091 26.483 25.5651 26.522 24.1341 26.522C22.9871 26.522 22.1801 26.488 21.8971 26.474C17.4831 26.28 14.1891 25.511 14.1891 24.592C14.1891 23.673 17.4831 22.905 21.8971 22.708V25.708C22.1851 25.728 23.0121 25.777 24.1541 25.777C25.5241 25.777 26.2111 25.72 26.3391 25.709V22.709C30.7391 22.909 34.0301 23.674 34.0301 24.591C34.0301 25.508 30.7411 26.278 26.3341 26.474ZM26.3341 22.399V19.713H32.4801V15.613H15.7461V19.713H21.8921V22.398C16.8971 22.627 13.1411 23.616 13.1411 24.798C13.1411 25.98 16.8971 26.972 21.8921 27.198V35.805H26.3341V27.204C31.3211 26.975 35.0681 25.986 35.0681 24.804C35.0681 23.622 31.3211 22.631 26.3341 22.404" fill="white"/>
<defs>
<linearGradient id="paint0_linear_2_2477" x1="0" y1="-0.000198364" x2="0" y2="49.9962" gradientUnits="userSpaceOnUse">
<stop stop-color="#8DF3ED"/>
<stop offset="1" stop-color="#34D9D1"/>
</linearGradient>
</defs>
</svg>
