<svg width="49" height="50" viewBox="0 0 49 50" fill="none" xmlns="http://www.w3.org/2000/svg">
<path d="M19.881 1.07401C22.5142 -0.358267 25.6938 -0.358267 28.327 1.07401L43.593 9.37401C46.4374 10.9212 48.2081 13.9 48.208 17.138V32.858C48.2081 36.096 46.4374 39.0748 43.593 40.622L28.327 48.922C25.6938 50.3543 22.5142 50.3543 19.881 48.922L4.615 40.622C1.77056 39.0748 -7.5054e-05 36.096 0 32.858V17.142C-7.5054e-05 13.904 1.77056 10.9252 4.615 9.37801L19.881 1.07401Z" fill="url(#paint0_linear_2_2563)"/>
<path fill-rule="evenodd" clip-rule="evenodd" d="M35.698 19.1824L35.6965 19.1814L35.6963 19.1812L35.696 19.181L35.6957 19.1808C34.8584 18.5875 33.9904 17.9725 33.1419 17.361C33.1169 17.342 33.0929 17.324 33.0619 17.305C32.9316 17.1983 32.7842 17.1144 32.6259 17.057L32.6129 17.05C29.6435 16.3213 26.6742 15.588 23.7049 14.85L15.7599 12.893L15.5519 12.837C15.2919 12.7468 15.0163 12.7107 14.7419 12.731C14.6601 12.7441 14.5822 12.7752 14.5139 12.822L14.4399 12.884C14.3469 12.9795 14.2759 13.0942 14.2319 13.22L14.2139 13.268V13.553L14.2269 13.597C15.5711 17.4217 16.9444 21.2915 18.2918 25.0883L18.2937 25.0937C18.6226 26.0204 18.9499 26.9427 19.2749 27.859C20.2416 30.5863 21.2358 33.3848 22.2263 36.1727L22.2265 36.1733L23.1749 38.843C23.2631 39.0959 23.4972 39.2689 23.7649 39.279H23.8259C24.0775 39.2852 24.3125 39.1537 24.4389 38.936L29.2989 31.749C30.4822 30.0003 31.6662 28.2497 32.8509 26.497L34.3049 24.343C34.4744 24.0925 34.6448 23.8404 34.8159 23.5873L34.8192 23.5824L34.8208 23.5801C35.4556 22.6412 36.0997 21.6884 36.7419 20.753L36.7839 20.692V20.616C36.8439 20.2781 36.717 19.934 36.4519 19.716L36.4479 19.714C36.2017 19.5393 35.9513 19.3619 35.698 19.1824ZM30.7579 22.337C30.1962 22.6321 29.6293 22.9334 29.0586 23.2368L29.0585 23.2368L29.0585 23.2369L29.0584 23.2369C28.4687 23.5504 27.875 23.866 27.2789 24.179L29.3289 21.951C30.1809 21.018 31.0709 20.051 31.9419 19.107L31.9609 19.088C32.0418 18.9845 32.13 18.887 32.2249 18.796C32.2437 18.7766 32.2632 18.7572 32.2831 18.7374C32.333 18.6877 32.385 18.6359 32.4329 18.578L32.6007 18.6959L32.6011 18.6962L32.6016 18.6966L32.6019 18.6968C33.0006 18.9768 33.4017 19.2584 33.7889 19.537C34.1075 19.767 34.4329 19.997 34.7649 20.227C33.4242 20.9217 32.0885 21.625 30.7579 22.337ZM25.1379 24.967C26.0399 23.99 26.9479 23.001 27.8259 22.037V22.034L28.3232 21.4917C29.3197 20.4052 30.3394 19.2934 31.3539 18.194L20.6719 15.562C20.0884 15.4134 19.4981 15.2706 18.9259 15.1323L18.7719 15.095C18.0669 14.928 17.3489 14.753 16.6369 14.567C16.675 14.6139 16.7131 14.66 16.7509 14.7059L16.751 14.706L16.751 14.706C16.8294 14.8009 16.9067 14.8946 16.9809 14.991C17.033 15.0553 17.0853 15.1213 17.1379 15.1876C17.2578 15.3389 17.3791 15.492 17.5029 15.631L17.5079 15.638L19.8709 18.522C21.6329 20.6647 23.3885 22.813 25.1379 24.967ZM24.78 33.7442L24.78 33.7437C24.8347 33.2248 24.8902 32.6982 24.9359 32.179C24.9588 31.9623 24.9813 31.744 25.0038 31.5262L25.0039 31.5254C25.0364 31.2108 25.0688 30.8974 25.1019 30.592C25.1211 30.404 25.1408 30.2146 25.1606 30.0242L25.1607 30.0237L25.1607 30.0235C25.2281 29.3747 25.2967 28.7151 25.3539 28.065L25.3709 27.916C25.4319 27.38 25.4929 26.827 25.5299 26.272C25.6014 26.2317 25.6756 26.1963 25.7519 26.166C25.8461 26.1264 25.9379 26.0813 26.0269 26.031C27.4442 25.2757 28.8635 24.5247 30.2849 23.778C31.4599 23.1598 32.6596 22.5231 33.8568 21.8878L33.8576 21.8873L34.5989 21.494C33.2909 23.4153 31.9879 25.3407 30.6899 27.27C30.2951 27.8525 29.8968 28.442 29.4964 29.0345C28.7814 30.0928 28.0598 31.1608 27.3399 32.216C27.0341 32.6737 26.7196 33.1371 26.4098 33.5937L26.409 33.5948C26.2724 33.7963 26.1366 33.9963 26.0029 34.194L25.9192 34.317C25.4548 34.9999 24.9801 35.6979 24.5179 36.394C24.5789 35.646 24.6519 34.894 24.7319 34.159L24.7359 34.164C24.7504 34.0248 24.7651 33.8848 24.78 33.7442ZM16.1023 15.8107C16.1298 15.886 16.1572 15.9613 16.1839 16.036L16.1849 16.042L22.4239 33.642L23.0809 35.49C23.1675 35.7467 23.2575 36.0017 23.3509 36.255C23.3849 36.343 23.4199 36.437 23.4509 36.53C23.4853 36.2248 23.5153 35.9196 23.545 35.617C23.5663 35.4011 23.5874 35.1864 23.6099 34.974C23.6279 34.8007 23.646 34.6267 23.6643 34.452C23.7756 33.385 23.8893 32.2952 23.9839 31.215L23.9909 31.173L24.1319 29.934C24.1396 29.8632 24.1478 29.7919 24.1561 29.7203C24.1798 29.5149 24.2038 29.3069 24.2179 29.1V29.095C24.2669 28.652 24.3099 28.216 24.3519 27.78C24.3732 27.5765 24.394 27.3701 24.4151 27.1621C24.4582 26.7352 24.5021 26.3013 24.5519 25.871C24.3816 25.6797 24.2214 25.4811 24.0642 25.2861C24.0118 25.2212 23.9598 25.1567 23.9079 25.093C23.7489 24.893 23.5829 24.686 23.4169 24.493C22.7802 23.7102 22.1441 22.9349 21.5077 22.1593C21.3035 21.9103 21.0992 21.6613 20.8949 21.412C19.2689 19.434 17.6009 17.393 15.9439 15.364C15.9925 15.5093 16.0474 15.66 16.1023 15.8107Z" fill="white"/>
<defs>
<linearGradient id="paint0_linear_2_2563" x1="0" y1="-0.000198364" x2="0" y2="49.9962" gradientUnits="userSpaceOnUse">
<stop stop-color="#FF9BD0"/>
<stop offset="1" stop-color="#FF73AA"/>
</linearGradient>
</defs>
</svg>
