<svg width="24" height="23" viewBox="0 0 24 23" fill="none" xmlns="http://www.w3.org/2000/svg">
<path fill-rule="evenodd" clip-rule="evenodd" d="M4.125 5.29703C1.84683 5.29703 0 7.14385 0 9.42203V18.422C0 20.7002 1.84683 22.547 4.125 22.547H19.125C21.4032 22.547 23.25 20.7002 23.25 18.422V9.42203C23.25 7.14385 21.4032 5.29703 19.125 5.29703H4.125ZM2.25 9.42203C2.25 8.38649 3.08947 7.54703 4.125 7.54703H19.125C20.1605 7.54703 21 8.38649 21 9.42203V18.422C21 19.4576 20.1605 20.297 19.125 20.297H4.125C3.08947 20.297 2.25 19.4576 2.25 18.422V9.42203Z" fill="#363D4E"/>
<path fill-rule="evenodd" clip-rule="evenodd" d="M19.0674 0.504238C18.326 -0.0150951 17.3779 -0.140212 16.5272 0.169013L3.04121 5.07301C2.45864 5.2837 2.11181 5.88266 2.21909 6.49281C2.32637 7.10295 2.85671 7.54769 3.47621 7.54701H18.9752C19.6794 7.54701 20.2502 6.97618 20.2502 6.27201V2.77701C20.2502 1.87185 19.8087 1.02357 19.0674 0.504238ZM17.7775 2.34976C17.9166 2.44769 17.9996 2.60693 18.0002 2.77701V5.30001H9.01121L17.3002 2.28401C17.4606 2.22732 17.6385 2.25182 17.7775 2.34976Z" fill="#363D4E"/>
<path d="M0.75 11.672C0.75 11.0507 1.25368 10.547 1.875 10.547H21.375C21.9963 10.547 22.5 11.0507 22.5 11.672C22.5 12.2933 21.9963 12.797 21.375 12.797H1.875C1.25368 12.797 0.75 12.2933 0.75 11.672Z" fill="#363D4E"/>
<path d="M3 16.922C3 16.3007 3.50368 15.797 4.125 15.797H10.125C10.7463 15.797 11.25 16.3007 11.25 16.922C11.25 17.5433 10.7463 18.047 10.125 18.047H4.125C3.50368 18.047 3 17.5433 3 16.922Z" fill="#363D4E"/>
</svg>
