<svg width="215" height="214" viewBox="0 0 215 214" fill="none" xmlns="http://www.w3.org/2000/svg">
<path d="M104.832 212.227C149.905 212.227 186.445 175.514 186.445 130.227C186.445 84.94 149.905 48.227 104.832 48.227C59.759 48.227 23.218 84.94 23.218 130.227C23.218 175.514 59.759 212.227 104.832 212.227Z" fill="#31343B"/>
<path d="M51.463 212.227C23.8544 194.09 7.24608 163.26 7.28899 130.227C7.28899 76.108 50.97 32.386 104.668 32.386C158.366 32.386 202.045 76.274 202.045 130.227C202.098 163.303 185.414 194.16 157.709 212.227" stroke="#2A2E38" stroke-width="2" stroke-linecap="round" stroke-linejoin="round" stroke-dasharray="1"/>
<path d="M50.92 64.834C52.5108 64.326 53.638 62.9086 53.7749 61.2443C53.9117 59.58 53.0311 57.9975 51.5447 57.2364C50.0582 56.4754 48.2596 56.6862 46.9893 57.7702C45.719 58.8542 45.2281 60.5974 45.746 62.185C46.4522 64.3376 48.7607 65.5196 50.92 64.834Z" fill="#31343B"/>
<path d="M59.881 51.375C60.9603 51.0287 61.7244 50.0659 61.8164 48.9361C61.9084 47.8063 61.3101 46.7325 60.301 46.2162C59.2919 45.6999 58.0711 45.8429 57.2086 46.5785C56.3462 47.3141 56.0123 48.4971 56.363 49.575C56.8436 51.0383 58.4131 51.8413 59.881 51.375Z" fill="#31343B"/>
<path d="M210.373 106.94C212.919 104.6 213.098 100.642 210.773 98.082C209.66 96.8553 208.103 96.1233 206.449 96.0482C204.794 95.9731 203.178 96.5612 201.958 97.682C199.413 100.023 199.234 103.979 201.558 106.54C202.671 107.767 204.227 108.5 205.882 108.575C207.537 108.65 209.154 108.061 210.373 106.94Z" fill="#31343B"/>
<path d="M210.722 78.942C211.793 77.9563 211.868 76.2911 210.89 75.213C210.421 74.6965 209.766 74.3882 209.069 74.3567C208.372 74.3252 207.691 74.5729 207.178 75.045C206.107 76.0307 206.033 77.696 207.012 78.773C207.48 79.2896 208.135 79.5979 208.832 79.6297C209.528 79.6614 210.209 79.4139 210.722 78.942Z" fill="#31343B"/>
<path d="M130.613 46.078C131.683 46.0837 132.65 45.4437 133.063 44.4572C133.476 43.4706 133.253 42.3323 132.499 41.5742C131.745 40.816 130.607 40.5878 129.619 40.996C128.63 41.4043 127.986 42.3685 127.986 43.438C127.983 44.8923 129.159 46.0741 130.613 46.078Z" fill="#31343B"/>
<path d="M15.461 73.789C16.5337 72.8037 16.6088 71.1368 15.629 70.059C15.1602 69.5424 14.5048 69.2342 13.8079 69.2027C13.1111 69.1712 12.4305 69.4189 11.917 69.891C10.8459 70.8774 10.7718 72.5433 11.751 73.621C12.2194 74.1374 12.8745 74.4456 13.571 74.4771C14.2675 74.5087 14.9478 74.261 15.461 73.789Z" fill="#31343B"/>
<path d="M211.57 128.739C212.639 128.743 213.605 128.103 214.017 127.117C214.429 126.131 214.206 124.993 213.452 124.236C212.697 123.479 211.561 123.251 210.573 123.659C209.585 124.067 208.941 125.03 208.941 126.099C208.939 126.798 209.215 127.469 209.708 127.964C210.201 128.459 210.871 128.738 211.57 128.739Z" fill="#31343B"/>
<path d="M24.365 212.391H192.193" stroke="#2B323C" stroke-width="2" stroke-linecap="round" stroke-linejoin="round"/>
<path d="M171.173 30.072L154.915 31.223C153.303 31.369 152.082 32.7413 152.124 34.359C152.165 35.1446 152.517 35.8814 153.103 36.4068C153.688 36.9322 154.459 37.2029 155.244 37.159L163.784 36.665L123.384 72.634L112.547 52.175C112.38 51.8621 112.158 51.5824 111.89 51.35C110.656 50.2427 108.766 50.3153 107.621 51.514L67.06 95.568L55.73 76.428V76.264C55.566 76.098 55.402 75.764 55.237 75.604C54.6752 75.0725 53.9227 74.7902 53.1499 74.821C52.3772 74.8519 51.6496 75.1934 51.132 75.768L1.04699 129.887C0.718995 130.217 0.718995 130.712 1.04699 130.878C1.19639 131.036 1.40416 131.125 1.62149 131.125C1.83883 131.125 2.0466 131.036 2.19599 130.878L52.445 82.699L63.939 101.999C64.103 102.163 64.267 102.493 64.432 102.659C65.6663 103.766 67.5564 103.692 68.701 102.493L109.262 58.771L119.935 78.9C120.138 79.0594 120.259 79.3019 120.263 79.56C120.781 80.1346 121.508 80.4761 122.281 80.507C123.054 80.5378 123.806 80.2555 124.368 79.724L168.542 40.124L169.199 49.694C169.258 50.7499 169.876 51.6941 170.82 52.171C171.764 52.6479 172.89 52.585 173.775 52.006C174.66 51.427 175.169 50.4199 175.11 49.364L173.961 33.029C174.056 32.2495 173.799 31.4681 173.26 30.8968C172.722 30.3254 171.957 30.0232 171.173 30.072Z" fill="#31343B"/>
<path d="M25.189 160.748V206.783" stroke="#505965" stroke-linecap="round" stroke-linejoin="round"/>
<path d="M30.608 199.523H19.77C19.0688 199.53 18.3943 199.254 17.8997 198.757C17.4051 198.26 17.1322 197.584 17.143 196.883V170.649C17.1322 169.948 17.4051 169.272 17.8997 168.775C18.3943 168.278 19.0688 168.002 19.77 168.009H30.608C31.3092 168.002 31.9837 168.278 32.4783 168.775C32.973 169.272 33.2458 169.948 33.235 170.649V196.884C33.2755 197.593 33.0122 198.287 32.5109 198.79C32.0096 199.294 31.3176 199.56 30.608 199.523Z" fill="#31343B"/>
<path d="M186.281 95.246V141.281" stroke="#505965" stroke-linecap="round" stroke-linejoin="round"/>
<path d="M191.7 134.018H180.861C180.16 134.025 179.485 133.749 178.991 133.252C178.496 132.755 178.223 132.079 178.234 131.378V105.146C178.223 104.445 178.496 103.769 178.991 103.272C179.485 102.775 180.16 102.499 180.861 102.506H191.7C192.401 102.499 193.076 102.775 193.57 103.272C194.065 103.769 194.338 104.445 194.327 105.146V131.379C194.367 132.088 194.104 132.782 193.603 133.285C193.102 133.789 192.41 134.055 191.7 134.018Z" fill="#31343B"/>
<path d="M51.955 113.396V175.268" stroke="#505965" stroke-linecap="round" stroke-linejoin="round"/>
<path d="M57.375 168.008H46.537C45.8358 168.015 45.1613 167.739 44.6667 167.242C44.172 166.745 43.8992 166.069 43.91 165.368V123.46C43.8992 122.759 44.172 122.083 44.6667 121.586C45.1613 121.089 45.8358 120.813 46.537 120.82H57.374C58.0752 120.813 58.7497 121.089 59.2443 121.586C59.7389 122.083 60.0118 122.759 60.001 123.46V165.369C60.0414 166.078 59.7782 166.771 59.2772 167.275C58.7761 167.778 58.0844 168.045 57.375 168.008Z" fill="#31343B"/>
<path d="M78.722 141.444V195.395" stroke="#505965" stroke-linecap="round" stroke-linejoin="round"/>
<path d="M84.141 188.137H73.303C72.6018 188.144 71.9273 187.868 71.4327 187.371C70.938 186.874 70.6652 186.198 70.676 185.497V151.344C70.6652 150.643 70.938 149.967 71.4327 149.47C71.9273 148.973 72.6018 148.697 73.303 148.704H84.14C84.8412 148.697 85.5157 148.973 86.0103 149.47C86.505 149.967 86.7778 150.643 86.767 151.344V185.332C86.8116 186.058 86.5553 186.77 86.0584 187.3C85.5615 187.831 84.868 188.134 84.141 188.137Z" fill="#31343B"/>
<path d="M105.489 87.988V168.836" stroke="#505965" stroke-linecap="round" stroke-linejoin="round"/>
<path d="M110.908 161.573H100.07C99.3688 161.58 98.6943 161.304 98.1997 160.807C97.705 160.31 97.4322 159.634 97.443 158.933V97.881C97.4322 97.1798 97.705 96.504 98.1997 96.0069C98.6943 95.5098 99.3688 95.2336 100.07 95.241H110.907C111.608 95.2336 112.283 95.5098 112.777 96.0069C113.272 96.504 113.545 97.1798 113.534 97.881V158.764C113.58 159.49 113.324 160.204 112.827 160.735C112.33 161.267 111.636 161.57 110.908 161.573Z" fill="#31343B"/>
<path d="M132.256 88.646V140.785" stroke="#505965" stroke-linecap="round" stroke-linejoin="round"/>
<path d="M137.674 133.525H126.837C126.135 133.533 125.46 133.257 124.965 132.76C124.47 132.263 124.197 131.587 124.208 130.885V98.711C124.197 98.0095 124.47 97.3333 124.965 96.8362C125.46 96.339 126.135 96.0631 126.837 96.071H137.674C138.375 96.0636 139.05 96.3398 139.544 96.8369C140.039 97.334 140.312 98.0098 140.301 98.711V130.72C140.336 132.214 139.168 133.462 137.674 133.525Z" fill="#31343B"/>
<path d="M159.022 111.086V151.178" stroke="#505965" stroke-linecap="round" stroke-linejoin="round"/>
<path d="M164.44 143.919H153.601C152.9 143.926 152.225 143.65 151.731 143.153C151.236 142.656 150.963 141.98 150.974 141.279V120.979C150.963 120.278 151.236 119.602 151.731 119.105C152.225 118.608 152.9 118.332 153.601 118.339H164.44C165.141 118.332 165.816 118.608 166.31 119.105C166.805 119.602 167.078 120.278 167.067 120.979V141.279C167.078 141.98 166.805 142.656 166.31 143.153C165.816 143.65 165.141 143.926 164.44 143.919Z" fill="#31343B"/>
<path d="M207.979 39.99C207.461 42.4286 206.69 44.8064 205.679 47.085C205.515 47.579 205.186 48.076 205.022 48.57C204.195 50.2573 203.205 51.8599 202.066 53.355C201.575 53.9197 201.135 54.5271 200.752 55.17C197.93 58.4724 194.466 61.1666 190.571 63.089C189.912 63.419 189.091 63.749 188.435 64.08C187.212 64.6178 185.95 65.0588 184.658 65.399C179.474 66.8652 174.018 67.0913 168.73 66.059C150.776 62.2577 139.266 44.6677 142.97 26.6939C146.674 8.72005 164.201 -2.88571 182.195 0.721004C200.138 4.47525 211.665 22.0337 207.976 39.99H207.979Z" fill="#31343B"/>
<path fill-rule="evenodd" clip-rule="evenodd" d="M169.554 60.615C171.434 61.0781 173.365 61.2999 175.301 61.275C177.906 61.2819 180.502 60.9494 183.021 60.286C183.261 60.2055 183.511 60.1249 183.769 60.0419C184.567 59.7848 185.436 59.5045 186.305 59.131C186.936 58.9256 187.542 58.6488 188.111 58.306C191.369 56.6266 194.269 54.3293 196.649 51.542C196.814 51.2928 197.02 51.0438 197.227 50.795C197.431 50.5488 197.635 50.3028 197.798 50.057C198.715 48.7414 199.538 47.363 200.261 45.932C200.344 45.7658 200.427 45.5579 200.509 45.3503C200.591 45.1446 200.672 44.9393 200.754 44.775C201.606 42.8654 202.266 40.8755 202.724 38.835C204.732 29.5297 201.889 19.8406 195.171 13.096C191.273 9.28473 186.377 6.65376 181.048 5.507C173.738 3.95899 166.113 5.38616 159.857 9.47303C153.602 13.5599 149.232 19.9699 147.713 27.286C144.625 42.5046 154.368 57.3716 169.554 60.615ZM150.341 28.11C152.758 16.2107 163.159 7.61693 175.301 7.487V7.486C177.141 7.44965 178.973 7.73007 180.717 8.315C185.638 9.27256 190.159 11.687 193.691 15.245C199.805 21.3853 202.401 30.2 200.591 38.674C200.213 40.5558 199.607 42.3844 198.785 44.119C198.62 44.445 198.456 44.7747 198.292 45.108C197.623 46.377 196.854 47.5908 195.992 48.738C195.563 49.136 195.178 49.5788 194.843 50.059C192.599 52.5442 189.93 54.6098 186.961 56.159C186.449 56.4993 185.898 56.7763 185.319 56.984C184.379 57.4364 183.385 57.7693 182.362 57.975C178.413 59.1295 174.241 59.2991 170.211 58.469C163.547 57.0845 157.707 53.1059 153.979 47.4107C150.252 41.7155 148.943 34.7714 150.341 28.11Z" fill="#31343B"/>
<path fill-rule="evenodd" clip-rule="evenodd" d="M172.815 49.873H169.531V44.594C167.561 44.428 165.59 44.428 163.456 44.428C163.769 42.8567 163.883 42.2165 163.967 41.7479L163.967 41.7478L163.967 41.7478C164.015 41.478 164.053 41.2651 164.113 40.964C164.124 40.7873 164.264 40.6462 164.441 40.634H166.247C167.232 40.634 167.396 40.304 167.396 39.479V26.444C167.46 25.9764 167.314 25.5045 166.997 25.1546C166.681 24.8046 166.226 24.6123 165.754 24.629H163.624V21.493H169.207C169.371 21.493 169.453 21.493 169.494 21.452C169.535 21.4108 169.535 21.3283 169.535 21.163V16.05H172.655V21.33H174.955V16.05H177.911V21.163C177.911 21.329 177.911 21.493 178.239 21.493C181.851 21.993 184.973 23.144 185.139 26.774C185.382 27.9931 185.082 29.2575 184.318 30.238C183.904 30.8629 183.339 31.3735 182.676 31.723C182.718 31.7371 182.763 31.7519 182.809 31.7673L182.81 31.7675C183.856 32.1132 185.995 32.8203 186.781 35.187C187.08 36.1482 187.137 37.1687 186.945 38.157C186.839 39.2331 186.442 40.2599 185.796 41.127C185.095 42.1684 184.048 42.9282 182.84 43.272C181.363 43.7988 179.808 44.0776 178.24 44.097C178.076 44.097 177.912 44.097 177.912 44.427V49.376H174.956V44.097H172.656C172.815 46.407 172.815 48.222 172.815 49.873ZM172.815 34.363V40.963C173.449 40.9309 174.022 40.9113 174.547 40.8933L174.547 40.8932C176.739 40.818 178.09 40.7716 179.547 39.972C180.441 39.6385 181.032 38.7815 181.025 37.827C181.191 36.7574 180.664 35.6995 179.711 35.187C178.07 34.199 174.786 34.199 172.815 34.363ZM172.815 31.229V25.289C174.637 25.1456 176.47 25.313 178.236 25.784C180.206 26.774 180.699 30.073 177.415 30.899C175.909 31.2545 174.356 31.3659 172.815 31.229Z" fill="#31343B"/>
</svg>
