<svg width="325" height="264" viewBox="0 0 325 264" fill="none" xmlns="http://www.w3.org/2000/svg">
<g clip-path="url(#clip0_2_3733)">
<path d="M4.4043 10.6123H5.39062V11.3496H4.4043V13H3.49609V11.3496H0.258789V10.8174L3.44238 5.89062H4.4043V10.6123ZM1.28418 10.6123H3.49609V7.12598L3.38867 7.32129L1.28418 10.6123ZM10.0195 10.6123H11.0059V11.3496H10.0195V13H9.11133V11.3496H5.87402V10.8174L9.05762 5.89062H10.0195V10.6123ZM6.89941 10.6123H9.11133V7.12598L9.00391 7.32129L6.89941 10.6123ZM11.8848 14.416L11.3721 14.0645C11.6781 13.638 11.8376 13.1986 11.8506 12.7461V11.9307H12.7344V12.6387C12.7344 12.9674 12.653 13.2962 12.4902 13.625C12.3307 13.9538 12.1289 14.2174 11.8848 14.416ZM14.1992 9.43555L14.5605 5.89062H18.2031V6.72559H15.3271L15.1123 8.66406C15.4606 8.45898 15.8561 8.35645 16.2988 8.35645C16.9466 8.35645 17.4609 8.57129 17.8418 9.00098C18.2227 9.42741 18.4131 10.0052 18.4131 10.7344C18.4131 11.4668 18.2145 12.0446 17.8174 12.4678C17.4235 12.8877 16.8717 13.0977 16.1621 13.0977C15.5339 13.0977 15.0212 12.9235 14.624 12.5752C14.2269 12.2269 14.0007 11.7451 13.9453 11.1299H14.7998C14.8551 11.5368 15 11.8444 15.2344 12.0527C15.4688 12.2578 15.778 12.3604 16.1621 12.3604C16.582 12.3604 16.9108 12.2171 17.1484 11.9307C17.3893 11.6442 17.5098 11.2487 17.5098 10.7441C17.5098 10.2689 17.3796 9.88802 17.1191 9.60156C16.862 9.31185 16.5186 9.16699 16.0889 9.16699C15.695 9.16699 15.3857 9.25326 15.1611 9.42578L14.9219 9.62109L14.1992 9.43555Z" fill="#A6A3B8"/>
<path d="M4.4043 42.6123H5.39062V43.3496H4.4043V45H3.49609V43.3496H0.258789V42.8174L3.44238 37.8906H4.4043V42.6123ZM1.28418 42.6123H3.49609V39.126L3.38867 39.3213L1.28418 42.6123ZM10.0195 42.6123H11.0059V43.3496H10.0195V45H9.11133V43.3496H5.87402V42.8174L9.05762 37.8906H10.0195V42.6123ZM6.89941 42.6123H9.11133V39.126L9.00391 39.3213L6.89941 42.6123ZM11.8848 46.416L11.3721 46.0645C11.6781 45.638 11.8376 45.1986 11.8506 44.7461V43.9307H12.7344V44.6387C12.7344 44.9674 12.653 45.2962 12.4902 45.625C12.3307 45.9538 12.1289 46.2174 11.8848 46.416ZM17.5977 42.6123H18.584V43.3496H17.5977V45H16.6895V43.3496H13.4521V42.8174L16.6357 37.8906H17.5977V42.6123ZM14.4775 42.6123H16.6895V39.126L16.582 39.3213L14.4775 42.6123Z" fill="#A6A3B8"/>
<path d="M4.4043 74.6123H5.39062V75.3496H4.4043V77H3.49609V75.3496H0.258789V74.8174L3.44238 69.8906H4.4043V74.6123ZM1.28418 74.6123H3.49609V71.126L3.38867 71.3213L1.28418 74.6123ZM10.0195 74.6123H11.0059V75.3496H10.0195V77H9.11133V75.3496H5.87402V74.8174L9.05762 69.8906H10.0195V74.6123ZM6.89941 74.6123H9.11133V71.126L9.00391 71.3213L6.89941 74.6123ZM11.8848 78.416L11.3721 78.0645C11.6781 77.638 11.8376 77.1986 11.8506 76.7461V75.9307H12.7344V76.6387C12.7344 76.9674 12.653 77.2962 12.4902 77.625C12.3307 77.9538 12.1289 78.2174 11.8848 78.416ZM15.0977 73.0059H15.7764C16.2028 72.9993 16.5381 72.887 16.7822 72.6689C17.0264 72.4508 17.1484 72.1562 17.1484 71.7852C17.1484 70.9518 16.7334 70.5352 15.9033 70.5352C15.5127 70.5352 15.2002 70.6475 14.9658 70.8721C14.7347 71.0934 14.6191 71.388 14.6191 71.7559H13.7158C13.7158 71.1927 13.9209 70.7256 14.3311 70.3545C14.7445 69.9801 15.2686 69.793 15.9033 69.793C16.5739 69.793 17.0996 69.9704 17.4805 70.3252C17.8613 70.68 18.0518 71.1732 18.0518 71.8047C18.0518 72.1139 17.9508 72.4134 17.749 72.7031C17.5505 72.9928 17.2786 73.2093 16.9336 73.3525C17.3242 73.4762 17.6253 73.6813 17.8369 73.9678C18.0518 74.2542 18.1592 74.6042 18.1592 75.0176C18.1592 75.6556 17.9508 76.1618 17.5342 76.5361C17.1175 76.9105 16.5755 77.0977 15.9082 77.0977C15.2409 77.0977 14.6973 76.917 14.2773 76.5557C13.8607 76.1943 13.6523 75.7174 13.6523 75.125H14.5605C14.5605 75.4993 14.6826 75.7988 14.9268 76.0234C15.1709 76.248 15.498 76.3604 15.9082 76.3604C16.3444 76.3604 16.6781 76.2464 16.9092 76.0186C17.1403 75.7907 17.2559 75.4635 17.2559 75.0371C17.2559 74.6237 17.1289 74.3063 16.875 74.085C16.6211 73.8636 16.2549 73.7497 15.7764 73.7432H15.0977V73.0059Z" fill="#A6A3B8"/>
<path d="M4.4043 106.612H5.39062V107.35H4.4043V109H3.49609V107.35H0.258789V106.817L3.44238 101.891H4.4043V106.612ZM1.28418 106.612H3.49609V103.126L3.38867 103.321L1.28418 106.612ZM10.0195 106.612H11.0059V107.35H10.0195V109H9.11133V107.35H5.87402V106.817L9.05762 101.891H10.0195V106.612ZM6.89941 106.612H9.11133V103.126L9.00391 103.321L6.89941 106.612ZM11.8848 110.416L11.3721 110.064C11.6781 109.638 11.8376 109.199 11.8506 108.746V107.931H12.7344V108.639C12.7344 108.967 12.653 109.296 12.4902 109.625C12.3307 109.954 12.1289 110.217 11.8848 110.416ZM18.4424 109H13.7842V108.351L16.2451 105.616C16.6097 105.203 16.8604 104.868 16.9971 104.61C17.137 104.35 17.207 104.081 17.207 103.805C17.207 103.434 17.0947 103.129 16.8701 102.892C16.6455 102.654 16.346 102.535 15.9717 102.535C15.5225 102.535 15.1725 102.664 14.9219 102.921C14.6745 103.175 14.5508 103.53 14.5508 103.985H13.6475C13.6475 103.331 13.8574 102.802 14.2773 102.398C14.7005 101.995 15.2653 101.793 15.9717 101.793C16.6325 101.793 17.1549 101.967 17.5391 102.315C17.9232 102.66 18.1152 103.121 18.1152 103.697C18.1152 104.397 17.6693 105.23 16.7773 106.197L14.873 108.263H18.4424V109Z" fill="#A6A3B8"/>
<path d="M4.4043 138.612H5.39062V139.35H4.4043V141H3.49609V139.35H0.258789V138.817L3.44238 133.891H4.4043V138.612ZM1.28418 138.612H3.49609V135.126L3.38867 135.321L1.28418 138.612ZM10.0195 138.612H11.0059V139.35H10.0195V141H9.11133V139.35H5.87402V138.817L9.05762 133.891H10.0195V138.612ZM6.89941 138.612H9.11133V135.126L9.00391 135.321L6.89941 138.612ZM11.8848 142.416L11.3721 142.064C11.6781 141.638 11.8376 141.199 11.8506 140.746V139.931H12.7344V140.639C12.7344 140.967 12.653 141.296 12.4902 141.625C12.3307 141.954 12.1289 142.217 11.8848 142.416ZM16.7529 141H15.8447V134.979L14.0234 135.648V134.828L16.6113 133.856H16.7529V141Z" fill="#A6A3B8"/>
<path d="M4.4043 170.612H5.39062V171.35H4.4043V173H3.49609V171.35H0.258789V170.817L3.44238 165.891H4.4043V170.612ZM1.28418 170.612H3.49609V167.126L3.38867 167.321L1.28418 170.612ZM10.0195 170.612H11.0059V171.35H10.0195V173H9.11133V171.35H5.87402V170.817L9.05762 165.891H10.0195V170.612ZM6.89941 170.612H9.11133V167.126L9.00391 167.321L6.89941 170.612ZM11.8848 174.416L11.3721 174.064C11.6781 173.638 11.8376 173.199 11.8506 172.746V171.931H12.7344V172.639C12.7344 172.967 12.653 173.296 12.4902 173.625C12.3307 173.954 12.1289 174.217 11.8848 174.416ZM18.2422 169.968C18.2422 171.026 18.0615 171.812 17.7002 172.326C17.3389 172.84 16.7741 173.098 16.0059 173.098C15.2474 173.098 14.6859 172.847 14.3213 172.346C13.9567 171.841 13.7679 171.089 13.7549 170.09V168.884C13.7549 167.839 13.9355 167.062 14.2969 166.555C14.6582 166.047 15.2246 165.793 15.9961 165.793C16.7611 165.793 17.3242 166.039 17.6855 166.53C18.0469 167.019 18.2324 167.774 18.2422 168.796V169.968ZM17.3389 168.732C17.3389 167.967 17.2314 167.411 17.0166 167.062C16.8018 166.711 16.4616 166.535 15.9961 166.535C15.5339 166.535 15.1969 166.709 14.9854 167.058C14.7738 167.406 14.6647 167.941 14.6582 168.664V170.109C14.6582 170.878 14.7689 171.446 14.9902 171.813C15.2148 172.178 15.5534 172.36 16.0059 172.36C16.4518 172.36 16.7822 172.188 16.9971 171.843C17.2152 171.498 17.3291 170.954 17.3389 170.212V168.732Z" fill="#A6A3B8"/>
<path d="M4.4043 202.612H5.39062V203.35H4.4043V205H3.49609V203.35H0.258789V202.817L3.44238 197.891H4.4043V202.612ZM1.28418 202.612H3.49609V199.126L3.38867 199.321L1.28418 202.612ZM7.51953 201.006H8.19824C8.62467 200.999 8.95996 200.887 9.2041 200.669C9.44824 200.451 9.57031 200.156 9.57031 199.785C9.57031 198.952 9.15527 198.535 8.3252 198.535C7.93457 198.535 7.62207 198.647 7.3877 198.872C7.15658 199.093 7.04102 199.388 7.04102 199.756H6.1377C6.1377 199.193 6.34277 198.726 6.75293 198.354C7.16634 197.98 7.69043 197.793 8.3252 197.793C8.99577 197.793 9.52148 197.97 9.90234 198.325C10.2832 198.68 10.4736 199.173 10.4736 199.805C10.4736 200.114 10.3727 200.413 10.1709 200.703C9.97233 200.993 9.70052 201.209 9.35547 201.353C9.74609 201.476 10.0472 201.681 10.2588 201.968C10.4736 202.254 10.5811 202.604 10.5811 203.018C10.5811 203.656 10.3727 204.162 9.95605 204.536C9.53939 204.91 8.9974 205.098 8.33008 205.098C7.66276 205.098 7.11914 204.917 6.69922 204.556C6.28255 204.194 6.07422 203.717 6.07422 203.125H6.98242C6.98242 203.499 7.10449 203.799 7.34863 204.023C7.59277 204.248 7.91992 204.36 8.33008 204.36C8.76628 204.36 9.09993 204.246 9.33105 204.019C9.56217 203.791 9.67773 203.464 9.67773 203.037C9.67773 202.624 9.55078 202.306 9.29688 202.085C9.04297 201.864 8.67676 201.75 8.19824 201.743H7.51953V201.006ZM11.8848 206.416L11.3721 206.064C11.6781 205.638 11.8376 205.199 11.8506 204.746V203.931H12.7344V204.639C12.7344 204.967 12.653 205.296 12.4902 205.625C12.3307 205.954 12.1289 206.217 11.8848 206.416ZM17.2461 201.875C17.0573 202.1 16.8311 202.28 16.5674 202.417C16.307 202.554 16.0205 202.622 15.708 202.622C15.2979 202.622 14.9398 202.521 14.6338 202.319C14.3311 202.118 14.0967 201.834 13.9307 201.47C13.7646 201.102 13.6816 200.697 13.6816 200.254C13.6816 199.779 13.7712 199.351 13.9502 198.97C14.1325 198.589 14.3896 198.298 14.7217 198.096C15.0537 197.894 15.4411 197.793 15.8838 197.793C16.5869 197.793 17.1403 198.057 17.5439 198.584C17.9508 199.108 18.1543 199.824 18.1543 200.732V200.996C18.1543 202.38 17.8809 203.39 17.334 204.028C16.7871 204.663 15.9619 204.989 14.8584 205.005H14.6826V204.243H14.873C15.6185 204.23 16.1914 204.036 16.5918 203.662C16.9922 203.285 17.2103 202.689 17.2461 201.875ZM15.8545 201.875C16.1572 201.875 16.4355 201.782 16.6895 201.597C16.9466 201.411 17.1338 201.182 17.251 200.908V200.547C17.251 199.954 17.1224 199.473 16.8652 199.102C16.6081 198.73 16.2826 198.545 15.8887 198.545C15.4915 198.545 15.1725 198.698 14.9316 199.004C14.6908 199.307 14.5703 199.707 14.5703 200.205C14.5703 200.69 14.6859 201.09 14.917 201.406C15.1514 201.719 15.4639 201.875 15.8545 201.875Z" fill="#A6A3B8"/>
<path d="M4.4043 234.612H5.39062V235.35H4.4043V237H3.49609V235.35H0.258789V234.817L3.44238 229.891H4.4043V234.612ZM1.28418 234.612H3.49609V231.126L3.38867 231.321L1.28418 234.612ZM7.51953 233.006H8.19824C8.62467 232.999 8.95996 232.887 9.2041 232.669C9.44824 232.451 9.57031 232.156 9.57031 231.785C9.57031 230.952 9.15527 230.535 8.3252 230.535C7.93457 230.535 7.62207 230.647 7.3877 230.872C7.15658 231.093 7.04102 231.388 7.04102 231.756H6.1377C6.1377 231.193 6.34277 230.726 6.75293 230.354C7.16634 229.98 7.69043 229.793 8.3252 229.793C8.99577 229.793 9.52148 229.97 9.90234 230.325C10.2832 230.68 10.4736 231.173 10.4736 231.805C10.4736 232.114 10.3727 232.413 10.1709 232.703C9.97233 232.993 9.70052 233.209 9.35547 233.353C9.74609 233.476 10.0472 233.681 10.2588 233.968C10.4736 234.254 10.5811 234.604 10.5811 235.018C10.5811 235.656 10.3727 236.162 9.95605 236.536C9.53939 236.91 8.9974 237.098 8.33008 237.098C7.66276 237.098 7.11914 236.917 6.69922 236.556C6.28255 236.194 6.07422 235.717 6.07422 235.125H6.98242C6.98242 235.499 7.10449 235.799 7.34863 236.023C7.59277 236.248 7.91992 236.36 8.33008 236.36C8.76628 236.36 9.09993 236.246 9.33105 236.019C9.56217 235.791 9.67773 235.464 9.67773 235.037C9.67773 234.624 9.55078 234.306 9.29688 234.085C9.04297 233.864 8.67676 233.75 8.19824 233.743H7.51953V233.006ZM11.8848 238.416L11.3721 238.064C11.6781 237.638 11.8376 237.199 11.8506 236.746V235.931H12.7344V236.639C12.7344 236.967 12.653 237.296 12.4902 237.625C12.3307 237.954 12.1289 238.217 11.8848 238.416ZM18.0957 231.746C18.0957 232.101 18.0013 232.417 17.8125 232.693C17.627 232.97 17.3747 233.187 17.0557 233.343C17.4268 233.502 17.7197 233.735 17.9346 234.041C18.1527 234.347 18.2617 234.694 18.2617 235.081C18.2617 235.696 18.0534 236.186 17.6367 236.551C17.2233 236.915 16.6781 237.098 16.001 237.098C15.3174 237.098 14.7689 236.915 14.3555 236.551C13.9453 236.183 13.7402 235.693 13.7402 235.081C13.7402 234.697 13.8444 234.35 14.0527 234.041C14.2643 233.732 14.5557 233.497 14.9268 233.338C14.611 233.182 14.362 232.965 14.1797 232.688C13.9974 232.412 13.9062 232.098 13.9062 231.746C13.9062 231.147 14.0983 230.672 14.4824 230.32C14.8665 229.969 15.3727 229.793 16.001 229.793C16.626 229.793 17.1305 229.969 17.5146 230.32C17.902 230.672 18.0957 231.147 18.0957 231.746ZM17.3584 235.062C17.3584 234.664 17.2314 234.34 16.9775 234.09C16.7269 233.839 16.3981 233.714 15.9912 233.714C15.5843 233.714 15.2572 233.838 15.0098 234.085C14.7656 234.332 14.6436 234.658 14.6436 235.062C14.6436 235.465 14.7624 235.783 15 236.014C15.2409 236.245 15.5745 236.36 16.001 236.36C16.4242 236.36 16.7562 236.245 16.9971 236.014C17.238 235.779 17.3584 235.462 17.3584 235.062ZM16.001 230.535C15.6462 230.535 15.3581 230.646 15.1367 230.867C14.9186 231.085 14.8096 231.383 14.8096 231.761C14.8096 232.122 14.917 232.415 15.1318 232.64C15.3499 232.861 15.6396 232.972 16.001 232.972C16.3623 232.972 16.6504 232.861 16.8652 232.64C17.0833 232.415 17.1924 232.122 17.1924 231.761C17.1924 231.399 17.0801 231.105 16.8555 230.877C16.6309 230.649 16.346 230.535 16.001 230.535Z" fill="#A6A3B8"/>
</g>
<g clip-path="url(#clip1_2_3733)">
<path d="M39.5596 262H38.6514V255.979L36.8301 256.648V255.828L39.418 254.856H39.5596V262ZM46.0195 259.612H47.0059V260.35H46.0195V262H45.1113V260.35H41.874V259.817L45.0576 254.891H46.0195V259.612ZM42.8994 259.612H45.1113V256.126L45.0039 256.321L42.8994 259.612ZM47.8848 261.526C47.8848 261.37 47.9303 261.24 48.0215 261.136C48.1159 261.032 48.2559 260.979 48.4414 260.979C48.627 260.979 48.7669 261.032 48.8613 261.136C48.959 261.24 49.0078 261.37 49.0078 261.526C49.0078 261.676 48.959 261.801 48.8613 261.902C48.7669 262.003 48.627 262.054 48.4414 262.054C48.2559 262.054 48.1159 262.003 48.0215 261.902C47.9303 261.801 47.8848 261.676 47.8848 261.526ZM47.8896 257.215C47.8896 257.059 47.9352 256.928 48.0264 256.824C48.1208 256.72 48.2607 256.668 48.4463 256.668C48.6318 256.668 48.7718 256.72 48.8662 256.824C48.9639 256.928 49.0127 257.059 49.0127 257.215C49.0127 257.365 48.9639 257.49 48.8662 257.591C48.7718 257.692 48.6318 257.742 48.4463 257.742C48.2607 257.742 48.1208 257.692 48.0264 257.591C47.9352 257.49 47.8896 257.365 47.8896 257.215ZM50.6582 258.436L51.0195 254.891H54.6621V255.726H51.7861L51.5713 257.664C51.9196 257.459 52.3151 257.356 52.7578 257.356C53.4056 257.356 53.9199 257.571 54.3008 258.001C54.6816 258.427 54.8721 259.005 54.8721 259.734C54.8721 260.467 54.6735 261.045 54.2764 261.468C53.8825 261.888 53.3307 262.098 52.6211 262.098C51.9928 262.098 51.4801 261.924 51.083 261.575C50.6859 261.227 50.4596 260.745 50.4043 260.13H51.2588C51.3141 260.537 51.459 260.844 51.6934 261.053C51.9277 261.258 52.237 261.36 52.6211 261.36C53.041 261.36 53.3698 261.217 53.6074 260.931C53.8483 260.644 53.9688 260.249 53.9688 259.744C53.9688 259.269 53.8385 258.888 53.5781 258.602C53.321 258.312 52.9775 258.167 52.5479 258.167C52.154 258.167 51.8447 258.253 51.6201 258.426L51.3809 258.621L50.6582 258.436ZM60.3164 258.968C60.3164 260.026 60.1357 260.812 59.7744 261.326C59.4131 261.84 58.8483 262.098 58.0801 262.098C57.3216 262.098 56.7601 261.847 56.3955 261.346C56.0309 260.841 55.8421 260.089 55.8291 259.09V257.884C55.8291 256.839 56.0098 256.062 56.3711 255.555C56.7324 255.047 57.2988 254.793 58.0703 254.793C58.8353 254.793 59.3984 255.039 59.7598 255.53C60.1211 256.019 60.3066 256.774 60.3164 257.796V258.968ZM59.4131 257.732C59.4131 256.967 59.3057 256.411 59.0908 256.062C58.876 255.711 58.5358 255.535 58.0703 255.535C57.6081 255.535 57.2712 255.709 57.0596 256.058C56.848 256.406 56.7389 256.941 56.7324 257.664V259.109C56.7324 259.878 56.8431 260.446 57.0645 260.813C57.2891 261.178 57.6276 261.36 58.0801 261.36C58.526 261.36 58.8564 261.188 59.0713 260.843C59.2894 260.498 59.4033 259.954 59.4131 259.212V257.732Z" fill="#A6A3B8"/>
</g>
<g clip-path="url(#clip2_2_3733)">
<path d="M94.5596 262H93.6514V255.979L91.8301 256.648V255.828L94.418 254.856H94.5596V262ZM101.518 256.746C101.518 257.101 101.423 257.417 101.234 257.693C101.049 257.97 100.797 258.187 100.478 258.343C100.849 258.502 101.142 258.735 101.356 259.041C101.575 259.347 101.684 259.694 101.684 260.081C101.684 260.696 101.475 261.186 101.059 261.551C100.645 261.915 100.1 262.098 99.4229 262.098C98.7393 262.098 98.1908 261.915 97.7773 261.551C97.3672 261.183 97.1621 260.693 97.1621 260.081C97.1621 259.697 97.2663 259.35 97.4746 259.041C97.6862 258.732 97.9775 258.497 98.3486 258.338C98.0329 258.182 97.7839 257.965 97.6016 257.688C97.4193 257.412 97.3281 257.098 97.3281 256.746C97.3281 256.147 97.5202 255.672 97.9043 255.32C98.2884 254.969 98.7946 254.793 99.4229 254.793C100.048 254.793 100.552 254.969 100.937 255.32C101.324 255.672 101.518 256.147 101.518 256.746ZM100.78 260.062C100.78 259.664 100.653 259.34 100.399 259.09C100.149 258.839 99.82 258.714 99.4131 258.714C99.0062 258.714 98.679 258.838 98.4316 259.085C98.1875 259.332 98.0654 259.658 98.0654 260.062C98.0654 260.465 98.1842 260.783 98.4219 261.014C98.6628 261.245 98.9964 261.36 99.4229 261.36C99.846 261.36 100.178 261.245 100.419 261.014C100.66 260.779 100.78 260.462 100.78 260.062ZM99.4229 255.535C99.068 255.535 98.7799 255.646 98.5586 255.867C98.3405 256.085 98.2314 256.383 98.2314 256.761C98.2314 257.122 98.3389 257.415 98.5537 257.64C98.7718 257.861 99.0615 257.972 99.4229 257.972C99.7842 257.972 100.072 257.861 100.287 257.64C100.505 257.415 100.614 257.122 100.614 256.761C100.614 256.399 100.502 256.105 100.277 255.877C100.053 255.649 99.7679 255.535 99.4229 255.535ZM102.885 261.526C102.885 261.37 102.93 261.24 103.021 261.136C103.116 261.032 103.256 260.979 103.441 260.979C103.627 260.979 103.767 261.032 103.861 261.136C103.959 261.24 104.008 261.37 104.008 261.526C104.008 261.676 103.959 261.801 103.861 261.902C103.767 262.003 103.627 262.054 103.441 262.054C103.256 262.054 103.116 262.003 103.021 261.902C102.93 261.801 102.885 261.676 102.885 261.526ZM102.89 257.215C102.89 257.059 102.935 256.928 103.026 256.824C103.121 256.72 103.261 256.668 103.446 256.668C103.632 256.668 103.772 256.72 103.866 256.824C103.964 256.928 104.013 257.059 104.013 257.215C104.013 257.365 103.964 257.49 103.866 257.591C103.772 257.692 103.632 257.742 103.446 257.742C103.261 257.742 103.121 257.692 103.026 257.591C102.935 257.49 102.89 257.365 102.89 257.215ZM109.057 259.612H110.043V260.35H109.057V262H108.148V260.35H104.911V259.817L108.095 254.891H109.057V259.612ZM105.937 259.612H108.148V256.126L108.041 256.321L105.937 259.612ZM115.316 258.968C115.316 260.026 115.136 260.812 114.774 261.326C114.413 261.84 113.848 262.098 113.08 262.098C112.322 262.098 111.76 261.847 111.396 261.346C111.031 260.841 110.842 260.089 110.829 259.09V257.884C110.829 256.839 111.01 256.062 111.371 255.555C111.732 255.047 112.299 254.793 113.07 254.793C113.835 254.793 114.398 255.039 114.76 255.53C115.121 256.019 115.307 256.774 115.316 257.796V258.968ZM114.413 257.732C114.413 256.967 114.306 256.411 114.091 256.062C113.876 255.711 113.536 255.535 113.07 255.535C112.608 255.535 112.271 255.709 112.06 256.058C111.848 256.406 111.739 256.941 111.732 257.664V259.109C111.732 259.878 111.843 260.446 112.064 260.813C112.289 261.178 112.628 261.36 113.08 261.36C113.526 261.36 113.856 261.188 114.071 260.843C114.289 260.498 114.403 259.954 114.413 259.212V257.732Z" fill="#A6A3B8"/>
</g>
<g clip-path="url(#clip3_2_3733)">
<path d="M152.249 262H147.591V261.351L150.052 258.616C150.416 258.203 150.667 257.868 150.804 257.61C150.944 257.35 151.014 257.081 151.014 256.805C151.014 256.434 150.901 256.129 150.677 255.892C150.452 255.654 150.153 255.535 149.778 255.535C149.329 255.535 148.979 255.664 148.729 255.921C148.481 256.175 148.357 256.53 148.357 256.985H147.454C147.454 256.331 147.664 255.802 148.084 255.398C148.507 254.995 149.072 254.793 149.778 254.793C150.439 254.793 150.962 254.967 151.346 255.315C151.73 255.66 151.922 256.121 151.922 256.697C151.922 257.397 151.476 258.23 150.584 259.197L148.68 261.263H152.249V262ZM157.864 262H153.206V261.351L155.667 258.616C156.032 258.203 156.282 257.868 156.419 257.61C156.559 257.35 156.629 257.081 156.629 256.805C156.629 256.434 156.517 256.129 156.292 255.892C156.067 255.654 155.768 255.535 155.394 255.535C154.944 255.535 154.594 255.664 154.344 255.921C154.096 256.175 153.973 256.53 153.973 256.985H153.069C153.069 256.331 153.279 255.802 153.699 255.398C154.122 254.995 154.687 254.793 155.394 254.793C156.054 254.793 156.577 254.967 156.961 255.315C157.345 255.66 157.537 256.121 157.537 256.697C157.537 257.397 157.091 258.23 156.199 259.197L154.295 261.263H157.864V262ZM158.885 261.526C158.885 261.37 158.93 261.24 159.021 261.136C159.116 261.032 159.256 260.979 159.441 260.979C159.627 260.979 159.767 261.032 159.861 261.136C159.959 261.24 160.008 261.37 160.008 261.526C160.008 261.676 159.959 261.801 159.861 261.902C159.767 262.003 159.627 262.054 159.441 262.054C159.256 262.054 159.116 262.003 159.021 261.902C158.93 261.801 158.885 261.676 158.885 261.526ZM158.89 257.215C158.89 257.059 158.935 256.928 159.026 256.824C159.121 256.72 159.261 256.668 159.446 256.668C159.632 256.668 159.772 256.72 159.866 256.824C159.964 256.928 160.013 257.059 160.013 257.215C160.013 257.365 159.964 257.49 159.866 257.591C159.772 257.692 159.632 257.742 159.446 257.742C159.261 257.742 159.121 257.692 159.026 257.591C158.935 257.49 158.89 257.365 158.89 257.215ZM162.557 258.006H163.235C163.662 257.999 163.997 257.887 164.241 257.669C164.485 257.451 164.607 257.156 164.607 256.785C164.607 255.952 164.192 255.535 163.362 255.535C162.972 255.535 162.659 255.647 162.425 255.872C162.194 256.093 162.078 256.388 162.078 256.756H161.175C161.175 256.193 161.38 255.726 161.79 255.354C162.203 254.98 162.728 254.793 163.362 254.793C164.033 254.793 164.559 254.97 164.939 255.325C165.32 255.68 165.511 256.173 165.511 256.805C165.511 257.114 165.41 257.413 165.208 257.703C165.009 257.993 164.738 258.209 164.393 258.353C164.783 258.476 165.084 258.681 165.296 258.968C165.511 259.254 165.618 259.604 165.618 260.018C165.618 260.656 165.41 261.162 164.993 261.536C164.576 261.91 164.035 262.098 163.367 262.098C162.7 262.098 162.156 261.917 161.736 261.556C161.32 261.194 161.111 260.717 161.111 260.125H162.02C162.02 260.499 162.142 260.799 162.386 261.023C162.63 261.248 162.957 261.36 163.367 261.36C163.803 261.36 164.137 261.246 164.368 261.019C164.599 260.791 164.715 260.464 164.715 260.037C164.715 259.624 164.588 259.306 164.334 259.085C164.08 258.864 163.714 258.75 163.235 258.743H162.557V258.006ZM169.827 262H168.919V255.979L167.098 256.648V255.828L169.686 254.856H169.827V262Z" fill="#A6A3B8"/>
</g>
<g clip-path="url(#clip4_2_3733)">
<path d="M207.049 258.968C207.049 260.026 206.868 260.812 206.507 261.326C206.146 261.84 205.581 262.098 204.812 262.098C204.054 262.098 203.493 261.847 203.128 261.346C202.763 260.841 202.575 260.089 202.562 259.09V257.884C202.562 256.839 202.742 256.062 203.104 255.555C203.465 255.047 204.031 254.793 204.803 254.793C205.568 254.793 206.131 255.039 206.492 255.53C206.854 256.019 207.039 256.774 207.049 257.796V258.968ZM206.146 257.732C206.146 256.967 206.038 256.411 205.823 256.062C205.608 255.711 205.268 255.535 204.803 255.535C204.34 255.535 204.004 255.709 203.792 256.058C203.58 256.406 203.471 256.941 203.465 257.664V259.109C203.465 259.878 203.576 260.446 203.797 260.813C204.021 261.178 204.36 261.36 204.812 261.36C205.258 261.36 205.589 261.188 205.804 260.843C206.022 260.498 206.136 259.954 206.146 259.212V257.732ZM212.864 262H208.206V261.351L210.667 258.616C211.032 258.203 211.282 257.868 211.419 257.61C211.559 257.35 211.629 257.081 211.629 256.805C211.629 256.434 211.517 256.129 211.292 255.892C211.067 255.654 210.768 255.535 210.394 255.535C209.944 255.535 209.594 255.664 209.344 255.921C209.096 256.175 208.973 256.53 208.973 256.985H208.069C208.069 256.331 208.279 255.802 208.699 255.398C209.122 254.995 209.687 254.793 210.394 254.793C211.054 254.793 211.577 254.967 211.961 255.315C212.345 255.66 212.537 256.121 212.537 256.697C212.537 257.397 212.091 258.23 211.199 259.197L209.295 261.263H212.864V262ZM213.885 261.526C213.885 261.37 213.93 261.24 214.021 261.136C214.116 261.032 214.256 260.979 214.441 260.979C214.627 260.979 214.767 261.032 214.861 261.136C214.959 261.24 215.008 261.37 215.008 261.526C215.008 261.676 214.959 261.801 214.861 261.902C214.767 262.003 214.627 262.054 214.441 262.054C214.256 262.054 214.116 262.003 214.021 261.902C213.93 261.801 213.885 261.676 213.885 261.526ZM213.89 257.215C213.89 257.059 213.935 256.928 214.026 256.824C214.121 256.72 214.261 256.668 214.446 256.668C214.632 256.668 214.772 256.72 214.866 256.824C214.964 256.928 215.013 257.059 215.013 257.215C215.013 257.365 214.964 257.49 214.866 257.591C214.772 257.692 214.632 257.742 214.446 257.742C214.261 257.742 214.121 257.692 214.026 257.591C213.935 257.49 213.89 257.365 213.89 257.215ZM220.901 262H216.243V261.351L218.704 258.616C219.069 258.203 219.319 257.868 219.456 257.61C219.596 257.35 219.666 257.081 219.666 256.805C219.666 256.434 219.554 256.129 219.329 255.892C219.104 255.654 218.805 255.535 218.431 255.535C217.981 255.535 217.632 255.664 217.381 255.921C217.133 256.175 217.01 256.53 217.01 256.985H216.106C216.106 256.331 216.316 255.802 216.736 255.398C217.16 254.995 217.724 254.793 218.431 254.793C219.091 254.793 219.614 254.967 219.998 255.315C220.382 255.66 220.574 256.121 220.574 256.697C220.574 257.397 220.128 258.23 219.236 259.197L217.332 261.263H220.901V262ZM224.827 262H223.919V255.979L222.098 256.648V255.828L224.686 254.856H224.827V262Z" fill="#A6A3B8"/>
</g>
<g clip-path="url(#clip5_2_3733)">
<path d="M262.049 258.968C262.049 260.026 261.868 260.812 261.507 261.326C261.146 261.84 260.581 262.098 259.812 262.098C259.054 262.098 258.493 261.847 258.128 261.346C257.763 260.841 257.575 260.089 257.562 259.09V257.884C257.562 256.839 257.742 256.062 258.104 255.555C258.465 255.047 259.031 254.793 259.803 254.793C260.568 254.793 261.131 255.039 261.492 255.53C261.854 256.019 262.039 256.774 262.049 257.796V258.968ZM261.146 257.732C261.146 256.967 261.038 256.411 260.823 256.062C260.608 255.711 260.268 255.535 259.803 255.535C259.34 255.535 259.004 255.709 258.792 256.058C258.58 256.406 258.471 256.941 258.465 257.664V259.109C258.465 259.878 258.576 260.446 258.797 260.813C259.021 261.178 259.36 261.36 259.812 261.36C260.258 261.36 260.589 261.188 260.804 260.843C261.022 260.498 261.136 259.954 261.146 259.212V257.732ZM266.751 254.886V255.652H266.585C265.882 255.665 265.322 255.874 264.905 256.277C264.489 256.681 264.248 257.249 264.183 257.981C264.557 257.552 265.068 257.337 265.716 257.337C266.334 257.337 266.827 257.555 267.195 257.991C267.566 258.427 267.752 258.991 267.752 259.681C267.752 260.413 267.552 260.999 267.151 261.438C266.754 261.878 266.22 262.098 265.55 262.098C264.869 262.098 264.318 261.837 263.895 261.316C263.471 260.792 263.26 260.118 263.26 259.295V258.948C263.26 257.64 263.538 256.64 264.095 255.95C264.655 255.257 265.486 254.902 266.59 254.886H266.751ZM265.564 258.089C265.255 258.089 264.97 258.182 264.71 258.367C264.45 258.553 264.269 258.785 264.168 259.065V259.397C264.168 259.983 264.3 260.455 264.563 260.813C264.827 261.172 265.156 261.351 265.55 261.351C265.957 261.351 266.276 261.201 266.507 260.901C266.741 260.602 266.858 260.21 266.858 259.725C266.858 259.236 266.74 258.842 266.502 258.543C266.268 258.24 265.955 258.089 265.564 258.089ZM268.885 261.526C268.885 261.37 268.93 261.24 269.021 261.136C269.116 261.032 269.256 260.979 269.441 260.979C269.627 260.979 269.767 261.032 269.861 261.136C269.959 261.24 270.008 261.37 270.008 261.526C270.008 261.676 269.959 261.801 269.861 261.902C269.767 262.003 269.627 262.054 269.441 262.054C269.256 262.054 269.116 262.003 269.021 261.902C268.93 261.801 268.885 261.676 268.885 261.526ZM268.89 257.215C268.89 257.059 268.935 256.928 269.026 256.824C269.121 256.72 269.261 256.668 269.446 256.668C269.632 256.668 269.772 256.72 269.866 256.824C269.964 256.928 270.013 257.059 270.013 257.215C270.013 257.365 269.964 257.49 269.866 257.591C269.772 257.692 269.632 257.742 269.446 257.742C269.261 257.742 269.121 257.692 269.026 257.591C268.935 257.49 268.89 257.365 268.89 257.215ZM274.212 262H273.304V255.979L271.482 256.648V255.828L274.07 254.856H274.212V262ZM281.517 262H276.858V261.351L279.319 258.616C279.684 258.203 279.935 257.868 280.071 257.61C280.211 257.35 280.281 257.081 280.281 256.805C280.281 256.434 280.169 256.129 279.944 255.892C279.72 255.654 279.42 255.535 279.046 255.535C278.597 255.535 278.247 255.664 277.996 255.921C277.749 256.175 277.625 256.53 277.625 256.985H276.722C276.722 256.331 276.932 255.802 277.352 255.398C277.775 254.995 278.34 254.793 279.046 254.793C279.707 254.793 280.229 254.967 280.613 255.315C280.997 255.66 281.189 256.121 281.189 256.697C281.189 257.397 280.743 258.23 279.852 259.197L277.947 261.263H281.517V262Z" fill="#A6A3B8"/>
</g>
<g clip-path="url(#clip6_2_3733)">
<path d="M303.56 262H302.651V255.979L300.83 256.648V255.828L303.418 254.856H303.56V262ZM310.664 258.968C310.664 260.026 310.483 260.812 310.122 261.326C309.761 261.84 309.196 262.098 308.428 262.098C307.669 262.098 307.108 261.847 306.743 261.346C306.379 260.841 306.19 260.089 306.177 259.09V257.884C306.177 256.839 306.357 256.062 306.719 255.555C307.08 255.047 307.646 254.793 308.418 254.793C309.183 254.793 309.746 255.039 310.107 255.53C310.469 256.019 310.654 256.774 310.664 257.796V258.968ZM309.761 257.732C309.761 256.967 309.653 256.411 309.438 256.062C309.224 255.711 308.883 255.535 308.418 255.535C307.956 255.535 307.619 255.709 307.407 256.058C307.196 256.406 307.087 256.941 307.08 257.664V259.109C307.08 259.878 307.191 260.446 307.412 260.813C307.637 261.178 307.975 261.36 308.428 261.36C308.874 261.36 309.204 261.188 309.419 260.843C309.637 260.498 309.751 259.954 309.761 259.212V257.732ZM311.885 261.526C311.885 261.37 311.93 261.24 312.021 261.136C312.116 261.032 312.256 260.979 312.441 260.979C312.627 260.979 312.767 261.032 312.861 261.136C312.959 261.24 313.008 261.37 313.008 261.526C313.008 261.676 312.959 261.801 312.861 261.902C312.767 262.003 312.627 262.054 312.441 262.054C312.256 262.054 312.116 262.003 312.021 261.902C311.93 261.801 311.885 261.676 311.885 261.526ZM311.89 257.215C311.89 257.059 311.935 256.928 312.026 256.824C312.121 256.72 312.261 256.668 312.446 256.668C312.632 256.668 312.772 256.72 312.866 256.824C312.964 256.928 313.013 257.059 313.013 257.215C313.013 257.365 312.964 257.49 312.866 257.591C312.772 257.692 312.632 257.742 312.446 257.742C312.261 257.742 312.121 257.692 312.026 257.591C311.935 257.49 311.89 257.365 311.89 257.215ZM315.557 258.006H316.235C316.662 257.999 316.997 257.887 317.241 257.669C317.485 257.451 317.607 257.156 317.607 256.785C317.607 255.952 317.192 255.535 316.362 255.535C315.972 255.535 315.659 255.647 315.425 255.872C315.194 256.093 315.078 256.388 315.078 256.756H314.175C314.175 256.193 314.38 255.726 314.79 255.354C315.203 254.98 315.728 254.793 316.362 254.793C317.033 254.793 317.559 254.97 317.939 255.325C318.32 255.68 318.511 256.173 318.511 256.805C318.511 257.114 318.41 257.413 318.208 257.703C318.009 257.993 317.738 258.209 317.393 258.353C317.783 258.476 318.084 258.681 318.296 258.968C318.511 259.254 318.618 259.604 318.618 260.018C318.618 260.656 318.41 261.162 317.993 261.536C317.576 261.91 317.035 262.098 316.367 262.098C315.7 262.098 315.156 261.917 314.736 261.556C314.32 261.194 314.111 260.717 314.111 260.125H315.02C315.02 260.499 315.142 260.799 315.386 261.023C315.63 261.248 315.957 261.36 316.367 261.36C316.803 261.36 317.137 261.246 317.368 261.019C317.599 260.791 317.715 260.464 317.715 260.037C317.715 259.624 317.588 259.306 317.334 259.085C317.08 258.864 316.714 258.75 316.235 258.743H315.557V258.006ZM324.316 258.968C324.316 260.026 324.136 260.812 323.774 261.326C323.413 261.84 322.848 262.098 322.08 262.098C321.322 262.098 320.76 261.847 320.396 261.346C320.031 260.841 319.842 260.089 319.829 259.09V257.884C319.829 256.839 320.01 256.062 320.371 255.555C320.732 255.047 321.299 254.793 322.07 254.793C322.835 254.793 323.398 255.039 323.76 255.53C324.121 256.019 324.307 256.774 324.316 257.796V258.968ZM323.413 257.732C323.413 256.967 323.306 256.411 323.091 256.062C322.876 255.711 322.536 255.535 322.07 255.535C321.608 255.535 321.271 255.709 321.06 256.058C320.848 256.406 320.739 256.941 320.732 257.664V259.109C320.732 259.878 320.843 260.446 321.064 260.813C321.289 261.178 321.628 261.36 322.08 261.36C322.526 261.36 322.856 261.188 323.071 260.843C323.289 260.498 323.403 259.954 323.413 259.212V257.732Z" fill="#A6A3B8"/>
</g>
<rect opacity="0.051" x="31.5181" y="96.222" width="283.188" height="0.922" fill="white"/>
<rect opacity="0.051" x="31.5181" y="43.715" width="283.188" height="0.922" fill="white"/>
<rect opacity="0.051" x="31.5181" y="148.729" width="283.188" height="0.922" fill="white"/>
<rect opacity="0.051" x="31.5181" y="201.236" width="283.188" height="0.922" fill="white"/>
<rect opacity="0.051" x="117" width="1" height="244" fill="white"/>
<rect opacity="0.051" x="61" width="1" height="244" fill="white"/>
<rect opacity="0.051" x="173" width="1" height="244" fill="white"/>
<rect opacity="0.051" x="229" width="1" height="244" fill="white"/>
<rect opacity="0.051" x="285" width="1" height="244" fill="white"/>
<rect x="104.912" y="81.157" width="5.31" height="51.602" fill="#FE8270"/>
<rect x="107.036" y="73.01" width="1.062" height="144.847" fill="#FE8270"/>
<rect x="115.532" y="142.718" width="5.31" height="33.496" fill="#FE8270"/>
<rect x="117.656" y="135.475" width="1.062" height="82.382" fill="#FE8270"/>
<rect x="126.152" y="113.748" width="5.31" height="33.496" fill="#4DE0D9"/>
<rect x="128.276" y="91.116" width="1.062" height="81.476" fill="#4DE0D9"/>
<rect x="136.772" y="105.6" width="5.31" height="21.727" fill="#4DE0D9"/>
<rect x="138.896" y="92.021" width="1.062" height="60.655" fill="#4DE0D9"/>
<rect x="147.393" y="133.664" width="5.31" height="24.443" fill="#FE8270"/>
<rect x="149.517" y="120.085" width="1.062" height="66.086" fill="#FE8270"/>
<rect x="158.013" y="98.358" width="5.31" height="42.549" fill="#FE8270"/>
<rect x="160.137" y="49.472" width="1.062" height="95.961" fill="#FE8270"/>
<rect x="168.633" y="51.283" width="5.31" height="63.37" fill="#4DE0D9"/>
<rect x="170.757" y="21.408" width="1.062" height="197.353" fill="#4DE0D9"/>
<rect x="179.253" y="87.494" width="5.31" height="109.54" fill="#FE8270"/>
<rect x="181.377" y="76.631" width="1.062" height="141.225" fill="#FE8270"/>
<rect x="189.873" y="184.361" width="5.31" height="27.159" fill="#4DE0D9"/>
<rect x="191.997" y="170.781" width="1.062" height="55.223" fill="#4DE0D9"/>
<rect x="200.493" y="149.96" width="5.31" height="47.98" fill="#4DE0D9"/>
<rect x="202.617" y="111.937" width="1.062" height="106.824" fill="#4DE0D9"/>
<rect x="211.113" y="125.517" width="5.31" height="27.159" fill="#4DE0D9"/>
<rect x="213.237" y="64.862" width="1.062" height="92.34" fill="#4DE0D9"/>
<rect x="221.733" y="143.622" width="5.31" height="9.958" fill="#FE8270"/>
<rect x="223.857" y="130.043" width="1.062" height="47.98" fill="#FE8270"/>
<rect x="51.812" y="142.718" width="5.31" height="28.064" fill="#FE8270"/>
<rect x="53.936" y="100.168" width="1.062" height="91.434" fill="#FE8270"/>
<rect x="62.4321" y="134.57" width="5.31" height="27.159" fill="#4DE0D9"/>
<rect x="64.5562" y="120.99" width="1.062" height="56.128" fill="#4DE0D9"/>
<rect x="73.0522" y="74.82" width="5.31" height="32.59" fill="#4DE0D9"/>
<rect x="75.1758" y="63.957" width="1.062" height="78.76" fill="#4DE0D9"/>
<rect x="83.6719" y="35.893" width="5.31" height="64.276" fill="#4DE0D9"/>
<rect x="85.7959" y="17.787" width="1.062" height="92.34" fill="#4DE0D9"/>
<rect x="94.292" y="42.23" width="5.31" height="38.022" fill="#FE8270"/>
<rect x="96.416" y="31.366" width="1.062" height="73.329" fill="#FE8270"/>
<rect x="236.07" y="87.494" width="5.31" height="109.54" fill="#FE8270"/>
<rect x="238.194" y="76.631" width="1.062" height="141.225" fill="#FE8270"/>
<rect x="246.69" y="184.361" width="5.31" height="27.159" fill="#4DE0D9"/>
<rect x="248.814" y="170.781" width="1.062" height="55.223" fill="#4DE0D9"/>
<rect x="257.31" y="149.96" width="5.31" height="47.98" fill="#4DE0D9"/>
<rect x="259.434" y="111.937" width="1.062" height="106.824" fill="#4DE0D9"/>
<rect x="267.93" y="125.517" width="5.31" height="27.159" fill="#4DE0D9"/>
<rect x="270.054" y="64.862" width="1.062" height="92.34" fill="#4DE0D9"/>
<rect x="278.55" y="143.622" width="5.31" height="9.958" fill="#FE8270"/>
<rect x="280.674" y="130.043" width="1.062" height="47.98" fill="#FE8270"/>
<rect x="289.17" y="142.718" width="5.31" height="28.064" fill="#FE8270"/>
<rect x="291.294" y="109.222" width="1.062" height="91.434" fill="#FE8270"/>
<path opacity="0.2" d="M309 26H36" stroke="white" stroke-dasharray="2"/>
<rect x="263" y="12" width="52" height="28" rx="14" fill="#9C88FF"/>
<g clip-path="url(#clip7_2_3733)">
<path d="M277.124 27.0566H278.01V28.3081H277.124V30H275.572V28.3081H272.365L272.295 27.3306L275.556 22.1797H277.124V27.0566ZM273.842 27.0566H275.572V24.2959L275.47 24.4731L273.842 27.0566ZM280.427 25.4023H281.254C281.648 25.4023 281.94 25.3039 282.13 25.1069C282.32 24.91 282.415 24.6486 282.415 24.3228C282.415 24.0076 282.32 23.7624 282.13 23.5869C281.944 23.4115 281.686 23.3237 281.356 23.3237C281.059 23.3237 280.81 23.4061 280.61 23.5708C280.409 23.7319 280.309 23.9432 280.309 24.2046H278.757C278.757 23.7964 278.866 23.4312 279.084 23.1089C279.306 22.783 279.614 22.5288 280.008 22.3462C280.406 22.1636 280.843 22.0723 281.319 22.0723C282.146 22.0723 282.794 22.271 283.263 22.6685C283.732 23.0623 283.967 23.6066 283.967 24.3013C283.967 24.6593 283.858 24.9888 283.639 25.2896C283.421 25.5903 283.134 25.8213 282.78 25.9824C283.22 26.14 283.548 26.3763 283.763 26.6914C283.981 27.0065 284.09 27.3789 284.09 27.8086C284.09 28.5033 283.836 29.0601 283.328 29.479C282.823 29.8979 282.153 30.1074 281.319 30.1074C280.538 30.1074 279.899 29.9015 279.401 29.4897C278.907 29.078 278.66 28.5337 278.66 27.8569H280.212C280.212 28.1506 280.322 28.3905 280.54 28.5767C280.762 28.7629 281.034 28.856 281.356 28.856C281.725 28.856 282.014 28.7593 282.221 28.5659C282.432 28.369 282.538 28.1094 282.538 27.7871C282.538 27.0065 282.108 26.6162 281.249 26.6162H280.427V25.4023ZM285.632 31.9604L284.821 31.5361L285.014 31.187C285.254 30.7502 285.378 30.3151 285.385 29.8818V28.6787H286.695L286.69 29.7529C286.686 30.1504 286.586 30.5514 286.389 30.9561C286.192 31.3607 285.94 31.6955 285.632 31.9604ZM292.947 24.2583C292.947 24.6379 292.852 24.9744 292.663 25.2681C292.473 25.5617 292.211 25.7962 291.878 25.9717C292.258 26.1543 292.559 26.4067 292.781 26.729C293.003 27.0477 293.114 27.4237 293.114 27.8569C293.114 28.5516 292.877 29.1012 292.405 29.5059C291.932 29.9069 291.289 30.1074 290.477 30.1074C289.664 30.1074 289.019 29.9051 288.543 29.5005C288.067 29.0959 287.829 28.548 287.829 27.8569C287.829 27.4237 287.94 27.0459 288.162 26.7236C288.384 26.4014 288.683 26.1507 289.059 25.9717C288.726 25.7962 288.464 25.5617 288.274 25.2681C288.088 24.9744 287.995 24.6379 287.995 24.2583C287.995 23.5923 288.217 23.0623 288.661 22.6685C289.105 22.271 289.708 22.0723 290.471 22.0723C291.23 22.0723 291.832 22.2692 292.276 22.6631C292.723 23.0534 292.947 23.5851 292.947 24.2583ZM291.556 27.7441C291.556 27.404 291.458 27.1318 291.261 26.9277C291.064 26.7236 290.799 26.6216 290.466 26.6216C290.136 26.6216 289.873 26.7236 289.676 26.9277C289.479 27.1283 289.381 27.4004 289.381 27.7441C289.381 28.0771 289.478 28.3457 289.671 28.5498C289.864 28.7539 290.133 28.856 290.477 28.856C290.813 28.856 291.076 28.7575 291.266 28.5605C291.459 28.3636 291.556 28.0915 291.556 27.7441ZM291.395 24.3335C291.395 24.0291 291.314 23.7856 291.153 23.603C290.992 23.4168 290.765 23.3237 290.471 23.3237C290.181 23.3237 289.956 23.4132 289.794 23.5923C289.633 23.7713 289.553 24.0184 289.553 24.3335C289.553 24.645 289.633 24.8957 289.794 25.0854C289.956 25.2752 290.183 25.3701 290.477 25.3701C290.77 25.3701 290.996 25.2752 291.153 25.0854C291.314 24.8957 291.395 24.645 291.395 24.3335ZM298.377 22.0991V23.3774H298.227C297.525 23.3882 296.959 23.5708 296.53 23.9253C296.104 24.2798 295.848 24.7721 295.762 25.4023C296.177 24.9798 296.702 24.7686 297.335 24.7686C298.016 24.7686 298.556 25.012 298.958 25.499C299.359 25.986 299.559 26.627 299.559 27.4219C299.559 27.9303 299.448 28.3905 299.226 28.8022C299.008 29.214 298.696 29.5345 298.292 29.7637C297.89 29.9928 297.436 30.1074 296.927 30.1074C296.104 30.1074 295.438 29.821 294.929 29.248C294.424 28.6751 294.172 27.9106 294.172 26.9546V26.396C294.172 25.5474 294.331 24.799 294.65 24.1509C294.972 23.4992 295.432 22.9961 296.03 22.6416C296.632 22.2835 297.328 22.1027 298.12 22.0991H298.377ZM296.863 26.0146C296.612 26.0146 296.385 26.0809 296.181 26.2134C295.977 26.3423 295.826 26.5142 295.729 26.729V27.2017C295.729 27.7209 295.832 28.1273 296.036 28.4209C296.24 28.7109 296.526 28.856 296.895 28.856C297.228 28.856 297.497 28.7253 297.701 28.4639C297.908 28.1989 298.012 27.8569 298.012 27.438C298.012 27.0119 297.908 26.6681 297.701 26.4067C297.493 26.1453 297.214 26.0146 296.863 26.0146Z" fill="white"/>
</g>
<defs>
<clipPath id="clip0_2_3733">
<rect width="19" height="235" fill="white" transform="translate(0 4)"/>
</clipPath>
<clipPath id="clip1_2_3733">
<rect width="25" height="11" fill="white" transform="translate(36 253)"/>
</clipPath>
<clipPath id="clip2_2_3733">
<rect width="25" height="11" fill="white" transform="translate(91 253)"/>
</clipPath>
<clipPath id="clip3_2_3733">
<rect width="25" height="11" fill="white" transform="translate(147 253)"/>
</clipPath>
<clipPath id="clip4_2_3733">
<rect width="25" height="11" fill="white" transform="translate(202 253)"/>
</clipPath>
<clipPath id="clip5_2_3733">
<rect width="25" height="11" fill="white" transform="translate(257 253)"/>
</clipPath>
<clipPath id="clip6_2_3733">
<rect width="25" height="11" fill="white" transform="translate(300 253)"/>
</clipPath>
<clipPath id="clip7_2_3733">
<rect width="28" height="13" fill="white" transform="translate(272 20)"/>
</clipPath>
</defs>
</svg>
