<svg width="184" height="190" viewBox="0 0 184 190" fill="none" xmlns="http://www.w3.org/2000/svg">
<circle cx="91.6209" cy="101.349" r="82.91" fill="white"/>
<circle cx="91.6209" cy="101.349" r="83.41" stroke="white"/>
<path d="M91.6209 18.439C137.411 18.439 174.531 55.5591 174.531 101.349C174.531 147.139 137.411 184.259 91.6209 184.259C45.831 184.259 8.71094 147.139 8.71094 101.349C8.71094 55.5591 45.831 18.439 91.6209 18.439Z" fill="url(#paint0_linear_1_1789)"/>
<mask id="mask0_1_1789" style="mask-type:luminance" maskUnits="userSpaceOnUse" x="8" y="18" width="167" height="167">
<path fill-rule="evenodd" clip-rule="evenodd" d="M91.6209 18.439C137.411 18.439 174.531 55.5591 174.531 101.349C174.531 147.139 137.411 184.259 91.6209 184.259C45.831 184.259 8.71094 147.139 8.71094 101.349C8.71094 55.5591 45.831 18.439 91.6209 18.439Z" fill="white"/>
</mask>
<g mask="url(#mask0_1_1789)">
<circle opacity="0.21" cx="132.656" cy="170.228" r="66.328" fill="url(#paint1_linear_1_1789)" stroke="white" stroke-width="24"/>
<circle opacity="0.21" cx="45.282" cy="36.935" r="33.802" fill="url(#paint2_linear_1_1789)"/>
<path opacity="0.31" d="M-21.643 44.769C10.387 63.6103 27.403 90.5103 29.405 125.469L29.461 126.53C30.682 152.009 38.536 170.111 53.837 184.145C55.4076 185.586 57.055 186.986 58.779 188.345L59.826 189.16C60.8826 189.971 61.9713 190.771 63.092 191.56L64.224 192.345L65.379 193.123C66.5456 193.898 67.7476 194.665 68.985 195.423L70.236 196.179L70.871 196.555L72.16 197.303L72.814 197.676L74.142 198.418L74.816 198.787L76.185 199.523L77.585 200.256L78.294 200.621L79.732 201.349L81.199 202.075L81.944 202.437L83.456 203.16L84.998 203.881L86.571 204.601L87.371 204.96L88.991 205.678L90.642 206.396L92.326 207.114L93.18 207.473L94.914 208.191L96.681 208.91L98.481 209.63L100.318 210.351L102.19 211.074L103.139 211.436L105.065 212.162L107.028 212.891L109.028 213.623L111.065 214.358L112.098 214.727L114.193 215.467L116.327 216.211L117.409 216.585L116.994 217.791L114.83 217.041L112.705 216.295L110.619 215.553L108.571 214.814L106.561 214.079L104.588 213.346L102.652 212.616L100.752 211.888L98.888 211.162L97.059 210.437L96.159 210.075L94.381 209.352L92.637 208.629L90.926 207.907L90.083 207.546L88.421 206.823L87.602 206.461L85.988 205.737L84.405 205.012L83.625 204.649L82.088 203.922C81.5806 203.679 81.0783 203.436 80.581 203.193L79.104 202.461C78.6166 202.217 78.1336 201.972 77.655 201.727L76.235 200.99L75.535 200.62L74.156 199.878L72.804 199.132L72.138 198.757L70.826 198.004C70.3926 197.752 69.964 197.5 69.54 197.247L68.279 196.484C67.2383 195.847 66.223 195.203 65.233 194.553L64.048 193.769L63.468 193.375L62.325 192.582L61.204 191.782C60.2793 191.115 59.3766 190.437 58.496 189.748L57.449 188.92C57.2763 188.781 57.1043 188.642 56.933 188.503L55.915 187.662C54.907 186.817 53.9263 185.957 52.973 185.082C37.599 170.982 29.613 152.828 28.232 127.506L28.185 126.588C26.5243 91.922 10.0176 65.2043 -21.335 46.435L-22.29 45.869L-21.643 44.769Z" fill="url(#paint3_linear_1_1789)"/>
<path opacity="0.31" d="M-31.8471 44.769C0.182858 63.6103 17.1989 90.5103 19.2009 125.469L19.2569 126.53C20.4779 152.009 28.3319 170.111 43.6329 184.145C45.2035 185.586 46.8509 186.986 48.5749 188.345L49.6219 189.16C50.6785 189.971 51.7672 190.771 52.8879 191.56L54.0199 192.345L55.1749 193.123C56.3415 193.898 57.5435 194.665 58.7809 195.423L60.0319 196.179L60.6669 196.555L61.9559 197.303L62.6099 197.676L63.9379 198.418L64.6119 198.787L65.9809 199.523L67.3809 200.256L68.0899 200.621L69.5279 201.349L70.9949 202.075L71.7399 202.437L73.2519 203.16L74.7939 203.881L76.3669 204.601L77.1669 204.96L78.7869 205.678L80.4379 206.396L82.1219 207.114L82.9759 207.473L84.7099 208.191L86.4769 208.91L88.2769 209.63L90.1139 210.351L91.9859 211.074L92.9349 211.436L94.8609 212.162L96.8239 212.891L98.8239 213.623L100.861 214.358L101.894 214.727L103.989 215.467L106.123 216.211L107.205 216.585L106.79 217.791L104.626 217.041L102.501 216.295L100.415 215.553L98.3669 214.814L96.3569 214.079L94.3839 213.346L92.4479 212.616L90.5479 211.888L88.6839 211.162L86.8549 210.437L85.9549 210.075L84.1769 209.352L82.4329 208.629L80.7219 207.907L79.8789 207.546L78.2169 206.823L77.3979 206.461L75.7839 205.737L74.2009 205.012L73.4209 204.649L71.8839 203.922C71.3765 203.679 70.8742 203.436 70.3769 203.193L68.8999 202.461C68.4125 202.217 67.9295 201.972 67.4509 201.727L66.0309 200.99L65.3309 200.62L63.9519 199.878L62.5999 199.132L61.9339 198.757L60.6219 198.004C60.1885 197.752 59.7599 197.5 59.3359 197.247L58.0749 196.484C57.0342 195.847 56.0189 195.203 55.0289 194.553L53.8439 193.769L53.2639 193.375L52.1209 192.582L50.9999 191.782C50.0752 191.115 49.1725 190.437 48.2919 189.748L47.2449 188.92C47.0722 188.781 46.9002 188.642 46.7289 188.503L45.7109 187.662C44.7029 186.817 43.7222 185.957 42.7689 185.082C27.3949 170.982 19.4089 152.828 18.0279 127.506L17.9809 126.588C16.3202 91.922 -0.186474 65.2043 -31.5391 46.435L-32.4941 45.869L-31.8471 44.769Z" fill="url(#paint4_linear_1_1789)"/>
</g>
<path d="M91.239 156.117C77.704 143.579 72.814 111.873 72.814 111.873L104.49 62.579C104.49 62.579 115.337 73.89 119.99 82.384C127.377 95.857 133.872 115.328 134.597 125.457C135.997 145.049 137.764 157.511 142.097 167.121C132.781 174.291 122.042 179.389 110.597 182.074C106.305 174.516 99.331 163.612 91.239 156.117Z" fill="white"/>
<rect x="57.3989" y="10.786" width="63.777" height="119.901" rx="6.244" fill="#E8ECF0"/>
<rect x="59.95" y="13.337" width="58.675" height="114.799" rx="6.244" fill="url(#paint5_linear_1_1789)"/>
<rect opacity="0.44" x="67.604" y="64.358" width="43.368" height="11.48" rx="2" fill="white"/>
<circle opacity="0.44" cx="89.2879" cy="43.95" r="11.48" fill="white"/>
<path d="M111.852 111.431C103.035 95.754 96.5438 93.686 96.5438 93.686C96.5438 93.686 90.9998 96.722 94.0588 105.361C97.1178 114 104.959 121.107 104.959 133.984C104.959 146.861 99.2808 152.046 111.859 162.562C124.437 173.078 127.778 127.651 127.778 127.651C127.778 127.651 120.669 127.107 111.852 111.431Z" fill="url(#paint6_linear_1_1789)"/>
<path d="M120.492 110.97C120.492 110.97 122.163 125.614 113.345 109.937C104.527 94.26 98.037 92.193 98.037 92.193C98.037 92.193 92.493 95.229 95.552 103.868C98.611 112.507 106.452 119.614 106.452 132.491C106.452 145.368 99.9 152.569 112.476 163.085C125.052 173.601 129.276 126.158 129.276 126.158L120.492 110.97Z" fill="white"/>
<path d="M98.0359 92.193C98.0359 92.193 97.0529 94.539 99.9609 97.742C101.45 99.5903 104.048 100.11 106.134 98.978C104.749 97.3304 103.257 95.7753 101.669 94.323C100.589 93.4093 99.3604 92.6887 98.0359 92.193V92.193Z" fill="url(#paint7_linear_1_1789)"/>
<path d="M117.308 119.893L113.4 120.973" stroke="#FE8270" stroke-width="0.78" stroke-linecap="round"/>
<path d="M119.451 120.433L118.501 122.849" stroke="#FE8270" stroke-width="0.78" stroke-linecap="round"/>
<circle cx="120.501" cy="23.999" r="24" fill="url(#paint8_linear_1_1789)"/>
<rect x="109.5" y="18.435" width="20.87" height="20.87" rx="9.739" fill="white"/>
<circle cx="119.935" cy="26.783" r="2.783" fill="url(#paint9_linear_1_1789)"/>
<rect x="118.822" y="28.174" width="2.226" height="5.565" rx="1.113" fill="url(#paint10_linear_1_1789)"/>
<path d="M112.978 27.478V14.957C112.986 11.5221 115.499 8.60693 118.895 8.09325C122.292 7.57956 125.555 9.62109 126.578 12.9" stroke="white" stroke-width="2.226" stroke-linecap="round"/>
<path d="M129.833 15.369L132.491 13.948" stroke="white" stroke-width="1.948" stroke-linecap="round"/>
<path d="M130.706 19.387L133.685 19.877" stroke="white" stroke-width="1.948" stroke-linecap="round"/>
<defs>
<linearGradient id="paint0_linear_1_1789" x1="8.71094" y1="18.439" x2="8.71094" y2="184.259" gradientUnits="userSpaceOnUse">
<stop stop-color="#8DF3ED"/>
<stop offset="1" stop-color="#34D9D1"/>
</linearGradient>
<linearGradient id="paint1_linear_1_1789" x1="66.3279" y1="103.9" x2="66.3279" y2="236.556" gradientUnits="userSpaceOnUse">
<stop stop-color="#8DF3ED"/>
<stop offset="1" stop-color="#34D9D1"/>
</linearGradient>
<linearGradient id="paint2_linear_1_1789" x1="11.48" y1="3.133" x2="11.48" y2="70.737" gradientUnits="userSpaceOnUse">
<stop stop-color="#8DF3ED"/>
<stop offset="1" stop-color="#34D9D1"/>
</linearGradient>
<linearGradient id="paint3_linear_1_1789" x1="-22.29" y1="44.769" x2="-22.29" y2="217.791" gradientUnits="userSpaceOnUse">
<stop stop-color="#8DF3ED"/>
<stop offset="1" stop-color="#34D9D1"/>
</linearGradient>
<linearGradient id="paint4_linear_1_1789" x1="-32.4941" y1="44.769" x2="-32.4941" y2="217.791" gradientUnits="userSpaceOnUse">
<stop stop-color="#8DF3ED"/>
<stop offset="1" stop-color="#34D9D1"/>
</linearGradient>
<linearGradient id="paint5_linear_1_1789" x1="59.95" y1="13.337" x2="59.95" y2="128.136" gradientUnits="userSpaceOnUse">
<stop stop-color="#FAC47F"/>
<stop offset="1" stop-color="#F8A946"/>
</linearGradient>
<linearGradient id="paint6_linear_1_1789" x1="93.1382" y1="93.686" x2="93.1382" y2="164.142" gradientUnits="userSpaceOnUse">
<stop stop-color="#FFD5CF"/>
<stop offset="1" stop-color="#FE8270"/>
</linearGradient>
<linearGradient id="paint7_linear_1_1789" x1="97.876" y1="92.193" x2="97.876" y2="99.5737" gradientUnits="userSpaceOnUse">
<stop stop-color="#FFD5CF"/>
<stop offset="1" stop-color="#FE8270"/>
</linearGradient>
<linearGradient id="paint8_linear_1_1789" x1="96.501" y1="-0.00100708" x2="96.501" y2="47.999" gradientUnits="userSpaceOnUse">
<stop stop-color="#FFD5CF"/>
<stop offset="1" stop-color="#FE8270"/>
</linearGradient>
<linearGradient id="paint9_linear_1_1789" x1="117.152" y1="24" x2="117.152" y2="29.566" gradientUnits="userSpaceOnUse">
<stop stop-color="#FFD5CF"/>
<stop offset="1" stop-color="#FE8270"/>
</linearGradient>
<linearGradient id="paint10_linear_1_1789" x1="118.822" y1="28.174" x2="118.822" y2="33.739" gradientUnits="userSpaceOnUse">
<stop stop-color="#FFD5CF"/>
<stop offset="1" stop-color="#FE8270"/>
</linearGradient>
</defs>
</svg>
