<svg width="207" height="206" viewBox="0 0 207 206" fill="none" xmlns="http://www.w3.org/2000/svg">
<rect x="0.5" width="206" height="206" rx="103" fill="#111319"/>
<path fill-rule="evenodd" clip-rule="evenodd" d="M107.836 170.629C144.882 170.506 174.825 140.396 174.743 103.35C174.661 66.3047 144.584 36.3282 107.538 36.3694C70.4924 36.4107 40.4827 66.4541 40.483 103.5C40.5459 140.636 70.7003 170.69 107.836 170.629Z" stroke="#2A2E38" stroke-width="2" stroke-linecap="round" stroke-linejoin="round" stroke-dasharray="1"/>
<path fill-rule="evenodd" clip-rule="evenodd" d="M50.815 99.512L45.991 96.54H34.672C34.3299 97.6802 33.2617 98.446 32.072 98.404C30.535 98.404 29.289 97.158 29.289 95.621C29.289 94.084 30.535 92.838 32.072 92.838C33.2399 92.8523 34.2762 93.5901 34.672 94.689H46.547L51.371 97.661H75.491V99.512H50.815ZM31.4041 96.4843C31.5812 96.661 31.8252 96.754 32.075 96.74L32.074 96.735C32.3561 96.739 32.6248 96.6152 32.8052 96.3983C32.9856 96.1814 33.0583 95.8946 33.003 95.618C33.0162 95.3683 32.9225 95.1249 32.7455 94.9484C32.5684 94.7719 32.3246 94.679 32.075 94.693C31.519 94.693 31.147 95.071 31.147 95.814C31.1335 96.0638 31.227 96.3076 31.4041 96.4843Z" fill="#F9BA00"/>
<path fill-rule="evenodd" clip-rule="evenodd" d="M75.489 108.049H59.347L53.961 111.751H49.508C49.1659 112.891 48.0977 113.657 46.908 113.615C45.371 113.615 44.125 112.369 44.125 110.832C44.125 109.295 45.371 108.049 46.908 108.049C48.0759 108.063 49.1122 108.801 49.508 109.9H53.408L58.789 106.185H75.489V108.049ZM45.978 111.022C45.9806 111.536 46.3995 111.951 46.914 111.949L46.918 111.946C47.4164 111.909 47.8109 111.51 47.842 111.011C47.8387 110.497 47.4191 110.082 46.9047 110.085C46.3902 110.088 45.9755 110.507 45.978 111.022Z" fill="#F9BA00"/>
<path fill-rule="evenodd" clip-rule="evenodd" d="M58.053 74.654C57.7091 75.7912 56.6401 76.5522 55.453 76.505C54.711 76.5209 53.9946 76.2337 53.469 75.7097C52.9435 75.1856 52.6542 74.47 52.668 73.728C52.7051 72.2078 53.9307 70.9852 55.451 70.952C56.6212 70.9593 57.6611 71.6997 58.051 72.803H81.247V74.654H58.053ZM56.378 73.7317C56.3784 73.2204 55.9643 72.8055 55.453 72.805V72.803C54.896 72.803 54.34 73.168 54.526 73.731C54.526 74.2423 54.9404 74.6568 55.4517 74.657C55.963 74.6572 56.3776 74.2429 56.378 73.7317Z" fill="#F9BA00"/>
<path fill-rule="evenodd" clip-rule="evenodd" d="M46.551 82.814C46.2089 83.9542 45.1406 84.72 43.951 84.678C43.1992 84.7224 42.4644 84.4424 41.9328 83.9089C41.4012 83.3754 41.1239 82.6396 41.171 81.888C41.208 80.3678 42.4337 79.1452 43.954 79.112C45.1219 79.1263 46.1582 79.8641 46.554 80.963H53.791L56.574 86.894H69.374V88.758H55.458L52.675 82.814H46.551ZM44.875 81.8903C44.8757 81.3792 44.4621 80.9641 43.951 80.963C43.391 80.963 42.835 81.341 43.023 81.889C43.023 82.4002 43.4372 82.8146 43.9483 82.815C44.4595 82.8154 44.8743 82.4015 44.875 81.8903Z" fill="#F9BA00"/>
<path fill-rule="evenodd" clip-rule="evenodd" d="M65.66 62.419C65.3116 63.5529 64.2455 64.3119 63.06 64.27C62.3256 64.3126 61.6103 64.0264 61.108 63.4891C60.6056 62.9518 60.3682 62.2188 60.46 61.489C60.4968 59.9661 61.7212 58.7395 63.244 58.7C64.4163 58.7131 65.4553 59.458 65.844 60.564H71.972L78.281 66.864L76.981 68.35L71.044 62.419H65.66ZM63.997 61.2967C63.994 60.7821 63.5746 60.3672 63.06 60.37C62.504 60.37 61.944 60.929 62.133 61.308C62.1363 61.8226 62.5561 62.2371 63.0707 62.234C63.5852 62.2308 63.9999 61.8112 63.997 61.2967Z" fill="#F9BA00"/>
<path fill-rule="evenodd" clip-rule="evenodd" d="M182.928 98.404C181.756 98.3912 180.717 97.6462 180.328 96.54H169.01L164.186 99.512H139.507V97.661H163.626L168.452 94.689H180.328C180.676 93.5551 181.743 92.7961 182.928 92.838C184.465 92.838 185.711 94.084 185.711 95.621C185.711 97.158 184.465 98.404 182.928 98.404ZM182.385 94.7569C182.038 94.9007 181.813 95.239 181.813 95.614V95.618C181.813 96.175 182.369 96.735 182.74 96.54C183.115 96.54 183.453 96.314 183.597 95.9675C183.74 95.621 183.66 95.2222 183.395 94.9572C183.13 94.6921 182.731 94.6131 182.385 94.7569Z" fill="#F9BA00"/>
<path fill-rule="evenodd" clip-rule="evenodd" d="M165.484 111.751H161.031L155.652 108.049H139.503V106.185H156.203L161.584 109.9H165.484C165.832 108.766 166.898 108.007 168.084 108.049C169.621 108.049 170.867 109.295 170.867 110.832C170.867 112.369 169.621 113.615 168.084 113.615C166.912 113.602 165.873 112.857 165.484 111.751ZM167.724 109.967C167.377 110.111 167.152 110.45 167.153 110.826L167.152 110.825C167.138 111.075 167.232 111.319 167.409 111.496C167.587 111.672 167.831 111.765 168.081 111.751C168.457 111.751 168.795 111.525 168.939 111.177C169.082 110.83 169.002 110.431 168.736 110.166C168.47 109.901 168.07 109.822 167.724 109.967Z" fill="#F9BA00"/>
<path fill-rule="evenodd" clip-rule="evenodd" d="M159.546 70.952C161.066 70.9852 162.292 72.2078 162.329 73.728C162.343 74.4693 162.054 75.1843 161.529 75.7082C161.005 76.2321 160.289 76.5198 159.548 76.505C158.378 76.4977 157.338 75.7573 156.948 74.654H133.754V72.803H156.946C157.29 71.6658 158.359 70.9048 159.546 70.952ZM159.903 74.5868C160.249 74.4425 160.475 74.1035 160.474 73.728C160.49 73.4776 160.397 73.2324 160.219 73.0552C160.042 72.8779 159.796 72.7857 159.546 72.802C159.17 72.802 158.832 73.0283 158.688 73.3753C158.545 73.7223 158.625 74.1217 158.891 74.3869C159.156 74.6522 159.556 74.7311 159.903 74.5868Z" fill="#F9BA00"/>
<path fill-rule="evenodd" clip-rule="evenodd" d="M171.049 79.112C172.569 79.1452 173.795 80.3678 173.832 81.888C173.846 82.6307 173.558 83.3474 173.034 83.8736C172.51 84.3997 171.794 84.6901 171.051 84.678C169.879 84.6649 168.84 83.92 168.451 82.814H162.329L159.546 88.758H145.629V86.894H158.429L161.213 80.963H168.449C168.798 79.8293 169.864 79.0704 171.049 79.112ZM171.59 82.7451C171.937 82.6014 172.162 82.263 172.162 81.888H172.163C172.127 81.3913 171.732 80.9966 171.235 80.962C170.86 80.962 170.522 81.188 170.378 81.5345C170.235 81.881 170.315 82.2798 170.58 82.5448C170.845 82.8099 171.244 82.8889 171.59 82.7451Z" fill="#F9BA00"/>
<path fill-rule="evenodd" clip-rule="evenodd" d="M151.939 58.7C153.461 58.74 154.685 59.9665 154.722 61.489C154.759 62.2214 154.471 62.9328 153.935 63.4332C153.399 63.9335 152.669 64.1716 151.941 64.084C150.772 64.072 149.735 63.3334 149.341 62.233H143.96L138.021 68.164L136.721 66.864L143.215 60.564H149.339C149.681 59.4236 150.749 58.6576 151.939 58.7ZM152.481 62.3485C152.828 62.2039 153.053 61.8646 153.052 61.489H153.053C153.066 61.2392 152.972 60.9955 152.795 60.819C152.618 60.6424 152.374 60.5497 152.124 60.564C151.748 60.564 151.41 60.7904 151.266 61.1376C151.123 61.4847 151.203 61.8841 151.469 62.1493C151.735 62.4144 152.135 62.4931 152.481 62.3485Z" fill="#F9BA00"/>
<path d="M107.592 151.82C107.331 151.847 107.069 151.783 106.85 151.638C99.242 147.193 80.873 134.575 74.193 113.98C70.2086 101.218 67.4137 88.1143 65.844 74.837C65.844 74.472 66.029 74.289 66.029 74.094C66.2822 73.8298 66.6033 73.6406 66.957 73.547C70.668 73.365 77.347 70.575 77.533 70.575C81.3716 68.638 85.0894 66.4703 88.666 64.084C94.788 60.184 103.324 54.999 107.406 54.999C111.306 54.999 119.466 60.187 125.406 63.899C129.674 66.493 133.57 69.087 137.096 70.573L137.466 70.755C142.847 72.801 146.001 73.544 148.042 73.544C148.32 73.5893 148.579 73.7163 148.785 73.909C149.062 74.1323 149.14 74.5214 148.97 74.834C147.404 88.1719 144.609 101.337 140.62 114.16C134.311 134.755 115.943 147.19 108.335 151.635C108.116 151.781 107.854 151.846 107.592 151.82Z" fill="url(#paint0_linear_2001_3)"/>
<path opacity="0.2" d="M103.696 77.991C103.712 78.6642 103.361 79.293 102.781 79.6342C102.2 79.9754 101.481 79.9754 100.9 79.6342C100.32 79.293 99.9694 78.6642 99.985 77.991C100.006 77.2676 100.438 76.6198 101.098 76.323V60.743L110.561 51.28C111.118 51.462 111.489 51.658 112.046 51.841L102.583 61.304V76.32C103.294 76.555 103.753 77.2444 103.696 77.991Z" fill="#B07A00"/>
<path opacity="0.2" d="M97.944 120.654C97.9453 121.147 97.7505 121.621 97.4023 121.971C97.0542 122.32 96.5814 122.517 96.088 122.518C95.768 122.547 95.4465 122.483 95.161 122.336L95.346 122.518L86.626 131.418V142.172C86.1479 141.79 85.712 141.357 85.326 140.882V130.858L94.604 121.59C94.4575 121.372 94.3917 121.109 94.418 120.847C94.4207 119.822 95.2488 118.99 96.274 118.983C97.202 118.799 97.944 119.546 97.944 120.654Z" fill="#B07A00"/>
<path opacity="0.2" d="M104.81 126.601C104.806 127.624 103.977 128.451 102.954 128.452H102.584V128.634L96.084 135.134V149.968C95.714 149.603 95.157 149.225 94.784 148.86V134.391L101.649 127.522V127.34C101.464 126.962 101.278 126.779 101.278 126.414C101.277 125.921 101.472 125.447 101.82 125.098C102.168 124.748 102.641 124.551 103.134 124.55C104.048 124.844 104.704 125.647 104.81 126.601Z" fill="#B07A00"/>
<path opacity="0.2" d="M92.563 137.912C92.5459 138.636 92.1125 139.286 91.45 139.58V146.449C91.078 146.071 90.522 145.706 90.15 145.328V139.581C89.4377 139.35 88.9772 138.66 89.037 137.913C89.0409 136.89 89.8704 136.063 90.893 136.062C92.006 136.061 92.563 136.804 92.563 137.912Z" fill="#B07A00"/>
<path opacity="0.2" d="M118.169 150.712C117.241 151.455 116.313 152.012 115.569 152.563V152.198C115.571 151.173 116.399 150.341 117.424 150.334C117.612 150.529 117.979 150.529 118.169 150.712Z" fill="#B07A00"/>
<path opacity="0.2" d="M61.762 72.425C62.0873 71.7388 62.5269 71.1129 63.062 70.574V88.574C62.505 85.42 62.134 82.448 61.762 80.036L61.762 72.425Z" fill="#B07A00"/>
<path opacity="0.2" d="M71.782 113.432C71.7787 114.455 70.9489 115.282 69.926 115.283H69.556C69.184 113.797 68.628 112.311 68.256 111.008L69.184 111.946C69.398 111.79 69.6624 111.718 69.926 111.746C70.4123 111.641 70.9194 111.777 71.2877 112.112C71.656 112.446 71.8401 112.938 71.782 113.432Z" fill="#B07A00"/>
<path opacity="0.2" d="M74.008 99.888C73.9846 100.896 73.1608 101.701 72.1525 101.701C71.1442 101.701 70.3204 100.896 70.297 99.888C70.3163 99.1066 70.844 98.4296 71.597 98.22V95.809C71.783 92.837 71.783 89.683 71.783 86.709V68.161C72.1969 67.9785 72.6346 67.8556 73.083 67.796V86.896C73.083 90.05 72.898 93.022 72.898 96.177C72.9286 96.9851 72.8665 97.794 72.713 98.588C73.0592 98.5816 73.3931 98.7167 73.6375 98.9621C73.8819 99.2074 74.0157 99.5418 74.008 99.888Z" fill="#B07A00"/>
<path opacity="0.2" d="M85.511 60.929V117.513L84.769 117.313C84.113 117.198 83.4525 117.491 83.099 118.056V118.239L76.419 124.926V129.371C75.9177 128.674 75.4824 127.933 75.119 127.155V124.365L82.17 117.313C82.6611 116.55 83.4896 116.07 84.396 116.023V61.668C84.769 61.489 85.141 61.111 85.511 60.929Z" fill="#B07A00"/>
<path opacity="0.2" d="M125.034 118.803C125.034 119.181 125.219 119.364 125.219 119.728L121.879 123.078C121.665 122.922 121.401 122.85 121.137 122.878C120.11 122.881 119.28 123.715 119.281 124.742C119.304 125.75 120.128 126.555 121.137 126.555C122.145 126.555 122.969 125.75 122.992 124.742C123.021 124.48 122.956 124.217 122.807 123.999L126.332 120.467H126.889C127.564 120.489 128.198 120.142 128.543 119.56C128.887 118.978 128.887 118.256 128.543 117.674C128.198 117.092 127.564 116.745 126.889 116.767C125.896 116.975 125.149 117.795 125.034 118.803Z" fill="#B07A00"/>
<path opacity="0.2" d="M143.774 118.438C143.622 118.882 143.436 119.314 143.217 119.729H134.311C134.08 120.443 133.39 120.906 132.641 120.85C131.708 120.868 130.906 120.191 130.768 119.268C130.629 118.344 131.197 117.462 132.095 117.206C132.993 116.949 133.941 117.399 134.311 118.256H143.774V118.438Z" fill="#B07A00"/>
<path opacity="0.2" d="M146.553 110.278C146.368 110.643 146.368 111.204 146.183 111.569H133.753L133.383 111.387C133.012 111.009 131.527 109.536 130.229 108.232C128.559 106.564 127.629 105.638 127.075 105.078C126.889 105.078 126.518 105.26 126.332 105.26C125.31 105.257 124.484 104.427 124.486 103.406C124.488 102.384 125.317 101.557 126.339 101.558C127.36 101.559 128.188 102.387 128.188 103.409C128.216 103.671 128.15 103.934 128.003 104.152C128.373 104.517 129.858 106.003 131.156 107.306C132.213 108.292 133.205 109.345 134.125 110.46H146.553V110.278Z" fill="#B07A00"/>
<path opacity="0.2" d="M123.364 91.534C123.366 92.5593 124.194 93.3914 125.219 93.398C125.483 93.4253 125.748 93.3541 125.962 93.198L132.084 99.324L133.569 100.624C133.383 100.989 133.198 101.171 133.198 101.549C133.202 102.572 134.031 103.399 135.054 103.4C136.063 103.377 136.869 102.552 136.869 101.542C136.869 100.533 136.063 99.7084 135.054 99.685H134.683L133.013 98.395L126.889 92.269C126.889 92.087 127.075 91.904 127.075 91.526C127.052 90.518 126.228 89.7131 125.22 89.7131C124.211 89.7131 123.387 90.518 123.364 91.526L123.364 91.534Z" fill="#B07A00"/>
<path opacity="0.2" d="M134.682 91.534C134.684 92.5593 135.512 93.3914 136.537 93.398C136.744 93.423 136.951 93.3489 137.095 93.198L144.331 100.432C144.099 100.761 143.97 101.151 143.96 101.553C143.964 102.576 144.793 103.403 145.816 103.404C146.825 103.381 147.631 102.556 147.631 101.547C147.631 100.537 146.825 99.7124 145.816 99.689H145.444L138.022 92.272C138.191 91.995 138.256 91.6676 138.208 91.347C138.204 90.3244 137.375 89.4971 136.352 89.496C135.405 89.73 134.725 90.5596 134.682 91.534Z" fill="#B07A00"/>
<path opacity="0.2" d="M152.5 83.375C152.5 83.753 152.314 84.3 152.314 84.675H130.786C130.426 85.2508 129.795 85.6004 129.116 85.6C128.094 85.5984 127.264 84.7714 127.26 83.749C127.228 83.247 127.413 82.7554 127.768 82.3989C128.123 82.0425 128.614 81.8553 129.116 81.885C129.897 81.9067 130.573 82.4332 130.786 83.185H152.5V83.375Z" fill="#B07A00"/>
<path opacity="0.2" d="M150.268 94.871C150.083 95.432 150.083 95.992 149.897 96.357L146.557 93.02H146C145.248 93.0208 144.57 92.5682 144.282 91.8736C143.995 91.1791 144.154 90.3795 144.686 89.8485C145.219 89.3174 146.018 89.1597 146.712 89.4489C147.406 89.7381 147.857 90.4172 147.855 91.169C147.883 91.489 147.818 91.8102 147.67 92.095L150.268 94.871Z" fill="#B07A00"/>
<path opacity="0.2" d="M141.363 124.369C141.155 124.824 140.906 125.259 140.62 125.669H130.043L125.219 130.492L124.849 130.114C125.015 130.392 125.081 130.719 125.034 131.039C125.05 131.712 124.699 132.341 124.119 132.682C123.538 133.023 122.819 133.023 122.238 132.682C121.658 132.341 121.307 131.712 121.323 131.039C121.294 130.539 121.48 130.05 121.834 129.697C122.189 129.343 122.678 129.158 123.178 129.188C123.524 129.192 123.855 129.328 124.106 129.566L129.487 124.366L141.363 124.369Z" fill="#B07A00"/>
<path opacity="0.2" d="M138.95 128.827C138.75 129.326 138.431 129.769 138.022 130.117H130.972L126.148 134.94C126.296 135.158 126.362 135.421 126.334 135.683C126.336 136.434 125.885 137.112 125.192 137.401C124.498 137.69 123.699 137.533 123.167 137.002C122.636 136.472 122.476 135.673 122.763 134.979C123.05 134.285 123.727 133.832 124.478 133.832C124.682 133.807 124.886 133.874 125.035 134.015L130.416 128.632H138.951L138.95 128.827Z" fill="#B07A00"/>
<path opacity="0.2" d="M119.653 141.432C119.649 140.409 118.82 139.582 117.797 139.581C117.297 139.551 116.808 139.736 116.453 140.09C116.099 140.443 115.913 140.932 115.942 141.432V141.81L107.777 149.97C107.558 149.825 107.296 149.761 107.035 149.788C106.013 149.79 105.187 150.62 105.188 151.642C105.189 152.663 106.019 153.491 107.04 153.49C108.062 153.489 108.89 152.661 108.89 151.639C108.914 151.434 108.846 151.229 108.705 151.078L116.684 143.101C116.869 143.301 117.241 143.301 117.612 143.301C118.677 143.309 119.568 142.494 119.653 141.432Z" fill="#B07A00"/>
<path opacity="0.2" d="M119.096 131.981C119.097 131.488 118.902 131.014 118.554 130.665C118.206 130.315 117.733 130.118 117.24 130.117C116.738 130.087 116.247 130.274 115.892 130.631C115.538 130.987 115.353 131.479 115.385 131.981C115.36 132.182 115.428 132.383 115.57 132.528L107.777 140.323C107.558 140.178 107.296 140.114 107.035 140.141C106.013 140.143 105.187 140.973 105.188 141.995C105.189 143.016 106.019 143.844 107.04 143.843C108.062 143.842 108.89 143.014 108.89 141.992C108.914 141.787 108.846 141.582 108.705 141.431L116.499 133.649C116.718 133.794 116.98 133.858 117.241 133.831C117.741 133.861 118.229 133.676 118.584 133.322C118.938 132.969 119.125 132.481 119.096 131.981Z" fill="#B07A00"/>
<path opacity="0.2" d="M108.15 130.3C108.151 130.793 107.957 131.267 107.609 131.616C107.261 131.966 106.788 132.163 106.295 132.164C105.923 132.164 105.738 132.164 105.553 131.982C105.553 132.164 105.367 132.164 105.367 132.347C105.182 132.529 104.997 132.908 104.81 133.09V133.272L101.285 136.809V153.872C100.914 153.494 100.357 153.311 99.985 152.947V136.247L103.885 132.347C104.116 132.17 104.253 131.896 104.256 131.604C104.488 131.394 104.677 131.142 104.813 130.861C104.813 130.679 104.628 130.496 104.628 130.301C104.631 129.278 105.46 128.451 106.483 128.45C106.955 128.457 107.403 128.661 107.72 129.012C108.036 129.363 108.192 129.829 108.15 130.3Z" fill="#B07A00"/>
<path opacity="0.2" d="M101.47 123.626C101.447 122.618 100.623 121.813 99.6145 121.813C98.6063 121.813 97.7824 122.618 97.759 123.626C97.7638 123.97 97.8956 124.3 98.129 124.552L92.192 130.496C91.913 130.33 91.5852 130.265 91.264 130.313C90.5886 130.291 89.9547 130.638 89.6104 131.22C89.2661 131.802 89.2661 132.524 89.6104 133.106C89.9547 133.688 90.5886 134.035 91.264 134.013C91.764 134.043 92.2531 133.858 92.6078 133.504C92.9625 133.151 93.1489 132.662 93.12 132.162C93.12 131.784 93.12 131.601 92.934 131.419L93.12 131.601L98.872 125.853L98.686 125.292C98.872 125.492 99.243 125.492 99.614 125.492C100.64 125.485 101.468 124.652 101.47 123.626Z" fill="#B07A00"/>
<path opacity="0.2" d="M105.366 122.136C105.35 122.809 105.701 123.438 106.281 123.779C106.862 124.12 107.581 124.12 108.162 123.779C108.742 123.438 109.093 122.809 109.077 122.136C109.077 121.771 108.892 121.588 108.892 121.21L114.458 115.644L114.829 115.279L115.014 115.097H115.571C116.597 115.097 117.429 114.265 117.429 113.239C117.429 112.214 116.597 111.382 115.571 111.382C115.071 111.352 114.582 111.537 114.228 111.891C113.873 112.244 113.687 112.733 113.716 113.233C113.686 113.553 113.75 113.875 113.901 114.159L113.716 114.359C113.716 114.542 113.53 114.542 113.53 114.724L107.779 120.473H107.222C106.745 120.401 106.262 120.546 105.903 120.868C105.544 121.189 105.347 121.654 105.366 122.136Z" fill="#B07A00"/>
<path opacity="0.2" d="M97.572 93.581C97.5698 92.5559 96.742 91.7241 95.717 91.717C95.2148 91.6873 94.7241 91.8745 94.3691 92.2309C94.0142 92.5874 93.8292 93.079 93.861 93.581C93.8781 94.3055 94.3116 94.9551 94.974 95.249C94.974 100.254 94.789 108.792 94.789 109.535L94.604 111.386L100.356 105.638C100.635 105.804 100.962 105.868 101.283 105.82C102.305 105.818 103.135 104.991 103.139 103.969C103.155 103.296 102.804 102.667 102.224 102.326C101.643 101.985 100.924 101.985 100.343 102.326C99.7626 102.667 99.4124 103.296 99.428 103.969V104.334C99.428 104.516 99.242 104.516 99.242 104.712L96.089 107.866C96.089 104.516 96.274 97.477 96.274 95.248C96.6692 95.2037 97.0299 95.0018 97.2742 94.688C97.5186 94.3742 97.6259 93.975 97.572 93.581Z" fill="#B07A00"/>
<path opacity="0.2" d="M97.572 57.409C97.5704 56.3837 96.7423 55.5516 95.717 55.545C95.2148 55.5154 94.7241 55.7025 94.3691 56.0589C94.0142 56.4154 93.8292 56.907 93.861 57.409C93.856 58.1403 94.2968 58.8009 94.974 59.077V83.377C94.2617 83.6084 93.8012 84.2984 93.861 85.045C93.8649 86.0676 94.6944 86.8949 95.717 86.896C96.2176 86.9286 96.7079 86.7442 97.063 86.3899C97.4181 86.0356 97.6035 85.5456 97.572 85.045C97.5552 84.3204 97.1216 83.6707 96.459 83.377V59.077C97.1716 58.8459 97.6322 58.1557 97.572 57.409Z" fill="#B07A00"/>
<path opacity="0.2" d="M105.923 64.644C105.942 65.4254 106.47 66.1024 107.223 66.312V71.5C106.47 71.7096 105.942 72.3866 105.923 73.168C105.925 74.1934 106.754 75.0254 107.779 75.032C108.281 75.0617 108.772 74.8745 109.127 74.518C109.481 74.1615 109.666 73.6699 109.634 73.168C109.639 72.4367 109.198 71.7761 108.521 71.5V66.312C109.146 65.9751 109.563 65.3502 109.634 64.644C109.65 63.9708 109.299 63.342 108.719 63.0008C108.138 62.6596 107.419 62.6596 106.838 63.0008C106.258 63.342 105.907 63.9708 105.923 64.644Z" fill="#B07A00"/>
<path opacity="0.2" d="M90.522 57.774V120.106H89.594L81.615 128.083V136.425C81.125 135.915 80.6894 135.356 80.315 134.756V125.11L81.428 126.596L89.035 118.984H89.221V58.698C89.6252 58.3505 90.0608 58.0412 90.522 57.774Z" fill="#B07A00"/>
<path opacity="0.2" d="M69.184 101.18C69.1813 102.205 68.3532 103.037 67.328 103.044C66.3121 103.016 65.4966 102.196 65.473 101.18C65.4469 100.918 65.5123 100.656 65.658 100.437C65.8228 99.9062 66.2395 99.4914 66.771 99.329V69.649C66.401 69.649 66.214 69.271 66.029 69.088C66.29 69.1153 66.5523 69.051 66.771 68.906C67.5217 68.8448 68.2661 68.7227 68.997 68.541C68.783 68.9321 68.4613 69.2535 68.07 69.467V99.33C68.7314 99.7175 69.1509 100.414 69.184 101.18Z" fill="#B07A00"/>
<path opacity="0.2" d="M79.946 113.42L74.565 118.803V119.181C74.5617 120.204 73.7319 121.031 72.709 121.032C72.3634 121.027 72.0323 120.892 71.782 120.654C71.2926 120.328 71.0105 119.768 71.039 119.181V118.803C71.2004 117.914 71.9923 117.28 72.895 117.317C73.2396 117.328 73.569 117.462 73.823 117.695L78.647 112.872V65.191C79.017 65.009 79.574 64.644 79.947 64.448L79.946 113.42Z" fill="#B07A00"/>
<path opacity="0.2" d="M129.301 61.111H115.014C114.782 61.825 114.093 62.288 113.344 62.232C112.317 62.2287 111.487 61.3948 111.488 60.368C111.459 59.8679 111.645 59.3793 112 59.0256C112.355 58.6718 112.844 58.4867 113.344 58.517C114.071 58.5362 114.721 58.9728 115.014 59.638H127.075C127.817 60.185 128.558 60.563 129.301 61.111Z" fill="#B07A00"/>
<path opacity="0.2" d="M139.878 66.872H114.829C114.612 67.6191 113.937 68.1404 113.159 68.162C112.133 68.162 111.302 67.3304 111.302 66.3045C111.302 65.2786 112.133 64.447 113.159 64.447C113.841 64.4459 114.475 64.8016 114.829 65.385H136.909C137.61 65.7149 138.292 66.0848 138.95 66.493C139.321 66.677 139.506 66.872 139.878 66.872Z" fill="#B07A00"/>
<path opacity="0.2" d="M116.684 69.466C115.662 69.4682 114.833 70.295 114.829 71.317C114.8 71.817 114.986 72.3056 115.341 72.6594C115.695 73.0132 116.184 73.1983 116.684 73.168C117.365 73.1744 117.999 72.8228 118.354 72.242H147.854C148.086 72.956 148.775 73.419 149.524 73.363C150.551 73.3597 151.381 72.5256 151.379 71.499C151.408 70.999 151.222 70.5104 150.868 70.1566C150.513 69.8028 150.024 69.6177 149.524 69.648C148.801 69.6675 148.153 70.0976 147.854 70.756H118.354C118.142 70.0053 117.464 69.4815 116.684 69.466Z" fill="#B07A00"/>
<path opacity="0.2" d="M153.423 75.957C153.453 76.3952 153.39 76.8348 153.238 77.247H113.34C113.006 77.8761 112.379 78.2967 111.67 78.368C110.644 78.368 109.812 77.5364 109.812 76.5105C109.812 75.4846 110.644 74.653 111.67 74.653C112.451 74.6747 113.127 75.2012 113.34 75.953L153.423 75.957Z" fill="#B07A00"/>
<path opacity="0.2" d="M121.323 56.105C121.01 56.6388 120.455 56.9846 119.838 57.03C118.816 57.0284 117.987 56.2012 117.983 55.179C117.955 54.9173 118.021 54.6542 118.168 54.436C119.282 54.997 120.21 55.545 121.323 56.105Z" fill="#B07A00"/>
<path opacity="0.2" d="M114.086 83.557C114.105 84.3389 114.632 85.0166 115.386 85.226V105.456C114.633 105.665 114.105 106.342 114.086 107.124C114.109 108.132 114.933 108.937 115.941 108.937C116.95 108.937 117.774 108.132 117.797 107.124C117.806 106.392 117.364 105.729 116.684 105.456V85.226C117.265 84.8713 117.617 84.2377 117.612 83.557C117.608 82.5344 116.779 81.7071 115.756 81.706C114.833 81.8525 114.137 82.6236 114.086 83.557Z" fill="#B07A00"/>
<path opacity="0.2" d="M119.097 83.557C119.113 84.2819 119.547 84.9322 120.21 85.226V114.359L111.303 123.259L111.489 123.441C111.21 123.276 110.882 123.211 110.561 123.259C109.539 123.261 108.709 124.088 108.705 125.11C108.676 125.61 108.863 126.099 109.217 126.452C109.572 126.806 110.061 126.991 110.561 126.961C111.583 126.959 112.412 126.132 112.416 125.11C112.445 124.79 112.38 124.469 112.231 124.185L121.508 114.904V85.226C122.221 84.9948 122.682 84.304 122.621 83.557C122.618 82.5343 121.789 81.7065 120.766 81.706C120.293 81.7128 119.844 81.9162 119.528 82.2674C119.211 82.6187 119.055 83.0859 119.097 83.557Z" fill="#B07A00"/>
<path opacity="0.2" d="M109.448 83.557C109.443 84.2377 109.795 84.8713 110.376 85.226V111.009L106.665 114.724C106.295 115.102 105.923 115.467 105.365 116.024C104.994 116.389 104.808 116.571 104.437 116.949C104.252 116.949 104.066 116.767 103.88 116.767C102.858 116.769 102.029 117.596 102.025 118.618C101.996 119.118 102.182 119.607 102.536 119.96C102.891 120.314 103.38 120.499 103.88 120.469C104.902 120.467 105.732 119.64 105.736 118.618C105.736 118.24 105.736 118.058 105.55 117.875C105.736 117.692 106.107 117.314 106.293 117.132C106.663 116.767 107.035 116.389 107.593 115.832L111.676 111.752V85.226C112.429 85.0163 112.957 84.3388 112.976 83.557C112.973 82.5343 112.144 81.7065 111.121 81.706C110.647 81.7116 110.198 81.9146 109.88 82.266C109.562 82.6173 109.406 83.0853 109.448 83.557Z" fill="#B07A00"/>
<path opacity="0.2" d="M104.438 83.557C104.454 84.2819 104.888 84.9322 105.551 85.226V109.536L101.283 113.798C101.064 113.653 100.802 113.589 100.541 113.616C99.5186 113.618 98.6894 114.445 98.685 115.467C98.6561 115.967 98.8425 116.456 99.1972 116.809C99.5519 117.163 100.041 117.348 100.541 117.318C101.563 117.316 102.392 116.489 102.396 115.467C102.42 115.262 102.352 115.057 102.211 114.906L107.035 110.083V85.226C107.748 84.9945 108.208 84.3039 108.148 83.557C108.125 82.549 107.301 81.7441 106.292 81.7441C105.284 81.7441 104.46 82.549 104.437 83.557H104.438Z" fill="#B07A00"/>
<path opacity="0.2" d="M134.682 134.94C134.31 135.501 133.754 136.061 133.382 136.609L131.712 134.94H134.682Z" fill="#B07A00"/>
<path opacity="0.2" d="M128.93 141.631C128.451 142.013 128.016 142.445 127.63 142.921H126.33C126.018 143.456 125.462 143.802 124.845 143.847C124.17 143.869 123.536 143.522 123.191 142.94C122.847 142.358 122.847 141.636 123.191 141.054C123.536 140.472 124.17 140.125 124.845 140.147C125.644 140.105 126.355 140.654 126.516 141.438H128.927L128.93 141.631Z" fill="#B07A00"/>
<path fill-rule="evenodd" clip-rule="evenodd" d="M104.809 124.551H100.355V117.134C97.5169 116.889 94.666 116.828 91.82 116.952C92.1734 114.835 92.3775 113.909 92.5267 113.231C92.6127 112.841 92.6804 112.534 92.748 112.129C92.7624 111.929 92.9194 111.769 93.119 111.751H95.719C97.204 111.751 97.389 111.386 97.389 110.278V92.095C97.4758 91.4323 97.2496 90.7669 96.7769 90.2944C96.3042 89.8219 95.6387 89.5959 94.976 89.683H92.008V85.225H99.8C100.08 85.225 100.219 85.225 100.289 85.1554C100.357 85.0866 100.357 84.9498 100.357 84.678V77.626H104.811V85.043H108.151V77.626H112.234V84.86C112.234 85.0417 112.234 85.1329 112.28 85.1788C112.326 85.225 112.418 85.225 112.604 85.225C117.804 85.786 121.882 87.454 122.254 92.459C122.535 94.1509 122.134 95.8853 121.139 97.282C120.483 98.1209 119.662 98.8171 118.728 99.328C118.907 99.4054 119.125 99.4861 119.371 99.577C120.906 100.146 123.52 101.114 124.48 104.151C124.822 105.546 124.885 106.994 124.665 108.413C124.47 109.954 123.897 111.424 122.995 112.689C121.872 114.092 120.4 115.175 118.727 115.83C116.708 116.577 114.571 116.957 112.418 116.951C112.047 116.951 112.047 117.133 112.047 117.316V124.368H107.966V117.134H104.625C104.809 119.728 104.809 122.14 104.809 124.551ZM104.809 103.049V112.312C105.57 112.281 106.272 112.26 106.925 112.241H106.925C110.092 112.149 112.118 112.09 114.272 111.012C115.509 110.422 116.352 109.233 116.498 107.871C116.674 106.422 115.935 105.016 114.642 104.339C112.042 102.671 107.591 102.853 104.809 103.049ZM104.809 98.768V90.426C105.239 90.426 105.682 90.4124 106.138 90.3984C108.044 90.34 110.167 90.2749 112.416 91.169C115.203 92.277 115.756 96.921 111.303 98.221C109.184 98.7645 106.989 98.9493 104.809 98.768Z" fill="white"/>
<path fill-rule="evenodd" clip-rule="evenodd" d="M104.254 156.278C105.214 156.84 106.297 157.158 107.408 157.203C109.819 157.203 112.602 155.535 118.536 151.262C120.762 149.593 122.245 148.472 123.73 147.182C133.008 139.57 138.946 131.596 143.77 120.096C143.864 119.905 143.959 119.671 144.053 119.436C144.145 119.209 144.236 118.982 144.327 118.796C145.254 116.389 146.182 113.79 147.11 111.001C150.406 99.9762 152.703 88.6774 153.975 77.241C154.094 76.6929 154.156 76.1339 154.16 75.573C154.358 73.7732 153.823 71.9695 152.677 70.568C151.483 69.2712 149.801 68.5339 148.038 68.535C142.518 68.535 134.992 63.9718 127.991 59.727L127.813 59.619C124.658 57.586 121.504 55.734 118.536 54.066C113.341 51.459 110.186 50.351 107.217 50.351C102.393 50.351 97.754 53.127 88.477 58.693C85.513 60.557 82.177 62.59 78.277 64.819C74.8283 66.6254 71.143 67.9382 67.329 68.719C60.463 70.205 59.537 70.948 62.691 88.753C64.174 97.096 67.883 113.05 70.483 118.981V119.181C70.6521 119.827 70.9017 120.449 71.226 121.032C76.607 134.197 89.038 147.378 104.254 156.278ZM91.264 63.718C97.573 59.623 103.697 55.923 107.408 55.923V55.927C110.889 55.927 116.906 59.5369 123.312 63.3798L123.551 63.523L123.792 63.6709C131.896 68.6542 141.061 74.29 148.043 74.29L148.228 74.472C148.414 74.472 148.414 74.655 148.414 74.837C147.176 85.6863 145.066 96.4183 142.105 106.929C141.552 109.146 140.814 111.545 140.076 113.943L140.064 113.981C135.981 127.159 126.705 136.987 119.654 142.918C115.981 146.004 112.073 148.797 107.964 151.273C107.856 151.378 107.811 151.422 107.756 151.441C107.716 151.455 107.671 151.455 107.592 151.455C107.491 151.356 107.361 151.292 107.221 151.273C99.614 146.815 81.244 134.393 74.75 114.163C70.7892 101.461 67.9946 88.4244 66.401 75.215C66.401 75.1286 66.4446 75.0841 66.4894 75.0384C66.537 74.9899 66.586 74.9399 66.586 74.837L66.589 74.834C66.774 74.653 66.959 74.472 67.143 74.472C74.38 74.289 83.285 68.723 91.264 63.718Z" fill="url(#paint1_linear_2001_3)"/>
<defs>
<linearGradient id="paint0_linear_2001_3" x1="85.2412" y1="105.997" x2="126.771" y2="137.776" gradientUnits="userSpaceOnUse">
<stop offset="0.003" stop-color="#FFD44F"/>
<stop offset="1" stop-color="#FFA607"/>
</linearGradient>
<linearGradient id="paint1_linear_2001_3" x1="177.826" y1="111.848" x2="116.784" y2="34.7019" gradientUnits="userSpaceOnUse">
<stop offset="0.006" stop-color="#DEA300"/>
<stop offset="0.284" stop-color="#FFE8A8"/>
<stop offset="0.666" stop-color="#F4C966"/>
<stop offset="1" stop-color="#FFEFAD"/>
</linearGradient>
</defs>
</svg>
