<svg width="184" height="185" viewBox="0 0 184 185" fill="none" xmlns="http://www.w3.org/2000/svg">
<circle cx="91.6209" cy="96.349" r="82.91" fill="white"/>
<circle cx="91.6209" cy="96.349" r="83.41" stroke="white"/>
<path d="M91.6209 13.439C137.411 13.439 174.531 50.5591 174.531 96.349C174.531 142.139 137.411 179.259 91.6209 179.259C45.831 179.259 8.71094 142.139 8.71094 96.349C8.71094 50.5591 45.831 13.439 91.6209 13.439Z" fill="url(#paint0_linear_1_1630)"/>
<mask id="mask0_1_1630" style="mask-type:luminance" maskUnits="userSpaceOnUse" x="8" y="13" width="167" height="167">
<path fill-rule="evenodd" clip-rule="evenodd" d="M91.6209 13.439C137.411 13.439 174.531 50.5591 174.531 96.349C174.531 142.139 137.411 179.259 91.6209 179.259C45.831 179.259 8.71094 142.139 8.71094 96.349C8.71094 50.5591 45.831 13.439 91.6209 13.439Z" fill="white"/>
</mask>
<g mask="url(#mask0_1_1630)">
<circle opacity="0.21" cx="132.656" cy="165.228" r="66.328" stroke="white" stroke-width="24"/>
<circle opacity="0.21" cx="45.282" cy="31.935" r="33.802" fill="white"/>
<path opacity="0.31" d="M-21.643 39.769C10.387 58.6103 27.403 85.5103 29.405 120.469L29.461 121.53C30.682 147.009 38.536 165.111 53.837 179.145C55.4076 180.586 57.055 181.986 58.779 183.345L59.826 184.16C60.8826 184.971 61.9713 185.771 63.092 186.56L64.224 187.345L65.379 188.123C66.5456 188.898 67.7476 189.665 68.985 190.423L70.236 191.179L70.871 191.555L72.16 192.303L72.814 192.676L74.142 193.418L74.816 193.787L76.185 194.523L77.585 195.256L78.294 195.621L79.732 196.349L81.199 197.075L81.944 197.437L83.456 198.16L84.998 198.881L86.571 199.601L87.371 199.96L88.991 200.678L90.642 201.396L92.326 202.114L93.18 202.473L94.914 203.191L96.681 203.91L98.481 204.63L100.318 205.351L102.19 206.074L103.139 206.436L105.065 207.162L107.028 207.891L109.028 208.623L111.065 209.358L112.098 209.727L114.193 210.467L116.327 211.211L117.409 211.585L116.994 212.791L114.83 212.041L112.705 211.295L110.619 210.553L108.571 209.814L106.561 209.079L104.588 208.346L102.652 207.616L100.752 206.888L98.888 206.162L97.059 205.437L96.159 205.075L94.381 204.352L92.637 203.629L90.926 202.907L90.083 202.546L88.421 201.823L87.602 201.461L85.988 200.737L84.405 200.012L83.625 199.649L82.088 198.922C81.5806 198.679 81.0783 198.436 80.581 198.193L79.104 197.461C78.6166 197.217 78.1336 196.972 77.655 196.727L76.235 195.99L75.535 195.62L74.156 194.878L72.804 194.132L72.138 193.757L70.826 193.004C70.3926 192.752 69.964 192.5 69.54 192.247L68.279 191.484C67.2383 190.847 66.223 190.203 65.233 189.553L64.048 188.769L63.468 188.375L62.325 187.582L61.204 186.782C60.2793 186.115 59.3766 185.437 58.496 184.748L57.449 183.92C57.2763 183.781 57.1043 183.642 56.933 183.503L55.915 182.662C54.907 181.817 53.9263 180.957 52.973 180.082C37.599 165.982 29.613 147.828 28.232 122.506L28.185 121.588C26.5243 86.922 10.0176 60.2043 -21.335 41.435L-22.29 40.869L-21.643 39.769Z" fill="white"/>
<path opacity="0.31" d="M-31.8471 39.769C0.182858 58.6103 17.1989 85.5103 19.2009 120.469L19.2569 121.53C20.4779 147.009 28.3319 165.111 43.6329 179.145C45.2035 180.586 46.8509 181.986 48.5749 183.345L49.6219 184.16C50.6785 184.971 51.7672 185.771 52.8879 186.56L54.0199 187.345L55.1749 188.123C56.3415 188.898 57.5435 189.665 58.7809 190.423L60.0319 191.179L60.6669 191.555L61.9559 192.303L62.6099 192.676L63.9379 193.418L64.6119 193.787L65.9809 194.523L67.3809 195.256L68.0899 195.621L69.5279 196.349L70.9949 197.075L71.7399 197.437L73.2519 198.16L74.7939 198.881L76.3669 199.601L77.1669 199.96L78.7869 200.678L80.4379 201.396L82.1219 202.114L82.9759 202.473L84.7099 203.191L86.4769 203.91L88.2769 204.63L90.1139 205.351L91.9859 206.074L92.9349 206.436L94.8609 207.162L96.8239 207.891L98.8239 208.623L100.861 209.358L101.894 209.727L103.989 210.467L106.123 211.211L107.205 211.585L106.79 212.791L104.626 212.041L102.501 211.295L100.415 210.553L98.3669 209.814L96.3569 209.079L94.3839 208.346L92.4479 207.616L90.5479 206.888L88.6839 206.162L86.8549 205.437L85.9549 205.075L84.1769 204.352L82.4329 203.629L80.7219 202.907L79.8789 202.546L78.2169 201.823L77.3979 201.461L75.7839 200.737L74.2009 200.012L73.4209 199.649L71.8839 198.922C71.3765 198.679 70.8742 198.436 70.3769 198.193L68.8999 197.461C68.4125 197.217 67.9295 196.972 67.4509 196.727L66.0309 195.99L65.3309 195.62L63.9519 194.878L62.5999 194.132L61.9339 193.757L60.6219 193.004C60.1885 192.752 59.7599 192.5 59.3359 192.247L58.0749 191.484C57.0342 190.847 56.0189 190.203 55.0289 189.553L53.8439 188.769L53.2639 188.375L52.1209 187.582L50.9999 186.782C50.0752 186.115 49.1725 185.437 48.2919 184.748L47.2449 183.92C47.0722 183.781 46.9002 183.642 46.7289 183.503L45.7109 182.662C44.7029 181.817 43.7222 180.957 42.7689 180.082C27.3949 165.982 19.4089 147.828 18.0279 122.506L17.9809 121.588C16.3202 86.922 -0.186474 60.2043 -31.5391 41.435L-32.4941 40.869L-31.8471 39.769Z" fill="white"/>
</g>
<path d="M91.239 151.117C77.704 138.579 72.814 106.873 72.814 106.873L104.49 57.579C104.49 57.579 115.337 68.89 119.99 77.384C127.377 90.857 133.872 110.328 134.597 120.457C135.997 140.049 137.764 152.511 142.097 162.121C132.781 169.291 122.042 174.389 110.597 177.074C106.305 169.516 99.331 158.612 91.239 151.117Z" fill="white"/>
<rect x="57.3989" y="5.78598" width="63.777" height="119.901" rx="6.244" fill="#E8ECF0"/>
<rect x="59.95" y="8.33698" width="58.675" height="114.799" rx="6.244" fill="url(#paint1_linear_1_1630)"/>
<rect opacity="0.44" x="67.604" y="59.358" width="43.368" height="11.48" rx="2" fill="white"/>
<circle opacity="0.44" cx="89.2879" cy="38.95" r="11.48" fill="white"/>
<path d="M111.852 106.431C103.035 90.754 96.5438 88.686 96.5438 88.686C96.5438 88.686 90.9998 91.722 94.0588 100.361C97.1178 109 104.959 116.107 104.959 128.984C104.959 141.861 99.2808 147.046 111.859 157.562C124.437 168.078 127.778 122.651 127.778 122.651C127.778 122.651 120.669 122.107 111.852 106.431Z" fill="url(#paint2_linear_1_1630)"/>
<path d="M120.492 105.97C120.492 105.97 122.163 120.614 113.345 104.937C104.527 89.26 98.037 87.193 98.037 87.193C98.037 87.193 92.493 90.229 95.552 98.868C98.611 107.507 106.452 114.614 106.452 127.491C106.452 140.368 99.9 147.569 112.476 158.085C125.052 168.601 129.276 121.158 129.276 121.158L120.492 105.97Z" fill="white"/>
<path d="M98.0359 87.193C98.0359 87.193 97.0529 89.539 99.9609 92.742C101.45 94.5903 104.048 95.1104 106.134 93.978C104.749 92.3304 103.257 90.7753 101.669 89.323C100.589 88.4093 99.3604 87.6887 98.0359 87.193V87.193Z" fill="url(#paint3_linear_1_1630)"/>
<path d="M117.308 114.893L113.4 115.973" stroke="#FF73AA" stroke-width="0.78" stroke-linecap="round"/>
<path d="M119.451 115.433L118.501 117.849" stroke="#FF73AA" stroke-width="0.78" stroke-linecap="round"/>
<path d="M92.1208 7.05898C92.1208 4.24233 94.4042 1.95898 97.2208 1.95898H143.143C145.96 1.95898 148.243 4.24233 148.243 7.05898V50.08C148.243 51.0704 147.67 51.9715 146.773 52.3913C145.876 52.8111 144.817 52.6738 144.057 52.039L134.212 43.823H97.2208C95.8682 43.823 94.571 43.2857 93.6146 42.3292C92.6582 41.3728 92.1208 40.0756 92.1208 38.723V7.05898Z" fill="#9C88FF"/>
<circle cx="131.458" cy="22.297" r="4" fill="white"/>
<circle cx="120.458" cy="22.297" r="4" fill="white"/>
<circle cx="109.458" cy="22.297" r="4" fill="white"/>
<defs>
<linearGradient id="paint0_linear_1_1630" x1="8.71094" y1="13.439" x2="8.71094" y2="179.259" gradientUnits="userSpaceOnUse">
<stop stop-color="#8DF3ED"/>
<stop offset="1" stop-color="#34D9D1"/>
</linearGradient>
<linearGradient id="paint1_linear_1_1630" x1="59.95" y1="8.33698" x2="59.95" y2="123.136" gradientUnits="userSpaceOnUse">
<stop stop-color="#FF9BD0"/>
<stop offset="1" stop-color="#FF73AA"/>
</linearGradient>
<linearGradient id="paint2_linear_1_1630" x1="93.1382" y1="88.686" x2="93.1382" y2="159.142" gradientUnits="userSpaceOnUse">
<stop stop-color="#FF9BD0"/>
<stop offset="1" stop-color="#FF73AA"/>
</linearGradient>
<linearGradient id="paint3_linear_1_1630" x1="97.876" y1="87.193" x2="97.876" y2="94.5737" gradientUnits="userSpaceOnUse">
<stop stop-color="#FF9BD0"/>
<stop offset="1" stop-color="#FF73AA"/>
</linearGradient>
</defs>
</svg>
