<svg width="219" height="205" viewBox="0 0 219 205" fill="none" xmlns="http://www.w3.org/2000/svg">
<rect x="85.0342" y="17.342" width="6.873" height="6.72" fill="#EDF4FF"/>
<rect x="78.1621" y="24.062" width="6.873" height="6.72" fill="#EDF4FF"/>
<rect x="125.796" y="24.062" width="6.873" height="6.72" fill="#EDF4FF"/>
<rect x="132.412" y="24.062" width="6.873" height="6.72" fill="#EDF4FF"/>
<rect x="85.0342" y="24.062" width="6.873" height="6.72" fill="#EDF4FF"/>
<rect x="98.7812" y="24.062" width="6.873" height="6.72" fill="#EDF4FF"/>
<rect x="105.654" y="24.062" width="6.873" height="6.72" fill="#EDF4FF"/>
<rect x="85.0342" y="30.782" width="6.873" height="6.72" fill="#EDF4FF"/>
<rect x="91.9072" y="30.782" width="6.873" height="6.72" fill="#EDF4FF"/>
<rect x="98.7812" y="30.782" width="6.873" height="6.72" fill="#EDF4FF"/>
<rect x="119.399" y="30.782" width="6.873" height="6.72" fill="#EDF4FF"/>
<rect x="78.1621" y="37.501" width="6.873" height="6.72" fill="#EDF4FF"/>
<rect x="125.796" y="37.501" width="6.873" height="6.72" fill="#EDF4FF"/>
<rect x="85.0342" y="37.501" width="6.873" height="6.72" fill="#EDF4FF"/>
<rect x="98.7812" y="37.501" width="6.873" height="6.72" fill="#EDF4FF"/>
<rect x="112.526" y="37.501" width="6.873" height="6.72" fill="#EDF4FF"/>
<rect x="119.399" y="37.501" width="6.873" height="6.72" fill="#EDF4FF"/>
<rect x="91.9072" y="44.221" width="6.873" height="6.72" fill="#EDF4FF"/>
<rect x="105.654" y="44.221" width="6.873" height="6.72" fill="#EDF4FF"/>
<rect x="133.44" y="44.221" width="6.873" height="6.72" fill="#EDF4FF"/>
<rect x="119.399" y="44.221" width="6.873" height="6.72" fill="#EDF4FF"/>
<rect x="78.1621" y="50.94" width="6.873" height="6.72" fill="#EDF4FF"/>
<rect x="125.796" y="50.94" width="6.873" height="6.72" fill="#EDF4FF"/>
<rect x="91.9072" y="50.94" width="6.873" height="6.72" fill="#EDF4FF"/>
<rect x="112.526" y="50.94" width="6.873" height="6.72" fill="#EDF4FF"/>
<rect x="78.1621" y="57.66" width="6.873" height="6.72" fill="#EDF4FF"/>
<rect x="125.796" y="57.66" width="6.873" height="6.72" fill="#EDF4FF"/>
<rect x="91.9072" y="57.66" width="6.873" height="6.72" fill="#EDF4FF"/>
<rect x="105.654" y="57.66" width="6.873" height="6.72" fill="#EDF4FF"/>
<rect x="119.399" y="57.66" width="6.873" height="6.72" fill="#EDF4FF"/>
<rect x="105.654" y="64.379" width="6.873" height="6.72" fill="#EDF4FF"/>
<rect x="133.44" y="64.379" width="6.873" height="6.72" fill="#EDF4FF"/>
<rect x="119.399" y="64.379" width="6.873" height="6.72" fill="#EDF4FF"/>
<rect x="23.1792" y="71.099" width="6.873" height="6.72" fill="#EDF4FF"/>
<rect x="30.0522" y="71.099" width="6.873" height="6.72" fill="#EDF4FF"/>
<rect x="36.9253" y="71.099" width="6.873" height="6.72" fill="#EDF4FF"/>
<rect x="43.7983" y="71.099" width="6.873" height="6.72" fill="#EDF4FF"/>
<rect x="50.6709" y="71.099" width="6.873" height="6.72" fill="#EDF4FF"/>
<rect x="64.416" y="71.099" width="6.873" height="6.72" fill="#EDF4FF"/>
<rect x="71.2891" y="71.099" width="6.873" height="6.72" fill="#EDF4FF"/>
<rect x="78.1621" y="71.099" width="6.873" height="6.72" fill="#EDF4FF"/>
<rect x="85.0342" y="71.099" width="6.873" height="6.72" fill="#EDF4FF"/>
<rect x="91.9072" y="71.099" width="6.873" height="6.72" fill="#EDF4FF"/>
<rect x="105.654" y="71.099" width="6.873" height="6.72" fill="#EDF4FF"/>
<rect x="133.44" y="71.099" width="6.873" height="6.72" fill="#EDF4FF"/>
<rect x="112.526" y="71.099" width="6.873" height="6.72" fill="#EDF4FF"/>
<rect x="119.399" y="71.099" width="6.873" height="6.72" fill="#EDF4FF"/>
<rect x="30.0522" y="77.818" width="6.873" height="6.72" fill="#EDF4FF"/>
<rect x="57.5439" y="77.818" width="6.873" height="6.72" fill="#EDF4FF"/>
<rect x="85.0342" y="77.818" width="6.873" height="6.72" fill="#EDF4FF"/>
<rect x="36.9253" y="84.537" width="6.873" height="6.72" fill="#EDF4FF"/>
<rect x="43.7983" y="84.537" width="6.873" height="6.72" fill="#EDF4FF"/>
<rect x="57.5439" y="84.537" width="6.873" height="6.72" fill="#EDF4FF"/>
<rect x="64.416" y="84.537" width="6.873" height="6.72" fill="#EDF4FF"/>
<rect x="71.2891" y="84.537" width="6.873" height="6.72" fill="#EDF4FF"/>
<rect x="78.1621" y="84.537" width="6.873" height="6.72" fill="#EDF4FF"/>
<rect x="85.0342" y="84.537" width="6.873" height="6.72" fill="#EDF4FF"/>
<rect x="98.7812" y="84.537" width="6.873" height="6.72" fill="#EDF4FF"/>
<rect x="105.654" y="84.537" width="6.873" height="6.72" fill="#EDF4FF"/>
<rect x="112.526" y="84.537" width="6.873" height="6.72" fill="#EDF4FF"/>
<rect x="119.399" y="84.537" width="6.873" height="6.72" fill="#EDF4FF"/>
<rect x="126.272" y="84.537" width="6.873" height="6.72" fill="#EDF4FF"/>
<rect x="133.144" y="84.537" width="6.873" height="6.72" fill="#EDF4FF"/>
<rect x="140.017" y="84.537" width="6.873" height="6.72" fill="#EDF4FF"/>
<rect x="146.89" y="84.537" width="6.873" height="6.72" fill="#EDF4FF"/>
<rect x="160.636" y="84.537" width="6.873" height="6.72" fill="#EDF4FF"/>
<rect x="167.509" y="84.537" width="6.873" height="6.72" fill="#EDF4FF"/>
<rect x="181.255" y="84.537" width="6.873" height="6.72" fill="#EDF4FF"/>
<rect x="188.127" y="84.537" width="6.873" height="6.72" fill="#EDF4FF"/>
<rect x="36.9253" y="91.257" width="6.873" height="6.72" fill="#EDF4FF"/>
<rect x="43.7983" y="91.257" width="6.873" height="6.72" fill="#EDF4FF"/>
<rect x="78.1621" y="91.257" width="6.873" height="6.72" fill="#EDF4FF"/>
<rect x="85.0342" y="91.257" width="6.873" height="6.72" fill="#EDF4FF"/>
<rect x="91.9072" y="91.257" width="6.873" height="6.72" fill="#EDF4FF"/>
<rect x="98.7812" y="91.257" width="6.873" height="6.72" fill="#EDF4FF"/>
<rect x="126.272" y="91.257" width="6.873" height="6.72" fill="#EDF4FF"/>
<rect x="133.144" y="91.257" width="6.873" height="6.72" fill="#EDF4FF"/>
<rect x="140.017" y="91.257" width="6.873" height="6.72" fill="#EDF4FF"/>
<rect x="146.89" y="91.257" width="6.873" height="6.72" fill="#EDF4FF"/>
<rect x="153.763" y="91.257" width="6.873" height="6.72" fill="#EDF4FF"/>
<rect x="160.636" y="91.257" width="6.873" height="6.72" fill="#EDF4FF"/>
<rect x="188.127" y="91.257" width="6.873" height="6.72" fill="#EDF4FF"/>
<rect x="57.5439" y="97.977" width="6.873" height="6.72" fill="#EDF4FF"/>
<rect x="64.416" y="97.977" width="6.873" height="6.72" fill="#EDF4FF"/>
<rect x="85.0342" y="97.977" width="6.873" height="6.72" fill="#EDF4FF"/>
<rect x="98.7812" y="97.977" width="6.873" height="6.72" fill="#EDF4FF"/>
<rect x="119.399" y="97.977" width="6.873" height="6.72" fill="#EDF4FF"/>
<rect x="126.272" y="97.977" width="6.873" height="6.72" fill="#EDF4FF"/>
<rect x="140.017" y="97.977" width="6.873" height="6.72" fill="#EDF4FF"/>
<rect x="146.89" y="97.977" width="6.873" height="6.72" fill="#EDF4FF"/>
<rect x="160.636" y="97.977" width="6.873" height="6.72" fill="#EDF4FF"/>
<rect x="174.382" y="97.977" width="6.873" height="6.72" fill="#EDF4FF"/>
<rect x="181.255" y="97.977" width="6.873" height="6.72" fill="#EDF4FF"/>
<rect x="188.127" y="97.977" width="6.873" height="6.72" fill="#EDF4FF"/>
<rect x="23.1792" y="104.696" width="6.873" height="6.72" fill="#EDF4FF"/>
<rect x="30.0522" y="104.696" width="6.873" height="6.72" fill="#EDF4FF"/>
<rect x="36.9253" y="104.696" width="6.873" height="6.72" fill="#EDF4FF"/>
<rect x="50.6709" y="104.696" width="6.873" height="6.72" fill="#EDF4FF"/>
<rect x="78.1621" y="104.696" width="6.873" height="6.72" fill="#EDF4FF"/>
<rect x="85.0342" y="104.696" width="6.873" height="6.72" fill="#EDF4FF"/>
<rect x="91.9072" y="104.696" width="6.873" height="6.72" fill="#EDF4FF"/>
<rect x="105.654" y="104.696" width="6.873" height="6.72" fill="#EDF4FF"/>
<rect x="133.144" y="104.696" width="6.873" height="6.72" fill="#EDF4FF"/>
<rect x="167.509" y="104.696" width="6.873" height="6.72" fill="#EDF4FF"/>
<rect x="181.255" y="104.696" width="6.873" height="6.72" fill="#EDF4FF"/>
<rect x="23.1792" y="111.416" width="6.873" height="6.72" fill="#EDF4FF"/>
<rect x="36.9253" y="111.416" width="6.873" height="6.72" fill="#EDF4FF"/>
<rect x="43.7983" y="111.416" width="6.873" height="6.72" fill="#EDF4FF"/>
<rect x="57.5439" y="111.416" width="6.873" height="6.72" fill="#EDF4FF"/>
<rect x="64.416" y="111.416" width="6.873" height="6.72" fill="#EDF4FF"/>
<rect x="126.272" y="111.416" width="6.873" height="6.72" fill="#EDF4FF"/>
<rect x="133.144" y="111.416" width="6.873" height="6.72" fill="#EDF4FF"/>
<rect x="146.89" y="117.884" width="6.873" height="6.72" fill="#EDF4FF"/>
<rect x="167.509" y="111.416" width="6.873" height="6.72" fill="#EDF4FF"/>
<rect x="181.255" y="111.416" width="6.873" height="6.72" fill="#EDF4FF"/>
<rect x="188.127" y="111.416" width="6.873" height="6.72" fill="#EDF4FF"/>
<rect x="23.1792" y="118.135" width="6.873" height="6.72" fill="#EDF4FF"/>
<rect x="78.1621" y="118.135" width="6.873" height="6.72" fill="#EDF4FF"/>
<rect x="105.654" y="118.135" width="6.873" height="6.72" fill="#EDF4FF"/>
<rect x="119.399" y="118.135" width="6.873" height="6.72" fill="#EDF4FF"/>
<rect x="126.272" y="118.135" width="6.873" height="6.72" fill="#EDF4FF"/>
<rect x="133.144" y="118.135" width="6.873" height="6.72" fill="#EDF4FF"/>
<rect x="140.017" y="118.135" width="6.873" height="6.72" fill="#EDF4FF"/>
<rect x="146.89" y="124.603" width="6.873" height="6.72" fill="#EDF4FF"/>
<rect x="153.763" y="118.135" width="6.873" height="6.72" fill="#EDF4FF"/>
<rect x="160.636" y="118.135" width="6.873" height="6.72" fill="#EDF4FF"/>
<rect x="167.509" y="118.135" width="6.873" height="6.72" fill="#EDF4FF"/>
<rect x="188.127" y="118.135" width="6.873" height="6.72" fill="#EDF4FF"/>
<rect x="23.1792" y="124.855" width="6.873" height="6.72" fill="#EDF4FF"/>
<rect x="43.7983" y="124.855" width="6.873" height="6.72" fill="#EDF4FF"/>
<rect x="50.6709" y="124.855" width="6.873" height="6.72" fill="#EDF4FF"/>
<rect x="57.5439" y="124.855" width="6.873" height="6.72" fill="#EDF4FF"/>
<rect x="64.416" y="124.855" width="6.873" height="6.72" fill="#EDF4FF"/>
<rect x="85.0342" y="124.855" width="6.873" height="6.72" fill="#EDF4FF"/>
<rect x="91.9072" y="124.855" width="6.873" height="6.72" fill="#EDF4FF"/>
<rect x="105.654" y="124.855" width="6.873" height="6.72" fill="#EDF4FF"/>
<rect x="112.526" y="124.855" width="6.873" height="6.72" fill="#EDF4FF"/>
<rect x="119.399" y="124.855" width="6.873" height="6.72" fill="#EDF4FF"/>
<rect x="133.144" y="124.855" width="6.873" height="6.72" fill="#EDF4FF"/>
<rect x="140.017" y="124.855" width="6.873" height="6.72" fill="#EDF4FF"/>
<rect x="146.89" y="131.323" width="6.873" height="6.72" fill="#EDF4FF"/>
<rect x="146.89" y="78.283" width="6.873" height="6.72" fill="#EDF4FF"/>
<rect x="153.763" y="124.855" width="6.873" height="6.72" fill="#EDF4FF"/>
<rect x="153.763" y="71.815" width="6.873" height="6.72" fill="#EDF4FF"/>
<rect x="160.636" y="124.855" width="6.873" height="6.72" fill="#EDF4FF"/>
<rect x="160.636" y="71.815" width="6.873" height="6.72" fill="#EDF4FF"/>
<rect x="174.382" y="124.855" width="6.873" height="6.72" fill="#EDF4FF"/>
<rect x="174.382" y="71.815" width="6.873" height="6.72" fill="#EDF4FF"/>
<rect x="78.1621" y="131.574" width="6.873" height="6.72" fill="#EDF4FF"/>
<rect x="91.9072" y="131.574" width="6.873" height="6.72" fill="#EDF4FF"/>
<rect x="119.399" y="131.574" width="6.873" height="6.72" fill="#EDF4FF"/>
<rect x="126.272" y="131.574" width="6.873" height="6.72" fill="#EDF4FF"/>
<rect x="133.144" y="131.574" width="6.873" height="6.72" fill="#EDF4FF"/>
<rect x="78.1621" y="138.294" width="6.873" height="6.72" fill="#EDF4FF"/>
<rect x="85.0342" y="138.294" width="6.873" height="6.72" fill="#EDF4FF"/>
<rect x="91.9072" y="138.294" width="6.873" height="6.72" fill="#EDF4FF"/>
<rect x="98.7812" y="138.294" width="6.873" height="6.72" fill="#EDF4FF"/>
<rect x="105.654" y="138.294" width="6.873" height="6.72" fill="#EDF4FF"/>
<rect x="98.7812" y="145.013" width="6.873" height="6.72" fill="#EDF4FF"/>
<rect x="133.144" y="145.013" width="6.873" height="6.72" fill="#EDF4FF"/>
<rect x="78.1621" y="151.733" width="6.873" height="6.72" fill="#EDF4FF"/>
<rect x="91.9072" y="151.733" width="6.873" height="6.72" fill="#EDF4FF"/>
<rect x="98.7812" y="151.733" width="6.873" height="6.72" fill="#EDF4FF"/>
<rect x="126.272" y="151.733" width="6.873" height="6.72" fill="#EDF4FF"/>
<rect x="78.1621" y="158.452" width="6.873" height="6.72" fill="#EDF4FF"/>
<rect x="91.9072" y="158.452" width="6.873" height="6.72" fill="#EDF4FF"/>
<rect x="105.654" y="158.452" width="6.873" height="6.72" fill="#EDF4FF"/>
<rect x="112.526" y="158.452" width="6.873" height="6.72" fill="#EDF4FF"/>
<rect x="126.272" y="158.452" width="6.873" height="6.72" fill="#EDF4FF"/>
<rect x="78.1621" y="165.172" width="6.873" height="6.72" fill="#EDF4FF"/>
<rect x="85.0342" y="165.172" width="6.873" height="6.72" fill="#EDF4FF"/>
<rect x="112.526" y="165.172" width="6.873" height="6.72" fill="#EDF4FF"/>
<rect x="119.399" y="165.172" width="6.873" height="6.72" fill="#EDF4FF"/>
<rect x="133.144" y="165.172" width="6.873" height="6.72" fill="#EDF4FF"/>
<rect x="78.1621" y="171.891" width="6.873" height="6.72" fill="#EDF4FF"/>
<rect x="105.654" y="171.891" width="6.873" height="6.72" fill="#EDF4FF"/>
<rect x="112.526" y="171.891" width="6.873" height="6.72" fill="#EDF4FF"/>
<rect x="126.272" y="171.891" width="6.873" height="6.72" fill="#EDF4FF"/>
<rect x="133.144" y="171.891" width="6.873" height="6.72" fill="#EDF4FF"/>
<rect x="78.1621" y="178.611" width="6.873" height="6.72" fill="#EDF4FF"/>
<rect x="105.654" y="178.611" width="6.873" height="6.72" fill="#EDF4FF"/>
<rect x="119.399" y="178.611" width="6.873" height="6.72" fill="#EDF4FF"/>
<rect x="126.272" y="178.611" width="6.873" height="6.72" fill="#EDF4FF"/>
<path fill-rule="evenodd" clip-rule="evenodd" d="M35.2751 148.542H46.7221C53.4846 148.511 58.9962 153.959 59.0441 160.722V172.441C58.9984 179.205 53.4863 184.656 46.7221 184.626H35.2751C28.5113 184.656 22.9994 179.206 22.9531 172.442V160.722C22.9528 160.1 23.0002 159.48 23.0951 158.866C23.1793 158.325 23.3006 157.79 23.4581 157.266C25.0454 152.072 29.8445 148.529 35.2751 148.542ZM46.7201 179.213C50.4964 179.247 53.5878 176.218 53.6301 172.442V160.723C53.5867 156.949 50.4966 153.921 46.7221 153.956H35.2741C33.8596 153.953 32.4777 154.38 31.3121 155.182C30.4395 155.781 29.717 156.573 29.2011 157.497C28.6524 158.483 28.365 159.593 28.3661 160.722V172.443C28.409 176.219 31.5002 179.247 35.2761 179.213H46.7201Z" fill="#EDF4FF"/>
<path fill-rule="evenodd" clip-rule="evenodd" d="M35.2751 18.3419H46.7221C53.4846 18.3114 58.9962 23.7595 59.0441 30.5219V42.2409C58.9984 49.005 53.4863 54.4558 46.7221 54.4259H35.2751C28.5113 54.4558 22.9994 49.0056 22.9531 42.2419V30.5219C22.9528 29.9005 23.0002 29.28 23.0951 28.6659C23.1793 28.1249 23.3006 27.5903 23.4581 27.0659C25.0454 21.8724 29.8445 18.3294 35.2751 18.3419ZM46.7201 49.0129C50.4964 49.0473 53.5878 46.0181 53.6301 42.2419V30.5229C53.5867 26.7485 50.4966 23.7214 46.7221 23.7559H35.2741C33.8596 23.7529 32.4777 24.1805 31.3121 24.9819C30.4395 25.5805 29.717 26.3728 29.2011 27.2969C28.6524 28.2831 28.365 29.3933 28.3661 30.5219V42.2429C28.409 46.0187 31.5002 49.0473 35.2761 49.0129H46.7201Z" fill="#EDF4FF"/>
<path fill-rule="evenodd" clip-rule="evenodd" d="M171.317 149.542H182.764C189.527 149.511 195.038 154.959 195.086 161.722V173.441C195.04 180.205 189.528 185.656 182.764 185.626H171.317C164.553 185.656 159.041 180.206 158.995 173.442V161.722C158.995 161.1 159.042 160.48 159.137 159.866C159.221 159.325 159.343 158.79 159.5 158.266C161.087 153.072 165.886 149.529 171.317 149.542ZM182.762 180.213C186.538 180.247 189.63 177.218 189.672 173.442V161.723C189.629 157.949 186.539 154.921 182.764 154.956H171.316C169.902 154.953 168.52 155.38 167.354 156.182C166.481 156.781 165.759 157.573 165.243 158.497C164.694 159.483 164.407 160.593 164.408 161.722V173.443C164.451 177.219 167.542 180.247 171.318 180.213H182.762Z" fill="#EDF4FF"/>
<path fill-rule="evenodd" clip-rule="evenodd" d="M171.317 17.3419H182.764C189.527 17.3114 195.038 22.7595 195.086 29.5219V41.2409C195.04 48.005 189.528 53.4558 182.764 53.4259H171.317C164.553 53.4558 159.041 48.0056 158.995 41.2419V29.5219C158.995 28.9005 159.042 28.28 159.137 27.6659C159.221 27.1249 159.343 26.5903 159.5 26.0659C161.087 20.8724 165.886 17.3294 171.317 17.3419ZM182.762 48.0129C186.538 48.0473 189.63 45.0181 189.672 41.2419V29.5229C189.629 25.7485 186.539 22.7214 182.764 22.7559H171.316C169.902 22.7529 168.52 23.1805 167.354 23.9819C166.481 24.5805 165.759 25.3728 165.243 26.2969C164.694 27.2831 164.407 28.3933 164.408 29.5219V41.2429C164.451 45.0187 167.542 48.0473 171.318 48.0129H182.762Z" fill="#EDF4FF"/>
<path d="M37.4972 174.319C35.1849 174.338 33.2923 172.484 33.2632 170.172V162.995C33.2633 162.305 33.4391 161.626 33.7742 161.022C34.0894 160.455 34.5321 159.969 35.0672 159.603C35.782 159.111 36.6296 158.849 37.4972 158.851H44.5082C46.8197 158.83 48.7123 160.684 48.7392 162.995V170.172C48.7101 172.483 46.8193 174.336 44.5082 174.319H37.4972Z" fill="#EDF4FF"/>
<path d="M37.4972 44.119C35.1849 44.1379 33.2923 42.2842 33.2632 39.972V32.795C33.2633 32.1046 33.4391 31.4256 33.7742 30.822C34.0894 30.2552 34.5321 29.7695 35.0672 29.403C35.782 28.9113 36.6296 28.649 37.4972 28.651H44.5082C46.8197 28.6299 48.7123 30.4835 48.7392 32.795V39.972C48.7101 42.283 46.8193 44.1362 44.5082 44.119H37.4972Z" fill="#EDF4FF"/>
<path d="M173.539 175.319C171.227 175.338 169.334 173.484 169.305 171.172V163.995C169.305 163.305 169.481 162.626 169.816 162.022C170.131 161.455 170.574 160.969 171.109 160.603C171.824 160.111 172.672 159.849 173.539 159.851H180.55C182.862 159.83 184.754 161.684 184.781 163.995V171.172C184.752 173.483 182.861 175.336 180.55 175.319H173.539Z" fill="#EDF4FF"/>
<path d="M173.539 43.119C171.227 43.1379 169.334 41.2842 169.305 38.972V31.795C169.305 31.1046 169.481 30.4256 169.816 29.822C170.131 29.2552 170.574 28.7695 171.109 28.403C171.824 27.9113 172.672 27.649 173.539 27.651H180.55C182.862 27.6299 184.754 29.4835 184.781 31.795V38.972C184.752 41.283 182.861 43.1362 180.55 43.119H173.539Z" fill="#EDF4FF"/>
<path d="M2.5 101.816H216.447" stroke="#4DE0D9" stroke-width="5" stroke-linecap="round"/>
<path d="M0 102.542H218.952V167.397H0V102.542Z" fill="url(#paint0_linear_2_4028)"/>
<path d="M197.363 3H201.375C203.945 2.9992 206.41 4.01962 208.228 5.83672C210.046 7.65382 211.068 10.1187 211.068 12.689V16.151" stroke="#4DE0D9" stroke-width="5" stroke-linecap="round"/>
<path d="M21.434 3H17.422C14.8517 2.9992 12.3864 4.01962 10.5686 5.83672C8.75071 7.65382 7.72927 10.1187 7.729 12.689V16.151" stroke="#4DE0D9" stroke-width="5" stroke-linecap="round"/>
<path d="M21.434 201.943H17.422C14.8517 201.944 12.3864 200.923 10.5686 199.106C8.75071 197.289 7.72927 194.824 7.729 192.254V188.792" stroke="#4DE0D9" stroke-width="5" stroke-linecap="round"/>
<path d="M197.363 201.943H201.375C203.945 201.944 206.411 200.924 208.229 199.107C210.047 197.29 211.069 194.824 211.069 192.254V188.792" stroke="#4DE0D9" stroke-width="5" stroke-linecap="round"/>
<defs>
<linearGradient id="paint0_linear_2_4028" x1="0" y1="102.542" x2="0" y2="167.397" gradientUnits="userSpaceOnUse">
<stop stop-color="#4DE0D9"/>
<stop offset="0.247" stop-color="#4DE0D9" stop-opacity="0.502"/>
<stop offset="1" stop-color="#102341" stop-opacity="0.01"/>
</linearGradient>
</defs>
</svg>
