<svg width="184" height="185" viewBox="0 0 184 185" fill="none" xmlns="http://www.w3.org/2000/svg">
<circle cx="91.6211" cy="96.349" r="82.91" fill="white"/>
<circle cx="91.6211" cy="96.349" r="83.41" stroke="white"/>
<path d="M91.6211 13.439C137.411 13.439 174.531 50.5591 174.531 96.349C174.531 142.139 137.411 179.259 91.6211 179.259C45.8311 179.259 8.71106 142.139 8.71106 96.349C8.71106 50.5591 45.8311 13.439 91.6211 13.439Z" fill="url(#paint0_linear_1_1434)"/>
<mask id="mask0_1_1434" style="mask-type:luminance" maskUnits="userSpaceOnUse" x="8" y="13" width="167" height="167">
<path fill-rule="evenodd" clip-rule="evenodd" d="M91.6211 13.439C137.411 13.439 174.531 50.5591 174.531 96.349C174.531 142.139 137.411 179.259 91.6211 179.259C45.8311 179.259 8.71106 142.139 8.71106 96.349C8.71106 50.5591 45.8311 13.439 91.6211 13.439Z" fill="white"/>
</mask>
<g mask="url(#mask0_1_1434)">
<circle opacity="0.21" cx="132.656" cy="165.228" r="66.328" stroke="white" stroke-width="24"/>
<circle opacity="0.21" cx="45.2821" cy="31.935" r="33.802" fill="white"/>
<path opacity="0.31" d="M-21.6429 39.769C10.3871 58.6103 27.4031 85.5103 29.4051 120.469L29.4611 121.53C30.6821 147.009 38.5361 165.111 53.8371 179.145C55.4077 180.586 57.0551 181.986 58.7791 183.345L59.8261 184.16C60.8827 184.971 61.9714 185.771 63.0921 186.56L64.2241 187.345L65.3791 188.123C66.5457 188.898 67.7477 189.665 68.9851 190.423L70.2361 191.179L70.8711 191.555L72.1601 192.303L72.8141 192.676L74.1421 193.418L74.8161 193.787L76.1851 194.523L77.5851 195.256L78.2941 195.621L79.7321 196.349L81.1991 197.075L81.9441 197.437L83.4561 198.16L84.9981 198.881L86.5711 199.601L87.3711 199.96L88.9911 200.678L90.6421 201.396L92.3261 202.114L93.1801 202.473L94.9141 203.191L96.6811 203.91L98.4811 204.63L100.318 205.351L102.19 206.074L103.139 206.436L105.065 207.162L107.028 207.891L109.028 208.623L111.065 209.358L112.098 209.727L114.193 210.467L116.327 211.211L117.409 211.585L116.994 212.791L114.83 212.041L112.705 211.295L110.619 210.553L108.571 209.814L106.561 209.079L104.588 208.346L102.652 207.616L100.752 206.888L98.8881 206.162L97.0591 205.437L96.1591 205.075L94.3811 204.352L92.6371 203.629L90.9261 202.907L90.0831 202.546L88.4211 201.823L87.6021 201.461L85.9881 200.737L84.4051 200.012L83.6251 199.649L82.0881 198.922C81.5807 198.679 81.0784 198.436 80.5811 198.193L79.1041 197.461C78.6167 197.217 78.1338 196.972 77.6551 196.727L76.2351 195.99L75.5351 195.62L74.1561 194.878L72.8041 194.132L72.1381 193.757L70.8261 193.004C70.3927 192.752 69.9641 192.5 69.5401 192.247L68.2791 191.484C67.2384 190.847 66.2231 190.203 65.2331 189.553L64.0481 188.769L63.4681 188.375L62.3251 187.582L61.2041 186.782C60.2794 186.115 59.3768 185.437 58.4961 184.748L57.4491 183.92C57.2764 183.781 57.1044 183.642 56.9331 183.503L55.9151 182.662C54.9071 181.817 53.9264 180.957 52.9731 180.082C37.5991 165.982 29.6131 147.828 28.2321 122.506L28.1851 121.588C26.5244 86.922 10.0177 60.2043 -21.3349 41.435L-22.2899 40.869L-21.6429 39.769Z" fill="white"/>
<path opacity="0.31" d="M-31.8469 39.769C0.183102 58.6103 17.1991 85.5103 19.2011 120.469L19.2571 121.53C20.4781 147.009 28.3321 165.111 43.6331 179.145C45.2038 180.586 46.8511 181.986 48.5751 183.345L49.6221 184.16C50.6788 184.971 51.7674 185.771 52.8881 186.56L54.0201 187.345L55.1751 188.123C56.3418 188.898 57.5438 189.665 58.7811 190.423L60.0321 191.179L60.6671 191.555L61.9561 192.303L62.6101 192.676L63.9381 193.418L64.6121 193.787L65.9811 194.523L67.3811 195.256L68.0901 195.621L69.5281 196.349L70.9951 197.075L71.7401 197.437L73.2521 198.16L74.7941 198.881L76.3671 199.601L77.1671 199.96L78.7871 200.678L80.4381 201.396L82.1221 202.114L82.9761 202.473L84.7101 203.191L86.4771 203.91L88.2771 204.63L90.1141 205.351L91.9861 206.074L92.9351 206.436L94.8611 207.162L96.8241 207.891L98.8241 208.623L100.861 209.358L101.894 209.727L103.989 210.467L106.123 211.211L107.205 211.585L106.79 212.791L104.626 212.041L102.501 211.295L100.415 210.553L98.3671 209.814L96.3571 209.079L94.3841 208.346L92.4481 207.616L90.5481 206.888L88.6841 206.162L86.8551 205.437L85.9551 205.075L84.1771 204.352L82.4331 203.629L80.7221 202.907L79.8791 202.546L78.2171 201.823L77.3981 201.461L75.7841 200.737L74.2011 200.012L73.4211 199.649L71.8841 198.922C71.3768 198.679 70.8744 198.436 70.3771 198.193L68.9001 197.461C68.4128 197.217 67.9298 196.972 67.4511 196.727L66.0311 195.99L65.3311 195.62L63.9521 194.878L62.6001 194.132L61.9341 193.757L60.6221 193.004C60.1888 192.752 59.7601 192.5 59.3361 192.247L58.0751 191.484C57.0344 190.847 56.0191 190.203 55.0291 189.553L53.8441 188.769L53.2641 188.375L52.1211 187.582L51.0001 186.782C50.0754 186.115 49.1728 185.437 48.2921 184.748L47.2451 183.92C47.0724 183.781 46.9004 183.642 46.7291 183.503L45.7111 182.662C44.7031 181.817 43.7224 180.957 42.7691 180.082C27.3951 165.982 19.4091 147.828 18.0281 122.506L17.9811 121.588C16.3204 86.922 -0.18623 60.2043 -31.5389 41.435L-32.4939 40.869L-31.8469 39.769Z" fill="white"/>
</g>
<path d="M92.119 7.05898C92.119 4.24233 94.4024 1.95898 97.219 1.95898H143.141C145.958 1.95898 148.241 4.24233 148.241 7.05898V50.08C148.241 51.0704 147.668 51.9715 146.771 52.3913C145.874 52.8111 144.815 52.6738 144.055 52.039L134.21 43.823H97.219C95.8664 43.823 94.5692 43.2857 93.6128 42.3292C92.6563 41.3728 92.119 40.0756 92.119 38.723V7.05898Z" fill="url(#paint1_linear_1_1434)"/>
<path d="M91.2391 151.117C77.7041 138.579 72.8141 106.873 72.8141 106.873L104.49 57.579C104.49 57.579 115.337 68.89 119.99 77.384C127.377 90.857 133.872 110.328 134.597 120.457C135.997 140.049 137.764 152.511 142.097 162.121C132.782 169.291 122.042 174.389 110.597 177.074C106.305 169.516 99.3311 158.612 91.2391 151.117Z" fill="white"/>
<rect x="57.399" y="5.78598" width="63.777" height="119.901" rx="6.244" fill="#E8ECF0"/>
<rect x="59.9501" y="8.33698" width="58.675" height="114.799" rx="6.244" fill="url(#paint2_linear_1_1434)"/>
<rect opacity="0.44" x="67.604" y="59.358" width="43.368" height="11.48" rx="2" fill="white"/>
<circle opacity="0.44" cx="89.2881" cy="38.95" r="11.48" fill="white"/>
<path d="M111.852 106.431C103.035 90.754 96.5441 88.686 96.5441 88.686C96.5441 88.686 91.0001 91.722 94.0591 100.361C97.1181 109 104.959 116.107 104.959 128.984C104.959 141.861 99.2811 147.046 111.859 157.562C124.437 168.078 127.778 122.651 127.778 122.651C127.778 122.651 120.669 122.107 111.852 106.431Z" fill="url(#paint3_linear_1_1434)"/>
<path d="M120.492 105.97C120.492 105.97 122.163 120.614 113.345 104.937C104.527 89.26 98.037 87.193 98.037 87.193C98.037 87.193 92.493 90.229 95.552 98.868C98.611 107.507 106.452 114.614 106.452 127.491C106.452 140.368 99.9 147.569 112.476 158.085C125.052 168.601 129.276 121.158 129.276 121.158L120.492 105.97Z" fill="white"/>
<path d="M98.036 87.193C98.036 87.193 97.053 89.539 99.961 92.742C101.45 94.5903 104.048 95.1104 106.134 93.978C104.749 92.3304 103.258 90.7753 101.669 89.323C100.59 88.4093 99.3606 87.6887 98.036 87.193V87.193Z" fill="url(#paint4_linear_1_1434)"/>
<path d="M117.308 114.893L113.4 115.973" stroke="#FF73AA" stroke-width="0.78" stroke-linecap="round"/>
<path d="M119.451 115.433L118.501 117.849" stroke="#FF73AA" stroke-width="0.78" stroke-linecap="round"/>
<defs>
<linearGradient id="paint0_linear_1_1434" x1="8.71106" y1="13.439" x2="8.71106" y2="179.259" gradientUnits="userSpaceOnUse">
<stop stop-color="#8DF3ED"/>
<stop offset="1" stop-color="#34D9D1"/>
</linearGradient>
<linearGradient id="paint1_linear_1_1434" x1="92.119" y1="1.95898" x2="92.119" y2="52.6319" gradientUnits="userSpaceOnUse">
<stop stop-color="#FAC47F"/>
<stop offset="1" stop-color="#F8A946"/>
</linearGradient>
<linearGradient id="paint2_linear_1_1434" x1="59.9501" y1="8.33698" x2="59.9501" y2="123.136" gradientUnits="userSpaceOnUse">
<stop stop-color="#A7D7F2"/>
<stop offset="1" stop-color="#4BC0FF"/>
</linearGradient>
<linearGradient id="paint3_linear_1_1434" x1="93.1384" y1="88.686" x2="93.1384" y2="159.142" gradientUnits="userSpaceOnUse">
<stop stop-color="#FF9BD0"/>
<stop offset="1" stop-color="#FF73AA"/>
</linearGradient>
<linearGradient id="paint4_linear_1_1434" x1="97.8761" y1="87.193" x2="97.8761" y2="94.5737" gradientUnits="userSpaceOnUse">
<stop stop-color="#FF9BD0"/>
<stop offset="1" stop-color="#FF73AA"/>
</linearGradient>
</defs>
</svg>
