<svg width="184" height="190" viewBox="0 0 184 190" fill="none" xmlns="http://www.w3.org/2000/svg">
<circle cx="91.6211" cy="101.349" r="82.91" fill="white"/>
<circle cx="91.6211" cy="101.349" r="83.41" stroke="white"/>
<path d="M91.6211 18.439C137.411 18.439 174.531 55.5591 174.531 101.349C174.531 147.139 137.411 184.259 91.6211 184.259C45.8311 184.259 8.71106 147.139 8.71106 101.349C8.71106 55.5591 45.8311 18.439 91.6211 18.439Z" fill="url(#paint0_linear_1_1563)"/>
<mask id="mask0_1_1563" style="mask-type:luminance" maskUnits="userSpaceOnUse" x="8" y="18" width="167" height="167">
<path fill-rule="evenodd" clip-rule="evenodd" d="M91.6211 18.439C137.411 18.439 174.531 55.5591 174.531 101.349C174.531 147.139 137.411 184.259 91.6211 184.259C45.8311 184.259 8.71106 147.139 8.71106 101.349C8.71106 55.5591 45.8311 18.439 91.6211 18.439Z" fill="white"/>
</mask>
<g mask="url(#mask0_1_1563)">
<circle opacity="0.21" cx="132.656" cy="170.228" r="66.328" stroke="white" stroke-width="24"/>
<circle opacity="0.21" cx="45.2821" cy="36.935" r="33.802" fill="white"/>
<path opacity="0.31" d="M-21.6429 44.769C10.3871 63.6103 27.4031 90.5103 29.4051 125.469L29.4611 126.53C30.6821 152.009 38.5361 170.111 53.8371 184.145C55.4077 185.586 57.0551 186.986 58.7791 188.345L59.8261 189.16C60.8827 189.971 61.9714 190.771 63.0921 191.56L64.2241 192.345L65.3791 193.123C66.5457 193.898 67.7477 194.665 68.9851 195.423L70.2361 196.179L70.8711 196.555L72.1601 197.303L72.8141 197.676L74.1421 198.418L74.8161 198.787L76.1851 199.523L77.5851 200.256L78.2941 200.621L79.7321 201.349L81.1991 202.075L81.9441 202.437L83.4561 203.16L84.9981 203.881L86.5711 204.601L87.3711 204.96L88.9911 205.678L90.6421 206.396L92.3261 207.114L93.1801 207.473L94.9141 208.191L96.6811 208.91L98.4811 209.63L100.318 210.351L102.19 211.074L103.139 211.436L105.065 212.162L107.028 212.891L109.028 213.623L111.065 214.358L112.098 214.727L114.193 215.467L116.327 216.211L117.409 216.585L116.994 217.791L114.83 217.041L112.705 216.295L110.619 215.553L108.571 214.814L106.561 214.079L104.588 213.346L102.652 212.616L100.752 211.888L98.8881 211.162L97.0591 210.437L96.1591 210.075L94.3811 209.352L92.6371 208.629L90.9261 207.907L90.0831 207.546L88.4211 206.823L87.6021 206.461L85.9881 205.737L84.4051 205.012L83.6251 204.649L82.0881 203.922C81.5807 203.679 81.0784 203.436 80.5811 203.193L79.1041 202.461C78.6167 202.217 78.1338 201.972 77.6551 201.727L76.2351 200.99L75.5351 200.62L74.1561 199.878L72.8041 199.132L72.1381 198.757L70.8261 198.004C70.3927 197.752 69.9641 197.5 69.5401 197.247L68.2791 196.484C67.2384 195.847 66.2231 195.203 65.2331 194.553L64.0481 193.769L63.4681 193.375L62.3251 192.582L61.2041 191.782C60.2794 191.115 59.3768 190.437 58.4961 189.748L57.4491 188.92C57.2764 188.781 57.1044 188.642 56.9331 188.503L55.9151 187.662C54.9071 186.817 53.9264 185.957 52.9731 185.082C37.5991 170.982 29.6131 152.828 28.2321 127.506L28.1851 126.588C26.5244 91.922 10.0177 65.2043 -21.3349 46.435L-22.2899 45.869L-21.6429 44.769Z" fill="white"/>
<path opacity="0.31" d="M-31.8469 44.769C0.183102 63.6103 17.1991 90.5103 19.2011 125.469L19.2571 126.53C20.4781 152.009 28.3321 170.111 43.6331 184.145C45.2038 185.586 46.8511 186.986 48.5751 188.345L49.6221 189.16C50.6788 189.971 51.7674 190.771 52.8881 191.56L54.0201 192.345L55.1751 193.123C56.3418 193.898 57.5438 194.665 58.7811 195.423L60.0321 196.179L60.6671 196.555L61.9561 197.303L62.6101 197.676L63.9381 198.418L64.6121 198.787L65.9811 199.523L67.3811 200.256L68.0901 200.621L69.5281 201.349L70.9951 202.075L71.7401 202.437L73.2521 203.16L74.7941 203.881L76.3671 204.601L77.1671 204.96L78.7871 205.678L80.4381 206.396L82.1221 207.114L82.9761 207.473L84.7101 208.191L86.4771 208.91L88.2771 209.63L90.1141 210.351L91.9861 211.074L92.9351 211.436L94.8611 212.162L96.8241 212.891L98.8241 213.623L100.861 214.358L101.894 214.727L103.989 215.467L106.123 216.211L107.205 216.585L106.79 217.791L104.626 217.041L102.501 216.295L100.415 215.553L98.3671 214.814L96.3571 214.079L94.3841 213.346L92.4481 212.616L90.5481 211.888L88.6841 211.162L86.8551 210.437L85.9551 210.075L84.1771 209.352L82.4331 208.629L80.7221 207.907L79.8791 207.546L78.2171 206.823L77.3981 206.461L75.7841 205.737L74.2011 205.012L73.4211 204.649L71.8841 203.922C71.3768 203.679 70.8744 203.436 70.3771 203.193L68.9001 202.461C68.4128 202.217 67.9298 201.972 67.4511 201.727L66.0311 200.99L65.3311 200.62L63.9521 199.878L62.6001 199.132L61.9341 198.757L60.6221 198.004C60.1888 197.752 59.7601 197.5 59.3361 197.247L58.0751 196.484C57.0344 195.847 56.0191 195.203 55.0291 194.553L53.8441 193.769L53.2641 193.375L52.1211 192.582L51.0001 191.782C50.0754 191.115 49.1728 190.437 48.2921 189.748L47.2451 188.92C47.0724 188.781 46.9004 188.642 46.7291 188.503L45.7111 187.662C44.7031 186.817 43.7224 185.957 42.7691 185.082C27.3951 170.982 19.4091 152.828 18.0281 127.506L17.9811 126.588C16.3204 91.922 -0.18623 65.2043 -31.5389 46.435L-32.4939 45.869L-31.8469 44.769Z" fill="white"/>
</g>
<path d="M91.2391 156.117C77.7041 143.579 72.8141 111.873 72.8141 111.873L104.49 62.579C104.49 62.579 115.337 73.89 119.99 82.384C127.377 95.857 133.872 115.328 134.597 125.457C135.997 145.049 137.764 157.511 142.097 167.121C132.782 174.291 122.042 179.389 110.597 182.074C106.305 174.516 99.3311 163.612 91.2391 156.117Z" fill="white"/>
<rect x="57.399" y="10.786" width="63.777" height="119.901" rx="6.244" fill="#E8ECF0"/>
<rect x="59.9501" y="13.337" width="58.675" height="114.799" rx="6.244" fill="url(#paint1_linear_1_1563)"/>
<rect opacity="0.44" x="67.604" y="64.358" width="43.368" height="11.48" rx="2" fill="white"/>
<circle opacity="0.44" cx="89.2881" cy="43.95" r="11.48" fill="white"/>
<path d="M111.852 111.431C103.035 95.754 96.5441 93.686 96.5441 93.686C96.5441 93.686 91.0001 96.722 94.0591 105.361C97.1181 114 104.959 121.107 104.959 133.984C104.959 146.861 99.2811 152.046 111.859 162.562C124.437 173.078 127.778 127.651 127.778 127.651C127.778 127.651 120.669 127.107 111.852 111.431Z" fill="url(#paint2_linear_1_1563)"/>
<path d="M120.492 110.97C120.492 110.97 122.163 125.614 113.345 109.937C104.527 94.26 98.037 92.193 98.037 92.193C98.037 92.193 92.493 95.229 95.552 103.868C98.611 112.507 106.452 119.614 106.452 132.491C106.452 145.368 99.9 152.569 112.476 163.085C125.052 173.601 129.276 126.158 129.276 126.158L120.492 110.97Z" fill="white"/>
<path d="M98.036 92.193C98.036 92.193 97.053 94.539 99.961 97.742C101.45 99.5903 104.048 100.11 106.134 98.978C104.749 97.3304 103.258 95.7753 101.669 94.323C100.59 93.4093 99.3606 92.6887 98.036 92.193V92.193Z" fill="url(#paint3_linear_1_1563)"/>
<path d="M117.308 119.893L113.4 120.973" stroke="#FE8270" stroke-width="0.78" stroke-linecap="round"/>
<path d="M119.451 120.433L118.501 122.849" stroke="#FE8270" stroke-width="0.78" stroke-linecap="round"/>
<circle cx="120.501" cy="23.999" r="24" fill="url(#paint4_linear_1_1563)"/>
<rect x="109.5" y="18.435" width="20.87" height="20.87" rx="9.739" fill="white"/>
<circle cx="119.935" cy="26.783" r="2.783" fill="url(#paint5_linear_1_1563)"/>
<rect x="118.822" y="28.174" width="2.226" height="5.565" rx="1.113" fill="url(#paint6_linear_1_1563)"/>
<path d="M112.978 27.478V14.957C112.986 11.5221 115.499 8.60693 118.895 8.09325C122.292 7.57956 125.555 9.62109 126.578 12.9" stroke="white" stroke-width="2.226" stroke-linecap="round"/>
<path d="M129.833 15.369L132.491 13.948" stroke="white" stroke-width="1.948" stroke-linecap="round"/>
<path d="M130.706 19.387L133.685 19.877" stroke="white" stroke-width="1.948" stroke-linecap="round"/>
<defs>
<linearGradient id="paint0_linear_1_1563" x1="8.71106" y1="18.439" x2="8.71106" y2="184.259" gradientUnits="userSpaceOnUse">
<stop stop-color="#8DF3ED"/>
<stop offset="1" stop-color="#34D9D1"/>
</linearGradient>
<linearGradient id="paint1_linear_1_1563" x1="59.9501" y1="13.337" x2="59.9501" y2="128.136" gradientUnits="userSpaceOnUse">
<stop stop-color="#C1B2FF"/>
<stop offset="1" stop-color="#9B87FF"/>
</linearGradient>
<linearGradient id="paint2_linear_1_1563" x1="93.1384" y1="93.686" x2="93.1384" y2="164.142" gradientUnits="userSpaceOnUse">
<stop stop-color="#FFD5CF"/>
<stop offset="1" stop-color="#FE8270"/>
</linearGradient>
<linearGradient id="paint3_linear_1_1563" x1="97.8761" y1="92.193" x2="97.8761" y2="99.5737" gradientUnits="userSpaceOnUse">
<stop stop-color="#FFD5CF"/>
<stop offset="1" stop-color="#FE8270"/>
</linearGradient>
<linearGradient id="paint4_linear_1_1563" x1="96.5011" y1="-0.00100708" x2="96.5011" y2="47.999" gradientUnits="userSpaceOnUse">
<stop stop-color="#FFD5CF"/>
<stop offset="1" stop-color="#FE8270"/>
</linearGradient>
<linearGradient id="paint5_linear_1_1563" x1="117.152" y1="24" x2="117.152" y2="29.566" gradientUnits="userSpaceOnUse">
<stop stop-color="#FFD5CF"/>
<stop offset="1" stop-color="#FE8270"/>
</linearGradient>
<linearGradient id="paint6_linear_1_1563" x1="118.822" y1="28.174" x2="118.822" y2="33.739" gradientUnits="userSpaceOnUse">
<stop stop-color="#FFD5CF"/>
<stop offset="1" stop-color="#FE8270"/>
</linearGradient>
</defs>
</svg>
