<svg width="238" height="191" viewBox="0 0 238 191" fill="none" xmlns="http://www.w3.org/2000/svg">
<path d="M120.319 184.782C169.611 184.782 209.571 144.663 209.571 95.176C209.571 45.689 169.611 5.571 120.319 5.571C71.027 5.571 31.068 45.69 31.068 95.176C31.068 144.662 71.027 184.782 120.319 184.782Z" fill="#31343B"/>
<path d="M61.389 23.724C63.1226 23.1651 64.3483 21.6164 64.4939 19.8007C64.6395 17.9851 63.6763 16.2608 62.0539 15.4328C60.4315 14.6049 58.47 14.8366 57.0852 16.0198C55.7003 17.203 55.1654 19.1043 55.73 20.836C56.5009 23.1913 59.0294 24.4818 61.389 23.724Z" fill="#31343B"/>
<path d="M70.216 9C71.4587 9.00648 72.5827 8.26287 73.0628 7.11659C73.5428 5.97031 73.2842 4.64766 72.4078 3.76661C71.5313 2.88557 70.21 2.62005 69.0613 3.09412C67.9125 3.56819 67.163 4.68826 67.163 5.931C67.1593 6.74332 67.4792 7.52366 68.0521 8.09956C68.625 8.67546 69.4037 8.99948 70.216 9Z" fill="#31343B"/>
<path d="M235.676 69.6C237.728 67.7373 238.454 64.8209 237.515 62.2134C236.576 59.6058 234.157 57.822 231.389 57.6954C228.62 57.5688 226.049 59.1244 224.876 61.6353C223.702 64.1462 224.159 67.1168 226.033 69.159C228.588 71.9141 232.88 72.1104 235.676 69.6Z" fill="#31343B"/>
<path d="M170.342 8.09801C171.514 7.02261 171.596 5.20169 170.524 4.02601C170.013 3.45839 169.296 3.11965 168.533 3.08581C167.77 3.05197 167.025 3.32585 166.466 3.84601C165.294 4.92113 165.212 6.74206 166.283 7.91801C166.794 8.48594 167.512 8.82487 168.275 8.85872C169.038 8.89256 169.783 8.61848 170.342 8.09801Z" fill="#31343B"/>
<path d="M158.403 183.177C144.474 183.538 127.803 183.177 116.07 182.996C104.341 183.357 87.664 183.538 73.735 183.177C87.48 175.254 92.246 160.711 92.978 151.142H138.978C140.076 160.71 144.841 175.434 158.403 183.177Z" fill="#31343B"/>
<path d="M75.201 185.564H157.119C158.338 185.564 159.326 184.576 159.326 183.358C159.326 182.139 158.338 181.151 157.119 181.151H75.201C73.9913 181.169 73.016 182.147 73.001 183.357C73.0701 184.543 74.0148 185.491 75.201 185.564Z" fill="#31343B"/>
<path d="M24.071 184.661H211.181" stroke="#2B323C" stroke-width="2" stroke-linecap="round" stroke-linejoin="round"/>
<path d="M203.118 29.22V149.657C203.124 151.022 202.587 152.333 201.624 153.301C200.661 154.268 199.352 154.812 197.987 154.812H35.068C32.2515 154.748 29.9868 152.474 29.935 149.657V29.22C29.9868 26.4032 32.2515 24.1289 35.068 24.065H197.987C199.361 24.0341 200.688 24.5681 201.658 25.5424C202.628 26.5166 203.155 27.8459 203.118 29.22Z" fill="#31343B"/>
<path d="M203.118 29.22V132.907H29.935V29.22C29.9868 26.4032 32.2515 24.1289 35.068 24.065H197.987C199.361 24.0341 200.688 24.5681 201.658 25.5424C202.628 26.5166 203.155 27.8459 203.118 29.22Z" fill="#31343B"/>
<path d="M196.887 30.143H36.167V126.649H196.887V30.143Z" fill="#31343B"/>
<path opacity="0.4" d="M192.674 42.119C192.691 41.8704 192.6 41.6265 192.425 41.4497C192.249 41.2729 192.006 41.1804 191.757 41.196H180.212C179.963 41.1801 179.72 41.2724 179.544 41.4493C179.368 41.6262 179.277 41.8703 179.295 42.119V42.841H78.316V44.141H179.295V45.064C179.281 45.3118 179.373 45.554 179.548 45.7301C179.722 45.9062 179.964 45.9996 180.212 45.987H191.756C192.004 45.999 192.245 45.9054 192.42 45.7294C192.595 45.5535 192.687 45.3117 192.673 45.064V42.116L192.674 42.119Z" fill="#31343B"/>
<path opacity="0.4" d="M192.674 64.947C192.688 64.6993 192.596 64.4575 192.421 64.2816C192.246 64.1056 192.005 64.012 191.757 64.024H180.212C179.964 64.0114 179.722 64.1048 179.548 64.2809C179.373 64.457 179.281 64.6992 179.295 64.947V65.689H78.316V67.153H179.295V67.895C179.277 68.1437 179.368 68.3878 179.544 68.5647C179.72 68.7416 179.963 68.8339 180.212 68.818H191.756C192.005 68.8336 192.248 68.7411 192.424 68.5643C192.599 68.3876 192.69 68.1436 192.673 67.895V64.946L192.674 64.947Z" fill="#31343B"/>
<path opacity="0.4" d="M192.674 87.795C192.691 87.5464 192.6 87.3024 192.425 87.1257C192.249 86.9489 192.006 86.8564 191.757 86.872H180.212C179.963 86.8561 179.72 86.9484 179.544 87.1253C179.368 87.3022 179.277 87.5463 179.295 87.795V88.517H78.316V89.801H179.295V90.543C179.277 90.7917 179.368 91.0358 179.544 91.2127C179.72 91.3896 179.963 91.4819 180.212 91.466H191.756C192.005 91.4816 192.248 91.3891 192.424 91.2123C192.599 91.0356 192.69 90.7916 192.673 90.543V87.795H192.674Z" fill="#31343B"/>
<path opacity="0.4" d="M192.674 110.8C192.688 110.552 192.596 110.311 192.421 110.135C192.246 109.959 192.005 109.865 191.757 109.877H180.212C179.964 109.864 179.722 109.958 179.548 110.134C179.373 110.31 179.281 110.552 179.295 110.8V111.542H78.316V112.826H179.295V113.568C179.281 113.816 179.373 114.058 179.548 114.234C179.722 114.41 179.964 114.504 180.212 114.491H191.756C192.004 114.503 192.245 114.41 192.42 114.234C192.595 114.058 192.687 113.816 192.673 113.568V110.8H192.674Z" fill="#31343B"/>
<path d="M69.887 119.087H44.046C43.0142 119.111 42.0178 118.711 41.2904 117.978C40.5629 117.246 40.1682 116.248 40.199 115.216V42.661C40.1717 41.6304 40.5675 40.6336 41.2942 39.9023C42.0209 39.1711 43.0153 38.7691 44.046 38.79H69.887C70.9179 38.7692 71.9125 39.171 72.6395 39.9022C73.3665 40.6334 73.7627 41.6302 73.736 42.661V115.417C73.6469 117.476 71.9474 119.096 69.887 119.087Z" fill="#31343B"/>
<path d="M57.059 48.92C58.3987 48.9241 59.6087 48.1202 60.1242 46.8836C60.6396 45.6471 60.3589 44.2218 59.4131 43.273C58.4672 42.3243 57.0427 42.0393 55.8046 42.551C54.5665 43.0628 53.759 44.2703 53.759 45.61C53.7577 46.4866 54.1046 47.3277 54.7235 47.9485C55.3423 48.5692 56.1825 48.9187 57.059 48.92Z" fill="#31343B"/>
<path d="M67.508 52.971H46.43C46.2799 52.9938 46.1279 52.9445 46.0197 52.8381C45.9114 52.7316 45.8597 52.5804 45.88 52.43C45.8549 52.2768 45.9042 52.1208 46.0128 52.0099C46.1214 51.8989 46.2763 51.8462 46.43 51.868H67.508C67.6617 51.8462 67.8166 51.8989 67.9252 52.0099C68.0338 52.1208 68.0831 52.2768 68.058 52.43C68.238 52.608 67.871 52.971 67.508 52.971Z" fill="#31343B"/>
<path d="M67.508 57.404H46.43C46.2763 57.4258 46.1214 57.3731 46.0128 57.2622C45.9042 57.1512 45.8549 56.9952 45.88 56.842C45.8593 56.6914 45.9109 56.5399 46.0192 56.4332C46.1275 56.3265 46.2797 56.2772 46.43 56.3H67.508C67.6583 56.2772 67.8105 56.3265 67.9188 56.4332C68.027 56.5399 68.0786 56.6914 68.058 56.842C68.238 57.224 67.871 57.404 67.508 57.404Z" fill="#31343B"/>
<path d="M67.508 65.127H46.43C46.2797 65.1499 46.1275 65.1005 46.0192 64.9938C45.9109 64.8871 45.8593 64.7356 45.88 64.585C45.8549 64.4318 45.9042 64.2758 46.0128 64.1649C46.1214 64.0539 46.2763 64.0013 46.43 64.023H67.508C67.6617 64.0013 67.8166 64.0539 67.9252 64.1649C68.0338 64.2758 68.0831 64.4318 68.058 64.585C68.238 64.766 67.871 65.127 67.508 65.127Z" fill="#31343B"/>
<path d="M53.943 69.56H46.243C45.9446 69.5366 45.709 69.2968 45.691 68.998V68.817C45.709 68.5182 45.9446 68.2784 46.243 68.255H53.943C54.2406 68.2794 54.4751 68.5189 54.493 68.817V68.998C54.5129 69.1501 54.4619 69.303 54.3546 69.4127C54.2473 69.5223 54.0955 69.5766 53.943 69.56Z" fill="#31343B"/>
<path d="M67.508 77.664H46.43C46.1291 77.6513 45.8917 77.4037 45.8917 77.1025C45.8917 76.8013 46.1291 76.5537 46.43 76.541H67.508C67.6605 76.5244 67.8123 76.5787 67.9196 76.6883C68.0269 76.798 68.0779 76.9509 68.058 77.103C68.238 77.281 67.871 77.664 67.508 77.664Z" fill="#31343B"/>
<path d="M53.943 82.077H46.243C45.9417 82.0597 45.7029 81.8165 45.691 81.515V81.334C45.7109 81.0395 45.9482 80.8065 46.243 80.792H53.943C54.237 80.8075 54.4732 81.0402 54.493 81.334V81.513C54.5183 81.6664 54.4692 81.8227 54.3606 81.9341C54.2521 82.0454 54.097 82.0985 53.943 82.077Z" fill="#31343B"/>
<path d="M67.508 90.001H46.43C46.2775 90.0176 46.1257 89.9633 46.0184 89.8537C45.9111 89.744 45.8601 89.5911 45.88 89.439C45.8594 89.2884 45.9109 89.1369 46.0192 89.0302C46.1275 88.9235 46.2797 88.8741 46.43 88.897H67.508C67.6583 88.8741 67.8105 88.9235 67.9188 89.0302C68.0271 89.1369 68.0786 89.2884 68.058 89.439C68.238 89.801 67.871 90.001 67.508 90.001Z" fill="#31343B"/>
<path d="M53.943 94.59H46.243C45.9482 94.5755 45.7109 94.3425 45.691 94.048V93.848C45.711 93.5537 45.9483 93.3211 46.243 93.307H53.943C54.2367 93.3225 54.4727 93.5546 54.493 93.848V94.048C54.5132 94.1985 54.4615 94.3497 54.3533 94.4563C54.2452 94.5629 54.0932 94.6124 53.943 94.59Z" fill="#31343B"/>
<path d="M81.983 96.259H78.316V100.311H81.983V96.259Z" fill="#31343B"/>
<path d="M87.297 84.284H83.632V99.93H87.297V84.284Z" fill="#31343B"/>
<path d="M92.613 78.025H88.946V84.283H92.613V78.025Z" fill="#31343B"/>
<path d="M97.926 78.025H94.261V81.896H97.926V78.025Z" fill="#31343B"/>
<path d="M103.235 81.515H99.575V87.593H103.235V81.515Z" fill="#31343B"/>
<path d="M108.371 78.386H104.708V87.794H108.373L108.371 78.386Z" fill="#31343B"/>
<path d="M113.687 75.999H110.022V78.767H113.687V75.999Z" fill="#31343B"/>
<path d="M119.001 67.333H115.339V75.818H119.004L119.001 67.333Z" fill="#31343B"/>
<path d="M124.316 69.741H120.651V75.999H124.316V69.741Z" fill="#31343B"/>
<path d="M129.63 66.431H125.969V69.179H129.634L129.63 66.431Z" fill="#31343B"/>
<path d="M134.946 54.455H131.279V66.791H134.946V54.455Z" fill="#31343B"/>
<path d="M140.077 54.455H136.408V56.1H140.073L140.077 54.455Z" fill="#31343B"/>
<path d="M145.391 56.1H141.726V59.43H145.391V56.1Z" fill="#31343B"/>
<path d="M150.707 50.764H147.038V59.43H150.705L150.707 50.764Z" fill="#31343B"/>
<path d="M156.02 50.764H152.355V53.893H156.02V50.764Z" fill="#31343B"/>
<path d="M161.334 50.764H157.668V53.532H161.333L161.334 50.764Z" fill="#31343B"/>
<path d="M166.65 50.764H162.985V65.864H166.65V50.764Z" fill="#31343B"/>
<path d="M171.964 65.127H168.299V80.227H171.964V65.127Z" fill="#31343B"/>
<path d="M177.095 81.897H173.43V85.387H177.095V81.897Z" fill="#31343B"/>
<path d="M182.411 75.999H178.746V85.387H182.411V75.999Z" fill="#31343B"/>
<path d="M187.725 70.102H184.06V76.18H187.725V70.102Z" fill="#31343B"/>
<path d="M116.253 148.74C117.967 148.748 119.516 147.721 120.177 146.14C120.839 144.559 120.481 142.735 119.272 141.52C118.062 140.306 116.24 139.94 114.656 140.595C113.072 141.249 112.039 142.794 112.039 144.508C112.035 145.628 112.477 146.704 113.268 147.498C114.059 148.292 115.133 148.739 116.253 148.74Z" fill="#31343B"/>
<path d="M231.115 36.081C231.115 36.981 230.934 37.886 230.934 38.789C230.86 39.6507 230.68 40.4999 230.396 41.317C230.215 41.859 230.215 42.581 230.037 43.122C229.678 44.386 229.317 45.469 228.958 46.733C228.78 47.275 228.42 47.796 228.24 48.333V48.514C224.49 56.8427 217.575 63.3331 209.025 66.548C208.307 66.909 207.41 67.089 206.69 67.448C206.236 67.6524 205.75 67.7747 205.254 67.809C205.075 67.809 204.895 67.99 204.536 67.99C203.835 68.1975 203.112 68.3187 202.382 68.351C198.212 69.0122 193.96 68.951 189.811 68.17C175.371 65.2296 164.403 53.4254 162.53 38.8085C160.657 24.1917 168.294 10.0035 181.526 3.51706C194.758 -2.96933 210.651 -0.315557 221.058 10.118C228.043 16.8868 231.718 26.3728 231.115 36.081Z" fill="#31343B"/>
<path d="M210.605 41.839V47.239C210.611 47.6228 210.462 47.9928 210.191 48.2648C209.92 48.5368 209.551 48.6876 209.167 48.683H205.396C205.012 48.6874 204.643 48.5364 204.373 48.2644C204.102 47.9924 203.953 47.6225 203.96 47.239V33.719C203.953 33.3354 204.102 32.9654 204.373 32.6933C204.643 32.4211 205.012 32.2699 205.396 32.274H209.167C209.551 32.2691 209.921 32.42 210.192 32.6922C210.463 32.9645 210.612 33.3349 210.605 33.719V41.839Z" fill="#31343B"/>
<path d="M194.081 39.13H197.848C198.232 39.1251 198.601 39.2758 198.872 39.5479C199.143 39.82 199.293 40.1901 199.286 40.574V47.234C199.292 47.6178 199.143 47.9878 198.872 48.2598C198.601 48.5318 198.232 48.6827 197.848 48.678H194.077C193.693 48.6824 193.324 48.5314 193.054 48.2594C192.783 47.9874 192.634 47.6176 192.641 47.234V40.393C192.708 39.6557 193.341 39.1003 194.081 39.13Z" fill="#31343B"/>
<path d="M182.768 44.526H186.539C186.923 44.5216 187.292 44.6726 187.562 44.9446C187.833 45.2166 187.982 45.5865 187.975 45.97V47.234C187.982 47.6175 187.833 47.9874 187.562 48.2594C187.292 48.5314 186.923 48.6824 186.539 48.678H182.768C182.384 48.6824 182.015 48.5314 181.745 48.2594C181.474 47.9874 181.325 47.6175 181.332 47.234V45.97C181.326 45.5865 181.475 45.2169 181.745 44.9449C182.016 44.673 182.385 44.5219 182.768 44.526Z" fill="#31343B"/>
<path d="M209.347 19.292C209.926 19.3332 210.386 19.7956 210.424 20.375V27.396C210.446 27.545 210.396 27.6954 210.29 27.8021C210.183 27.9087 210.033 27.9591 209.884 27.938H207.91C207.761 27.9591 207.611 27.9087 207.504 27.8021C207.398 27.6954 207.348 27.545 207.37 27.396V24.889C200.001 31.9487 191.425 37.6287 182.049 41.659H181.69C181.511 41.659 181.511 41.479 181.511 41.298V38.951C181.516 38.6685 181.648 38.4032 181.87 38.229C190.618 34.4281 198.593 29.0495 205.394 22.362H202.522C202.373 22.3831 202.223 22.3327 202.116 22.2261C202.01 22.1194 201.96 21.969 201.982 21.82V19.654C201.96 19.505 202.01 19.3546 202.116 19.2479C202.223 19.1413 202.373 19.0909 202.522 19.112L209.347 19.292Z" fill="#31343B"/>
<path d="M42.67 182.856V188.072C42.453 188.493 42.237 188.934 41.803 188.934H0.866999C0.404718 188.9 0.0363303 188.534 -8.15373e-07 188.072V182.856C-0.0589039 182.314 0.326602 181.825 0.866999 181.756H41.588C41.8824 181.741 42.169 181.853 42.3757 182.063C42.5824 182.273 42.6895 182.562 42.67 182.856Z" fill="#31343B"/>
<path opacity="0.5" d="M9.53 181.753L8.23 188.934H2.383L3.683 181.753H9.53Z" fill="#31343B"/>
<path opacity="0.5" d="M30.324 181.753L29.024 188.934H25.558L27.074 181.753H30.324Z" fill="#31343B"/>
<path opacity="0.5" d="M11.913 181.753L10.613 188.934H9.096L10.396 181.753H11.913Z" fill="#31343B"/>
<path opacity="0.1" d="M42.67 188.071H0V188.934H42.67V188.071Z" fill="#31343B"/>
<path d="M50.253 175.895V181.111C50.036 181.532 49.82 181.973 49.386 181.973H8.448C7.98572 181.939 7.61733 181.573 7.581 181.111V175.895C7.5221 175.353 7.9076 174.864 8.448 174.795H49.171C49.82 174.591 50.253 175.233 50.253 175.895Z" fill="#31343B"/>
<path opacity="0.5" d="M15.596 174.591L14.296 181.753H8.447L9.963 174.591H15.596Z" fill="#31343B"/>
<path opacity="0.5" d="M35.09 174.591L33.574 181.753H30.108L31.625 174.591H35.09Z" fill="#31343B"/>
<path opacity="0.5" d="M17.977 174.591L16.677 181.753H15.163L16.677 174.591H17.977Z" fill="#31343B"/>
<path opacity="0.1" d="M50.253 180.89H7.581V181.753H50.254L50.253 180.89Z" fill="#31343B"/>
<path d="M48.953 168.714V173.488C49.0119 174.03 48.6264 174.519 48.086 174.588H7.359C6.81941 174.518 6.43503 174.029 6.494 173.488V168.714C6.4349 168.176 6.82163 167.692 7.359 167.631H48.082C48.6212 167.69 49.0108 168.175 48.953 168.714Z" fill="#31343B"/>
<path opacity="0.5" d="M17.327 167.631L16.027 174.592H10.18L11.696 167.631H17.327Z" fill="#31343B"/>
<path opacity="0.5" d="M36.823 167.631L35.307 174.592H31.841L33.358 167.631H36.823Z" fill="#31343B"/>
<path opacity="0.5" d="M19.71 167.631L18.41 174.592H16.894L18.41 167.631H19.71Z" fill="#31343B"/>
<path opacity="0.1" d="M48.95 173.929H6.281V174.791H48.95V173.929Z" fill="#31343B"/>
<path d="M50.253 161.532V166.326C50.3021 166.861 49.9191 167.34 49.386 167.409H8.448C7.91487 167.34 7.5319 166.861 7.581 166.326V161.532C7.5319 160.997 7.91487 160.518 8.448 160.449H49.171C49.7535 160.485 50.2177 160.949 50.253 161.532Z" fill="#31343B"/>
<path opacity="0.5" d="M18.627 160.449L17.112 167.63H11.479L12.779 160.449H18.627Z" fill="#31343B"/>
<path opacity="0.5" d="M37.906 160.449L36.606 167.63H33.14L34.656 160.449H37.906Z" fill="#31343B"/>
<path opacity="0.5" d="M21.01 160.449L19.494 167.63H18.194L19.494 160.449H21.01Z" fill="#31343B"/>
<path opacity="0.1" d="M50.253 166.748H7.581V167.631H50.254L50.253 166.748Z" fill="#31343B"/>
<path d="M43.534 154.569V159.363C43.5831 159.898 43.2001 160.377 42.667 160.446H1.734C1.20087 160.377 0.817899 159.898 0.867001 159.363V154.569C0.817899 154.034 1.20087 153.555 1.734 153.486H42.455C42.7462 153.471 43.03 153.581 43.2358 153.787C43.4416 153.994 43.55 154.278 43.534 154.569Z" fill="#31343B"/>
<path opacity="0.5" d="M20.793 153.489L19.276 160.45H13.643L14.943 153.489H20.793Z" fill="#31343B"/>
<path opacity="0.5" d="M40.071 153.489L38.771 160.45H35.306L36.822 153.489H40.071Z" fill="#31343B"/>
<path opacity="0.5" d="M23.176 153.489L21.876 160.45H20.36L21.66 153.489H23.176Z" fill="#31343B"/>
<path opacity="0.1" d="M43.534 159.587H0.863998V160.45H43.534V159.587Z" fill="#31343B"/>
<path d="M92.492 182.198V186.972C92.5509 187.513 92.166 188.002 91.626 188.072H50.903C50.3626 188.003 49.9771 187.514 50.036 186.972V182.198C49.9781 181.66 50.3654 181.176 50.903 181.115H91.624C92.057 180.89 92.492 181.532 92.492 182.198Z" fill="#31343B"/>
<path opacity="0.5" d="M61.083 180.89L59.566 188.072H53.717L55.233 180.89H61.083Z" fill="#31343B"/>
<path opacity="0.5" d="M80.36 180.89L78.844 188.072H75.38L76.894 180.89H80.36Z" fill="#31343B"/>
<path opacity="0.5" d="M63.464 180.89L61.949 188.072H60.433L61.949 180.89H63.464Z" fill="#31343B"/>
<path opacity="0.1" d="M92.49 187.189H49.82V188.072H92.49V187.189Z" fill="#31343B"/>
<path d="M138.41 182.198V186.972C138.469 187.514 138.083 188.003 137.543 188.072H96.82C96.2796 188.003 95.8941 187.514 95.953 186.972V182.198C95.8945 181.66 96.2821 181.176 96.82 181.115H137.541C137.977 180.89 138.41 181.532 138.41 182.198Z" fill="#31343B"/>
<path opacity="0.5" d="M107.003 180.89L105.486 188.072H99.639L101.154 180.89H107.003Z" fill="#31343B"/>
<path opacity="0.5" d="M126.28 180.89L124.764 188.072H121.299L122.814 180.89H126.28Z" fill="#31343B"/>
<path opacity="0.5" d="M109.386 180.89L107.87 188.072H106.353L107.87 180.89H109.386Z" fill="#31343B"/>
<path opacity="0.1" d="M138.412 187.189H95.742V188.072H138.412V187.189Z" fill="#31343B"/>
<path d="M93.357 175.012V179.806C93.4061 180.341 93.0237 180.819 92.491 180.889H51.768C51.2349 180.82 50.8519 180.341 50.901 179.806V175.012C50.8519 174.477 51.2349 173.998 51.768 173.929H92.491C93.0237 173.999 93.4061 174.477 93.357 175.012Z" fill="#31343B"/>
<path opacity="0.5" d="M61.733 173.929L60.433 180.889H54.584L56.1 173.929H61.733Z" fill="#31343B"/>
<path opacity="0.5" d="M81.01 173.929L79.71 180.889H76.246L77.761 173.929H81.01Z" fill="#31343B"/>
<path opacity="0.5" d="M64.114 173.929L62.814 180.889H61.298L62.814 173.929H64.114Z" fill="#31343B"/>
<path opacity="0.1" d="M93.356 180.228H50.686V181.111H93.356V180.228Z" fill="#31343B"/>
<path d="M84.223 171.442V175.413C84.2672 175.858 83.9487 176.257 83.505 176.313H49.743C49.2993 176.257 48.9808 175.858 49.025 175.413V171.442C48.9808 170.997 49.2993 170.598 49.743 170.542H83.505C83.9487 170.598 84.2672 170.997 84.223 171.442Z" fill="#31343B"/>
<path opacity="0.5" d="M65.368 170.539L64.291 176.497H59.443L60.699 170.539H65.368Z" fill="#31343B"/>
<path opacity="0.5" d="M81.529 170.539L80.271 176.497H77.398L78.656 170.539H81.529Z" fill="#31343B"/>
<path opacity="0.5" d="M67.344 170.539L66.265 176.497H65.009L66.265 170.539H67.344Z" fill="#31343B"/>
<path opacity="0.1" d="M84.224 175.775H48.847V176.497H84.224V175.775Z" fill="#31343B"/>
<path d="M85.373 150.239C85.064 151.822 84.5536 153.359 83.854 154.813C83.637 155.034 83.639 155.475 83.423 155.676C82.9072 156.772 82.2517 157.796 81.473 158.724C81.256 159.166 80.823 159.386 80.606 159.824C78.8356 161.949 76.6155 163.655 74.106 164.819C73.673 165.04 73.241 165.26 72.806 165.461C71.939 165.682 71.29 166.123 70.423 166.344C67.1784 167.248 63.7692 167.392 60.46 166.765C49.0457 164.384 41.7008 153.227 44.0251 141.801C46.3495 130.375 57.4695 122.975 68.907 125.242C74.41 126.363 79.2399 129.63 82.3291 134.32C85.4183 139.01 86.5126 144.737 85.37 150.236L85.373 150.239Z" fill="#31343B"/>
<path fill-rule="evenodd" clip-rule="evenodd" d="M61.113 163.519C62.3253 163.774 63.5577 163.922 64.796 163.96C66.4266 163.989 68.0464 163.69 69.559 163.08C69.7821 163.08 70.0621 162.963 70.3992 162.822C70.7179 162.69 71.0877 162.535 71.509 162.438C71.8388 162.17 72.203 161.947 72.592 161.776C74.6306 160.643 76.4614 159.171 78.006 157.423C78.1142 157.313 78.2222 157.153 78.3302 156.992C78.4387 156.831 78.5472 156.67 78.656 156.56C78.8725 156.13 79.1427 155.695 79.4129 155.26C79.6844 154.822 79.956 154.385 80.173 153.953L80.1788 153.947C80.3929 153.728 80.606 153.51 80.606 153.291C81.263 152.151 81.7038 150.9 81.906 149.6C83.2226 143.706 81.4232 137.549 77.14 133.292C74.7307 130.836 71.6354 129.165 68.26 128.498C63.6145 127.581 58.7945 128.517 54.83 131.106C50.8669 133.686 48.129 137.772 47.25 142.419C45.3456 152.056 51.5123 161.441 61.113 163.519ZM55.697 132.427C58.3396 130.709 61.4248 129.796 64.577 129.799C65.7513 129.714 66.9308 129.864 68.046 130.242C72.2793 131.059 76.0024 133.553 78.3686 137.157C80.7347 140.761 81.5428 145.169 80.609 149.378C80.3764 150.578 80.0132 151.748 79.526 152.869C79.5524 153.105 79.4729 153.34 79.309 153.511C78.9339 154.382 78.4221 155.188 77.793 155.898C77.6845 156.008 77.5763 156.174 77.468 156.339C77.3598 156.505 77.2515 156.67 77.143 156.78C75.7963 158.44 74.0941 159.777 72.162 160.692C71.9462 160.802 71.7841 160.857 71.6221 160.912C71.4591 160.967 71.2962 161.022 71.079 161.133C70.416 161.305 69.7647 161.519 69.129 161.774C66.5739 162.398 63.9154 162.474 61.329 161.995C52.6238 159.961 47.0782 151.416 48.766 142.637C49.6133 138.442 52.1107 134.763 55.697 132.427Z" fill="#31343B"/>
<path fill-rule="evenodd" clip-rule="evenodd" d="M63.03 156.758H61.076V153.488C59.7783 153.378 58.4737 153.378 57.176 153.488C57.1967 152.746 57.3431 152.014 57.609 151.321C57.609 151.21 57.609 151.155 57.6366 151.127C57.6639 151.1 57.7182 151.1 57.826 151.1H58.909C59.559 151.1 59.559 150.88 59.559 150.438V142.174C59.559 141.311 59.126 141.091 58.476 141.091H57.176V139.126H60.642C60.7534 139.126 60.8077 139.126 60.834 139.099C60.859 139.073 60.859 139.023 60.859 138.926V135.656H62.807V138.926H64.323V135.656H66.273V138.926C66.273 139.023 66.273 139.073 66.298 139.099C66.3243 139.126 66.3785 139.126 66.49 139.126C68.873 139.347 70.823 140.226 70.823 142.396C70.91 143.152 70.7586 143.916 70.39 144.582C70.1456 144.82 69.9009 144.993 69.6953 145.14L69.6953 145.14C69.5366 145.252 69.4011 145.349 69.307 145.445C70.4883 145.672 71.4702 146.49 71.907 147.611C72.0858 148.25 72.1591 148.914 72.124 149.577C72.1076 150.276 71.8811 150.954 71.474 151.523C71.0231 152.199 70.3212 152.667 69.524 152.823C68.6128 153.148 67.6683 153.37 66.708 153.485C66.6 153.485 66.5457 153.485 66.5185 153.512C66.491 153.54 66.491 153.595 66.491 153.705V156.955H64.541V153.705H63.024L63.03 156.758ZM63.03 146.749V150.881C64.98 150.881 66.063 150.881 67.363 150.219C68.013 150.019 68.23 149.577 68.446 148.919C68.4817 148.232 68.1526 147.576 67.58 147.194C66.0944 146.817 64.5604 146.667 63.03 146.749ZM63.03 145.003V141.092C64.204 140.923 65.4018 141.075 66.496 141.533C67.183 141.845 67.5847 142.571 67.485 143.319C67.3853 144.067 66.8078 144.661 66.063 144.783C65.062 144.958 64.0458 145.032 63.03 145.003Z" fill="#31343B"/>
<path d="M190.356 177.219V189.475H167.189V187.49H148.873V189.475H125.887V177.219H190.356Z" fill="#31343B"/>
<path d="M167.189 187.489H148.873V189.475H167.189V187.489Z" fill="#31343B"/>
<path d="M167.189 177.219H148.873V187.49H167.189V177.219Z" fill="#31343B"/>
<path d="M190.176 188.934H125.707V189.834H190.176V188.934Z" fill="#31343B"/>
<path d="M197.722 164.602V176.858H174.553V175.058H156.235V176.858H133.249V164.602H197.722Z" fill="#31343B"/>
<path d="M174.549 175.053H156.235V177.039H174.549V175.053Z" fill="#31343B"/>
<path d="M174.549 164.602H156.235V174.873H174.549V164.602Z" fill="#31343B"/>
<path d="M197.722 176.316H133.249V177.216H197.722V176.316Z" fill="#31343B"/>
<path d="M195.921 152.165V164.421H172.936V162.435H154.621V164.421H131.453V152.165H195.921Z" fill="#31343B"/>
<path d="M172.938 162.435H154.618V164.421H172.938V162.435Z" fill="#31343B"/>
<path d="M172.938 152.165H154.618V162.435H172.938V152.165Z" fill="#31343B"/>
<path d="M195.921 163.699H131.453V164.599H195.921V163.699Z" fill="#31343B"/>
<path d="M197.722 139.528V151.804H174.553V149.818H156.235V151.804H133.249V139.528H197.722Z" fill="#31343B"/>
<path d="M174.549 149.818H156.235V151.804H174.549V149.818Z" fill="#31343B"/>
<path d="M174.549 139.528H156.235V149.818H174.549V139.528Z" fill="#31343B"/>
<path d="M197.722 151.262H133.249V152.162H197.722V151.262Z" fill="#31343B"/>
<path opacity="0.4" d="M195.923 159.005H160.546V189.475H195.923V159.005Z" fill="#31343B"/>
<path d="M228.431 160.089H163.781V190.559H228.431V160.089Z" fill="#31343B"/>
<path d="M226.452 161.894H165.575V188.573H226.451L226.452 161.894Z" fill="#31343B"/>
<path fill-rule="evenodd" clip-rule="evenodd" d="M219.808 163.88C219.824 165.114 220.342 166.288 221.244 167.13C222.083 168.021 223.247 168.537 224.471 168.559V182.28C223.244 182.291 222.075 182.806 221.239 183.704C220.338 184.547 219.819 185.72 219.803 186.954H172.033C172.017 185.72 171.498 184.547 170.597 183.704C169.761 182.806 168.593 182.291 167.366 182.28V168.554C168.571 168.452 169.709 167.951 170.597 167.13C171.499 166.288 172.017 165.114 172.033 163.88H219.808ZM189.099 175.414C189.099 179.928 192.152 183.699 195.923 183.699C199.694 183.699 202.747 179.928 202.567 175.414C202.567 170.901 199.694 167.13 195.923 167.13C192.152 167.13 189.099 170.72 189.099 175.414Z" fill="#31343B"/>
</svg>
