<svg width="228" height="227" viewBox="0 0 228 227" fill="none" xmlns="http://www.w3.org/2000/svg">
<path fill-rule="evenodd" clip-rule="evenodd" d="M116.376 225.342C177.376 225.342 226.817 175.26 226.817 113.5C226.817 51.74 177.372 1.65802 116.376 1.65802C55.38 1.65802 5.935 51.74 5.935 113.5C5.935 175.26 55.381 225.342 116.376 225.342Z" stroke="#2A2E38" stroke-width="2" stroke-linecap="round" stroke-linejoin="round" stroke-dasharray="1"/>
<path d="M208.919 113.501C208.91 134.261 202.161 154.458 189.686 171.052C171.673 194.496 143.85 208.318 114.286 208.51C61.921 208.51 19.649 165.877 19.649 113.501C19.649 60.935 61.922 18.283 114.286 18.283C132.6 18.3137 150.516 23.626 165.886 33.583C175.006 39.5909 183.051 47.0882 189.686 55.762C202.243 72.3848 209 92.6685 208.919 113.501Z" fill="#31343B"/>
<path d="M40.853 17.732C42.1056 17.3305 42.9923 16.2133 43.099 14.9024C43.2056 13.5914 42.5111 12.3456 41.34 11.7469C40.1688 11.1483 38.7522 11.3151 37.7521 12.1693C36.752 13.0236 36.3658 14.3967 36.774 15.647C37.3295 17.345 39.1514 18.2763 40.853 17.732Z" fill="#31343B"/>
<path d="M4.42201 125.746C5.67453 125.345 6.56129 124.227 6.66794 122.916C6.7746 121.605 6.08009 120.36 4.90894 119.761C3.73778 119.162 2.32121 119.329 1.3211 120.183C0.320996 121.038 -0.0651806 122.411 0.343013 123.661C0.898501 125.359 2.72039 126.29 4.42201 125.746Z" fill="#31343B"/>
<path d="M206.464 31.571C207.49 31.5836 208.421 30.9759 208.823 30.0323C209.225 29.0887 209.018 27.9958 208.299 27.2648C207.579 26.5338 206.49 26.3093 205.54 26.6963C204.59 27.0833 203.968 28.0053 203.964 29.031C203.958 29.6994 204.219 30.3427 204.688 30.8191C205.156 31.2955 205.796 31.566 206.464 31.571Z" fill="#31343B"/>
<path d="M30.188 156.204C31.2073 155.26 31.2782 153.671 30.347 152.64C29.9048 152.145 29.2822 151.847 28.6188 151.815C27.9555 151.783 27.307 152.019 26.819 152.469C25.8 153.421 25.7294 155.013 26.66 156.052C27.1047 156.545 27.7288 156.839 28.3921 156.868C29.0555 156.896 29.7026 156.657 30.188 156.204Z" fill="#31343B"/>
<path d="M87.314 16.653C88.3317 15.7076 88.4016 14.1202 87.471 13.089C87.0288 12.5935 86.4062 12.2964 85.7429 12.2642C85.0795 12.232 84.4311 12.4676 83.943 12.918C82.9258 13.8633 82.855 15.4499 83.784 16.482C84.2242 16.9816 84.8478 17.2817 85.5129 17.3139C86.1779 17.3461 86.8276 17.1077 87.314 16.653Z" fill="#31343B"/>
<path d="M201.564 211.657C202.581 210.712 202.652 209.125 201.723 208.093C201.28 207.598 200.657 207.301 199.994 207.269C199.33 207.237 198.681 207.473 198.193 207.923C197.175 208.876 197.105 210.468 198.036 211.506C198.481 211.999 199.105 212.293 199.768 212.321C200.432 212.349 201.079 212.11 201.564 211.657Z" fill="#31343B"/>
<path d="M199.274 185.932C199.003 187.733 198.583 189.508 198.019 191.24C194.135 201.349 186.116 209.316 175.982 213.135C173.235 214.097 170.375 214.702 167.474 214.935C153.107 215.921 119.774 194.576 119.774 194.576L113.636 190.955L107.5 194.576C107.5 194.576 74.165 215.921 59.8 214.935C55.4643 214.658 51.2356 213.471 47.39 211.449C39.0384 207.209 32.5718 200.002 29.258 191.242C25.213 179.66 29.815 162.788 40.694 140.325C51.573 117.862 67.612 115.225 77.376 112.857C75.702 113.274 72.214 110.469 71.1 109.635C71.1 109.635 70.96 109.635 70.96 109.502C68.5337 107.732 66.2893 105.726 64.26 103.512C60.0547 99.1332 56.5289 94.1493 53.8 88.726C51.9086 84.6298 51.2778 80.0636 51.988 75.608C52.469 72.7578 53.2159 69.9589 54.219 67.248C54.638 66.13 55.055 65.148 55.474 64.026C56.312 61.941 57.288 59.704 58.264 57.619C60.2167 53.4297 62.3087 49.3857 64.54 45.487C66.074 42.7 67.747 39.914 69.281 37.108C82.67 13.545 99.408 6.15202 113.773 5.45102C128.138 6.15102 144.736 13.545 158.125 36.975C159.659 39.762 161.332 42.548 162.868 45.335C165.239 49.676 167.609 53.998 169.702 58.585C170.538 60.405 171.236 62.224 172.073 63.893C172.63 65.429 173.188 66.831 173.747 68.348C174.544 70.6705 175.15 73.0541 175.559 75.475C176.269 79.9247 175.638 84.485 173.747 88.575C171.023 94.0016 167.496 98.9864 163.285 103.361C161.21 105.623 158.921 107.68 156.451 109.503C155.196 110.337 151.71 113.123 150.175 112.703C153.715 113.482 157.207 114.463 160.635 115.641C161.335 115.906 161.892 116.058 162.589 116.323C170.818 119.545 179.883 125.823 186.857 140.323C188.391 143.523 189.924 146.73 191.181 149.668C192.436 152.587 193.551 155.526 194.667 158.179C198.438 169.193 200.25 178.406 199.274 185.932Z" fill="#31343B"/>
<path d="M198.157 191.24C194.273 201.348 186.255 209.315 176.123 213.134C173.328 212.851 170.621 211.992 168.173 210.613C175.845 207.693 180.866 199.884 182.819 191.922C184.631 183.847 183.936 175.468 183.098 167.241C178.774 172.814 174.312 178.541 169.988 184.112C173.786 170.33 175.939 156.146 176.403 141.858C171.619 146.044 165.592 148.542 159.249 148.966C167.478 143.393 170.685 131.527 166.64 122.466C161.899 130.276 156.599 131.527 153.39 132.513C162.317 120.513 160.364 115.907 160.504 115.774C169.15 118.845 179.193 124.835 186.724 140.455C197.6 162.787 202.202 179.658 198.157 191.24Z" fill="#31343B"/>
<path d="M72.213 131.394C70.401 128.194 68.587 125.12 66.913 121.916C63.006 124.987 61.054 130.01 60.637 135.016C60.218 140.039 61.054 144.93 62.03 149.953C57.987 147.166 53.941 144.513 49.896 141.726C46.9668 152.276 47.8052 163.517 52.267 173.516C49.06 171.146 45.991 168.777 42.783 166.408C44.457 169.062 46.269 171.697 47.943 174.351C53.383 182.578 54.219 193.193 57.148 202.387C51.709 199.187 46.269 195.98 40.969 192.757C43.202 199.05 45.293 205.325 47.524 211.448C39.1735 207.207 32.7077 200.001 29.394 191.241C25.349 179.658 29.951 162.787 40.83 140.324C51.709 117.861 67.748 115.224 77.51 112.856C75.836 113.273 72.35 110.468 71.234 109.633C71.198 109.634 71.163 109.621 71.1371 109.596C71.1111 109.571 71.0963 109.536 71.096 109.5C71.7499 109.473 72.4048 109.518 73.049 109.633C75.837 109.785 78.488 110.202 78.768 112.988C73.4013 117.477 70.8918 124.523 72.213 131.394Z" fill="#31343B"/>
<path d="M144.042 55.38C144.011 47.4147 138.233 40.636 130.373 39.343C118.634 37.5231 106.686 37.5231 94.947 39.343C87.0601 40.5873 81.2579 47.3956 81.28 55.38V84.402C81.2932 92.9003 84.7088 101.039 90.764 107.002C93.833 109.921 97.179 113.277 100.388 116.329C107.249 123.04 118.214 123.04 125.075 116.329L134.697 107.002C140.782 101.06 144.203 92.9074 144.181 84.402V55.38H144.042Z" fill="#31343B"/>
<path opacity="0.2" d="M91.462 80.634C94.004 80.634 96.062 79.193 96.062 77.434C96.062 75.652 94.002 74.212 91.462 74.212C88.922 74.212 86.862 75.653 86.862 77.434C86.859 79.19 88.92 80.634 91.462 80.634Z" fill="#31343B"/>
<path d="M104.154 87.189C104.154 87.454 104.435 87.606 104.713 87.606H104.854C105.009 87.5803 105.145 87.4878 105.226 87.353C105.306 87.2182 105.324 87.0548 105.273 86.906C105.213 86.6206 105.29 86.3234 105.482 86.1037C105.674 85.8839 105.958 85.767 106.249 85.788C107.087 85.655 108.899 85.788 109.178 86.774C109.317 87.0314 109.586 87.1917 109.878 87.191C110.138 87.055 110.3 86.7846 110.297 86.491C109.738 84.671 107.09 84.539 106.111 84.823C105.52 84.8306 104.962 85.0976 104.585 85.5532C104.208 86.0088 104.051 86.6069 104.154 87.189Z" fill="#31343B"/>
<path d="M114.894 86.355C114.754 86.62 114.894 86.905 115.313 87.037C115.592 87.189 115.87 87.037 116.013 86.62C116.292 85.653 118.104 85.502 118.942 85.653C119.499 85.786 120.057 86.07 119.918 86.771C119.915 87.0601 120.078 87.3255 120.337 87.453H120.475C120.754 87.453 121.032 87.32 121.032 87.036C121.313 85.785 120.475 84.818 119.08 84.536C118.101 84.402 115.451 84.535 114.894 86.355Z" fill="#31343B"/>
<path d="M89.788 68.081C88.6166 68.7135 87.5753 69.5617 86.719 70.581C86.5807 70.8418 86.5807 71.1542 86.719 71.415C86.9618 71.6171 87.3142 71.6171 87.557 71.415C88.5687 70.2935 89.8039 69.3959 91.183 68.78H91.321C91.602 68.78 91.74 68.628 91.88 68.344H92.018C92.1497 68.2955 92.2549 68.1939 92.3079 68.064C92.361 67.9341 92.357 67.7879 92.297 67.661C92.2472 67.5262 92.143 67.4185 92.0097 67.3644C91.8765 67.3104 91.7267 67.315 91.597 67.377C91.457 67.377 91.316 67.51 91.178 67.51C89.6374 67.0378 88.2444 66.1768 87.133 65.01C86.995 64.726 86.576 64.726 86.297 65.01C86.018 65.143 86.018 65.56 86.297 65.844C87.2564 66.8686 88.4563 67.6375 89.788 68.081Z" fill="#31343B"/>
<path d="M98.576 81.332C93.833 84.251 89.231 84.251 85.047 81.465C84.7747 81.2717 84.3973 81.3357 84.204 81.608C84.0107 81.8803 84.0747 82.2577 84.347 82.451C86.4266 83.9358 88.9045 84.7611 91.459 84.82C94.1408 84.7459 96.7487 83.9255 98.99 82.451C99.271 82.3 99.271 81.882 99.13 81.598C99.1247 81.4694 99.0489 81.3543 98.9329 81.2986C98.8169 81.2429 98.6796 81.2557 98.576 81.332Z" fill="#31343B"/>
<path d="M101.783 80.346C102.898 79.379 103.736 78.546 104.293 77.976C104.572 77.692 104.433 77.426 104.293 77.142C104.014 76.858 103.736 77.009 103.457 77.142C102.73 77.9524 101.937 78.7007 101.086 79.379C100.807 79.512 100.807 79.929 101.086 80.213C101.2 80.3159 101.353 80.3644 101.505 80.346C101.505 80.497 101.643 80.497 101.783 80.346Z" fill="#31343B"/>
<path d="M110.291 85.654C110.789 85.9852 111.368 86.1753 111.965 86.204H113.082C113.683 86.1946 114.267 86.0028 114.756 85.654C116.43 84.668 118.104 82.583 116.568 76.593C115.034 70.451 115.868 64.176 117.127 61.807C117.21 61.6308 117.191 61.423 117.076 61.2655C116.961 61.1081 116.769 61.0262 116.575 61.0522C116.382 61.0781 116.218 61.2078 116.149 61.39C115.034 63.76 113.918 70.167 115.592 77.01C117.127 83.133 115.035 84.403 114.192 84.952C113.751 85.2773 113.186 85.3824 112.658 85.237H112.239C111.711 85.3824 111.146 85.2773 110.705 84.952C109.869 84.403 107.776 83.132 109.305 77.01C109.445 76.726 109.167 76.441 108.888 76.31C108.609 76.179 108.329 76.443 108.188 76.727C106.944 82.583 108.617 84.668 110.291 85.654Z" fill="#31343B"/>
<path d="M109.315 70.034C109.315 70.3422 109.565 70.592 109.873 70.592C110.181 70.592 110.431 70.3422 110.431 70.034C110.503 67.04 110.028 64.058 109.031 61.234C108.979 61.1013 108.873 60.9968 108.74 60.9463C108.606 60.8959 108.458 60.9041 108.331 60.969C108.2 61.0176 108.095 61.119 108.042 61.2487C107.989 61.3783 107.992 61.5243 108.052 61.651C108.948 64.353 109.375 67.1881 109.315 70.034Z" fill="#31343B"/>
<path d="M97.319 98.072C94.1314 96.1845 91.451 93.5497 89.509 90.395C89.369 90.111 88.952 90.111 88.671 90.262C88.392 90.395 88.392 90.812 88.533 91.096C90.6217 94.3872 93.4367 97.1561 96.762 99.19H97.041C97.25 99.1505 97.4433 99.0519 97.598 98.906C97.598 98.487 97.598 98.203 97.319 98.072Z" fill="#31343B"/>
<path d="M133.304 68.347C133.408 68.5743 133.615 68.7369 133.861 68.783H134.001C135.352 69.4459 136.579 70.3373 137.627 71.418C137.869 71.6206 138.221 71.6206 138.463 71.418C138.742 71.285 138.742 70.868 138.463 70.584C137.536 69.6398 136.508 68.8013 135.396 68.084C136.716 67.5562 137.906 66.7475 138.882 65.714C139.022 65.4537 139.022 65.1403 138.882 64.88C138.624 64.7286 138.304 64.7286 138.046 64.88C136.894 65.9958 135.514 66.8487 134.001 67.38C133.861 67.38 133.722 67.247 133.582 67.247C133.455 67.1821 133.307 67.1739 133.173 67.2243C133.04 67.2748 132.934 67.3793 132.882 67.512C132.839 67.8504 133.006 68.181 133.304 68.347Z" fill="#31343B"/>
<path d="M140.976 81.597C140.836 81.332 140.417 81.332 140.138 81.464C135.814 84.402 131.352 84.25 126.609 81.331C126.337 81.1551 125.977 81.2125 125.773 81.464C125.607 81.7384 125.666 82.093 125.913 82.298C128.163 83.7539 130.766 84.5726 133.444 84.667C136.002 84.6291 138.486 83.8017 140.556 82.298C141.114 82.166 141.114 81.881 140.976 81.597Z" fill="#31343B"/>
<path d="M120.892 78.128C121.669 78.9786 122.508 79.7707 123.402 80.498C123.653 80.6752 123.988 80.6752 124.238 80.498C124.378 80.231 124.378 79.9121 124.238 79.645C123.123 78.678 122.286 77.845 121.868 77.427C121.771 77.2929 121.615 77.2136 121.449 77.2136C121.283 77.2136 121.127 77.2929 121.03 77.427C120.751 77.427 120.751 77.692 120.892 78.128Z" fill="#31343B"/>
<path d="M135.813 90.392C132.465 95.415 128.141 100.022 120.053 100.154C116.705 100.154 114.753 100.287 113.638 100.287H111.405C110.29 100.287 108.338 100.287 104.99 100.154C103.869 100.135 102.75 100.04 101.642 99.87C101.35 99.8691 101.08 100.029 100.942 100.287C100.934 100.582 101.098 100.855 101.361 100.987C102.512 101.209 103.677 101.348 104.847 101.404C107.776 101.404 109.59 101.555 110.985 101.555H113.495C114.75 101.555 116.702 101.555 119.631 101.404C128.279 101.271 132.881 96.115 136.368 91.225C136.532 90.9507 136.474 90.5977 136.23 90.391C136.232 89.975 135.953 90.108 135.813 90.392Z" fill="#31343B"/>
<path opacity="0.2" d="M133.721 80.634C136.263 80.634 138.321 79.193 138.321 77.434C138.321 75.652 136.261 74.212 133.721 74.212C131.181 74.212 129.121 75.653 129.121 77.434C129.118 79.19 131.179 80.634 133.721 80.634Z" fill="#31343B"/>
<path d="M97.041 54.262C98.5803 54.6758 100.075 55.2409 101.503 55.949C102.934 56.6934 104.289 57.576 105.548 58.584C105.805 58.8089 106.141 58.9214 106.482 58.8964C106.822 58.8714 107.139 58.711 107.36 58.451C107.812 57.9063 107.751 57.1013 107.222 56.631C105.821 55.4991 104.274 54.5617 102.622 53.844C100.989 53.1031 99.2462 52.6356 97.462 52.46C95.641 52.1729 93.778 52.3157 92.022 52.877C90.2734 53.3757 88.7174 54.3936 87.56 55.796V56.08C87.56 56.213 87.698 56.213 87.839 56.08C89.146 55.1014 90.6824 54.4747 92.301 54.26C93.8628 53.9199 95.4795 53.9206 97.041 54.262Z" fill="#31343B"/>
<path d="M104.155 68.498C104.478 68.3718 104.711 68.0851 104.768 67.7432C104.825 67.4013 104.698 67.0545 104.434 66.83C101.505 64.309 100.11 63.759 97.041 64.176C94.437 64.5978 92.0661 65.9272 90.348 67.929C92.449 69.3381 94.9306 70.0709 97.46 70.029C99.272 70.166 102.339 69.199 104.155 68.498Z" fill="#31343B"/>
<path d="M112.103 101.141H108.896C109.519 102.242 109.81 103.499 109.734 104.762C109.339 106.837 109.06 108.932 108.896 111.037C108.756 113.537 109.734 115.359 112.103 117.861C114.336 115.361 115.451 113.406 115.312 111.037C115.158 108.931 114.878 106.835 114.474 104.762C114.398 103.499 114.689 102.242 115.312 101.141L112.103 101.141Z" fill="#31343B"/>
<path d="M137.766 55.532C136.61 54.1244 135.054 53.1001 133.304 52.594C131.533 52.1168 129.687 51.9753 127.864 52.177C126.093 52.4304 124.36 52.9006 122.704 53.577C121.045 54.2801 119.495 55.2188 118.104 56.364C117.821 56.5669 117.642 56.8844 117.615 57.2314C117.588 57.5785 117.716 57.9198 117.964 58.164C118.392 58.7345 119.196 58.8605 119.778 58.448C121.073 57.4859 122.423 56.5998 123.821 55.794C125.254 55.1001 126.748 54.5417 128.285 54.126C129.838 53.7581 131.442 53.662 133.028 53.842C134.647 54.0567 136.183 54.6834 137.49 55.662H137.769L137.766 55.532Z" fill="#31343B"/>
<path d="M128.141 64.175C125.072 63.891 123.679 64.308 120.75 66.829C120.49 67.0554 120.366 67.4008 120.423 67.7411C120.48 68.0814 120.709 68.3676 121.029 68.497C122.841 69.047 125.91 70.032 127.722 70.032C130.252 70.0738 132.734 69.341 134.836 67.932C133.171 65.8649 130.773 64.5193 128.141 64.175Z" fill="#31343B"/>
<path d="M127.725 90.943L119.775 90.677L115.451 84.668H109.736L105.412 90.677L97.464 90.943L91.326 84.669H90.769L96.208 94.014H106.808L112.665 88.308L118.384 94.014H128.984L134.423 84.669H133.866L127.725 90.943Z" fill="#31343B"/>
<path d="M105.548 96.25H105.269V97.785H120.053V96.25H105.548Z" fill="#31343B"/>
<path opacity="0.4" d="M175.423 75.474H52.129C52.6109 72.6181 53.3577 69.8133 54.36 67.096C54.779 65.978 55.198 65.011 55.617 63.896C56.453 61.811 57.429 59.574 58.405 57.489C60.3577 53.2997 62.4497 49.2493 64.681 45.338H162.73C165.101 49.679 167.473 54.001 169.564 58.589C170.402 60.409 171.099 62.228 171.935 63.897C172.492 65.432 173.051 66.835 173.609 68.352C174.343 70.6913 174.948 73.0688 175.423 75.474Z" fill="#31343B"/>
<path d="M169.568 58.584C148.646 50.092 108.618 40.879 58.406 57.617C61.754 50.508 65.659 43.817 69.425 36.973C82.675 13.543 99.412 6.15001 113.777 5.44901C128.142 6.14901 144.74 13.543 158.129 36.973C162.034 43.949 166.08 51.191 169.568 58.584Z" fill="#31343B"/>
<path d="M131.071 120.248V144.36C131.071 145.515 130.134 146.452 128.979 146.452C127.824 146.452 126.887 145.515 126.887 144.36V119.812H131.071V120.248Z" fill="#31343B"/>
<path d="M94.112 119.68V130.011C94.112 131.167 93.175 132.104 92.019 132.104C90.8631 132.104 89.926 131.167 89.926 130.011V119.68H94.112Z" fill="#31343B"/>
<path d="M169.653 143.83H56.953C55.1745 143.825 53.4737 144.559 52.2573 145.856C51.0409 147.154 50.4182 148.898 50.538 150.673L55 217.76C55.2374 221.361 58.2251 224.162 61.834 224.167H164.91C168.519 224.163 171.507 221.361 171.744 217.76L176.208 150.673C176.271 148.889 175.61 147.156 174.375 145.867C173.141 144.579 171.438 143.844 169.653 143.83Z" fill="#31343B"/>
<path d="M137.96 189.541C137.604 191.391 137.008 193.187 136.186 194.883C136.023 195.265 135.838 195.638 135.631 195.998C134.958 197.262 134.218 198.488 133.414 199.673C133.082 200.114 132.75 200.556 132.414 201.008C130.28 203.488 127.682 205.526 124.765 207.008C124.211 207.24 123.657 207.571 123.102 207.791C122.166 208.191 121.203 208.525 120.22 208.791C116.33 209.945 112.211 210.097 108.246 209.233C94.6486 206.37 85.9255 193.051 88.7342 179.442C91.5429 165.834 104.826 157.057 118.446 159.811C131.989 162.713 140.685 175.961 137.96 189.541Z" fill="#31343B"/>
<path fill-rule="evenodd" clip-rule="evenodd" d="M109.133 205.234C110.553 205.545 112.003 205.693 113.456 205.676C115.426 205.652 117.391 205.467 119.332 205.125C119.867 204.973 120.402 204.763 120.973 204.539C121.231 204.438 121.495 204.334 121.771 204.231L123.101 203.569C125.543 202.275 127.724 200.539 129.532 198.448C129.694 198.281 129.831 198.089 129.966 197.899C130.108 197.7 130.248 197.502 130.418 197.333C131.109 196.335 131.738 195.295 132.303 194.221C132.471 193.934 132.62 193.635 132.747 193.327C133.394 191.862 133.877 190.329 134.187 188.758C136.582 177.286 129.245 166.038 117.78 163.606C112.272 162.4 106.51 163.482 101.816 166.606C94.6714 171.354 91.065 179.919 92.6615 188.347C94.258 196.775 100.747 203.428 109.133 205.234ZM102.814 168.284C105.926 166.184 109.592 165.058 113.346 165.05H113.348C114.664 165.008 115.977 165.2 117.226 165.617C122.268 166.64 126.69 169.641 129.502 173.949C132.315 178.257 133.283 183.512 132.192 188.54C131.969 189.974 131.52 191.363 130.862 192.657C130.807 192.768 130.752 192.908 130.696 193.049C130.641 193.19 130.585 193.331 130.53 193.441C130.003 194.408 129.41 195.337 128.755 196.222C128.646 196.384 128.509 196.549 128.372 196.715C128.232 196.884 128.091 197.055 127.979 197.222C126.33 199.103 124.335 200.65 122.103 201.78C121.706 201.989 121.299 202.177 120.883 202.343C120.299 202.592 119.714 202.779 119.177 202.95C119.001 203.006 118.83 203.06 118.666 203.115C115.677 204.004 112.512 204.122 109.466 203.457C101.814 201.833 95.8854 195.771 94.4317 188.085C92.978 180.398 96.2832 172.591 102.814 168.284Z" fill="#31343B"/>
<path fill-rule="evenodd" clip-rule="evenodd" d="M111.559 197.101H109.12V193.095C107.567 192.985 106.127 192.985 104.574 192.985H104.574C104.736 192.063 104.819 191.563 104.874 191.229L104.874 191.229C104.933 190.875 104.961 190.708 105.018 190.424C105.022 190.301 105.118 190.201 105.24 190.192H106.681C107.457 190.192 107.567 189.971 107.567 189.42V179.62C107.62 179.253 107.497 178.883 107.236 178.62C106.974 178.357 106.604 178.233 106.237 178.284H104.574V175.944H108.787H108.787C108.976 175.944 109.058 175.944 109.093 175.904C109.12 175.873 109.12 175.819 109.12 175.723V171.823H111.559V175.829H113.333V171.823H115.55V175.723C115.55 175.833 115.55 175.944 115.772 175.944C118.543 176.286 120.761 177.169 120.982 179.844C121.164 180.789 120.92 181.766 120.317 182.515C119.974 182.951 119.562 183.328 119.097 183.63C120.489 183.921 121.648 184.879 122.197 186.19C122.399 186.953 122.437 187.751 122.307 188.53C122.211 189.371 121.906 190.176 121.421 190.87C120.88 191.697 120.049 192.292 119.092 192.537C117.987 192.935 116.828 193.162 115.655 193.21C115.433 193.21 115.433 193.32 115.433 193.431V197.216H113.216V193.316H111.442C111.559 194.43 111.559 195.765 111.559 197.101ZM111.559 185.303V190.301C112.034 190.28 112.466 190.267 112.865 190.254C114.516 190.205 115.587 190.172 116.659 189.639C117.325 189.33 117.785 188.7 117.879 187.972C117.978 187.163 117.585 186.372 116.879 185.963C115.59 185.274 113.505 185.289 112.047 185.3C111.875 185.302 111.711 185.303 111.559 185.303ZM111.559 183.07V178.504C112.915 178.323 114.295 178.517 115.55 179.063C117.102 179.615 117.435 182.176 114.996 182.849C113.867 183.091 112.709 183.165 111.559 183.07Z" fill="#31343B"/>
</svg>
